<?xml version="1.0" encoding="UTF-8"?>
<!DOCTYPE svg PUBLIC "-//W3C//DTD SVG 1.1//EN" "http://www.w3.org/Graphics/SVG/1.1/DTD/svg11.dtd">
<!-- Creator: CorelDRAW -->
<svg xmlns="http://www.w3.org/2000/svg" xml:space="preserve" width="6.5893mm" height="6.5892mm" version="1.1" style="shape-rendering:geometricPrecision; text-rendering:geometricPrecision; image-rendering:optimizeQuality; fill-rule:evenodd; clip-rule:evenodd"
viewBox="0 0 39.2 39.2"
 xmlns:xlink="http://www.w3.org/1999/xlink"
 xmlns:xodm="http://www.corel.com/coreldraw/odm/2003">
 <defs>
  <style type="text/css">
   <![CDATA[
    .fil0 {fill:#D1A132;fill-rule:nonzero}
    .fil1 {fill:white;fill-rule:nonzero}
   ]]>
  </style>
 </defs>
 <g id="Layer_x0020_1">
  <metadata id="CorelCorpID_0Corel-Layer"/>
  <path class="fil0" d="M6.65 36.51l-0.5 -0.26c0.11,-0.2 10.8,-20.47 26.8,-24.32l0.13 0.54c-15.76,3.79 -26.33,23.83 -26.44,24.03z"/>
  <path class="fil0" d="M11.56 28.89l-0.41 -0.38c0.09,-0.09 9.02,-9.41 21.66,-8.43l-0.04 0.56c-12.36,-0.96 -21.12,8.17 -21.21,8.26z"/>
  <path class="fil0" d="M17.6 21.89l-0.42 -0.37c5.85,-6.78 2.79,-13.73 2.75,-13.8l0.51 -0.23c0.03,0.07 3.24,7.35 -2.84,14.4z"/>
  <path class="fil0" d="M35.5 20.4c-0.03,0.96 -0.83,1.71 -1.78,1.69 -0.96,-0.03 -1.71,-0.83 -1.69,-1.78 0.03,-0.96 0.83,-1.71 1.78,-1.69 0.96,0.03 1.71,0.83 1.69,1.78z"/>
  <path class="fil0" d="M35.07 12.27c-0.03,0.96 -0.83,1.71 -1.78,1.69 -0.96,-0.03 -1.71,-0.83 -1.69,-1.78 0.03,-0.96 0.83,-1.71 1.78,-1.69 0.96,0.03 1.71,0.83 1.69,1.78z"/>
  <path class="fil0" d="M21.65 7.64c-0.03,0.96 -0.83,1.71 -1.78,1.69 -0.96,-0.03 -1.71,-0.83 -1.69,-1.78 0.03,-0.96 0.83,-1.71 1.78,-1.69 0.96,0.03 1.71,0.83 1.69,1.78z"/>
  <path class="fil0" d="M33.01 27.23c-0.17,0.37 -0.32,0.59 -0.51,0.86 -0.18,0.25 -0.39,0.48 -0.59,0.7 -0.42,0.43 -0.89,0.8 -1.37,1.14 -0.98,0.66 -2.05,1.13 -3.15,1.49 -1.1,0.36 -2.22,0.57 -3.32,0.75 -1.11,0.17 -2.23,0.28 -3.35,0.34 -2.24,0.13 -4.47,0.02 -6.67,-0.01 -1.1,-0 -2.2,0 -3.25,0.2 -1.04,0.19 -2.04,0.6 -2.74,1.38 -0.1,0.11 -0.28,0.12 -0.4,0.02 -0.11,-0.1 -0.12,-0.27 -0.03,-0.39l0 -0c0.77,-0.92 1.92,-1.43 3.03,-1.66 1.13,-0.24 2.26,-0.28 3.37,-0.31 2.23,-0.04 4.43,0 6.61,-0.19 1.09,-0.09 2.17,-0.23 3.24,-0.42 1.07,-0.2 2.13,-0.44 3.13,-0.8 1,-0.35 1.96,-0.82 2.8,-1.42 0.41,-0.31 0.81,-0.64 1.15,-1.01 0.17,-0.19 0.33,-0.38 0.47,-0.58 0.13,-0.19 0.27,-0.43 0.33,-0.57l0.02 -0.05c0.14,-0.34 0.54,-0.51 0.88,-0.36 0.34,0.14 0.51,0.54 0.36,0.88 -0,0.01 -0,0.01 -0.01,0.02z"/>
  <path class="fil0" d="M11.15 12.97c0.26,0.2 0.41,0.35 0.59,0.54 0.17,0.18 0.32,0.37 0.46,0.57 0.28,0.4 0.51,0.82 0.71,1.25 0.38,0.87 0.6,1.8 0.67,2.72 0.16,1.85 -0.17,3.66 -0.7,5.36 -0.53,1.69 -1.17,3.34 -1.91,4.94 -0.74,1.6 -1.55,3.16 -2.48,4.66 -0.03,0.04 -0.08,0.05 -0.12,0.03 -0.04,-0.02 -0.05,-0.08 -0.03,-0.12l0 -0c0.84,-1.53 1.57,-3.13 2.22,-4.75 0.65,-1.62 1.19,-3.28 1.63,-4.96 0.42,-1.67 0.61,-3.39 0.37,-5.04 -0.12,-0.82 -0.36,-1.61 -0.72,-2.33 -0.18,-0.36 -0.4,-0.69 -0.64,-1 -0.12,-0.15 -0.25,-0.3 -0.39,-0.43 -0.13,-0.13 -0.3,-0.27 -0.39,-0.33l-0.02 -0.01c-0.31,-0.2 -0.41,-0.61 -0.21,-0.93 0.2,-0.31 0.61,-0.41 0.93,-0.21 0.02,0.01 0.03,0.02 0.05,0.03z"/>
  <path class="fil0" d="M19.94 6.31c0.06,0.1 -0.13,0.34 -0.42,0.52 -0.3,0.19 -0.59,0.26 -0.66,0.15 -0.06,-0.1 0.13,-0.34 0.42,-0.52 0.3,-0.19 0.59,-0.26 0.66,-0.15z"/>
  <path class="fil0" d="M34.49 12.24c-0.11,0.05 -0.32,-0.16 -0.48,-0.47 -0.16,-0.32 -0.2,-0.61 -0.09,-0.67 0.11,-0.05 0.32,0.16 0.48,0.47 0.16,0.31 0.2,0.61 0.09,0.67z"/>
  <path class="fil0" d="M34.84 21.08c-0.12,-0.01 -0.19,-0.31 -0.15,-0.66 0.04,-0.35 0.17,-0.62 0.28,-0.61 0.12,0.01 0.19,0.31 0.15,0.66 -0.04,0.35 -0.17,0.62 -0.28,0.61z"/>
  <rect class="fil0" transform="matrix(0.0625018 -0.320841 0.320845 0.0625011 25.664 15.0212)" width="11.25" height="1.71"/>
  <rect class="fil0" transform="matrix(0.00931642 -0.326758 0.326761 0.00931633 21.7788 18.1158)" width="1.71" height="8.96"/>
  <rect class="fil0" transform="matrix(0.208786 -0.251508 0.251511 0.208784 18.6395 13.2631)" width="1.71" height="7.97"/>
  <rect class="fil0" transform="matrix(0.0676993 -0.319795 0.319798 0.0676987 22.5486 21.9992)" width="1.71" height="10.73"/>
  <rect class="fil0" transform="matrix(0.190382 -0.265728 0.265731 0.19038 17.5544 24.1681)" width="1.72" height="7.39"/>
  <rect class="fil0" transform="matrix(0.107057 -0.308877 0.30888 0.107056 20.2813 22.423)" width="7.05" height="1.72"/>
  <g>
   <path class="fil1" d="M0.11 21.71l0.78 -0.08 0 0 0.04 0.37 0.05 0.37 0.06 0.37 0.06 0.37 0.07 0.36 0.08 0.36 0.09 0.36 0.09 0.35 0.1 0.35 0.1 0.35 0.11 0.34 0.12 0.34 0.12 0.34 0.13 0.33 0.14 0.33 0.14 0.33 0.15 0.32 0.15 0.32 0.16 0.32 0.17 0.31 0.17 0.31 0.18 0.31 0.18 0.3 0.19 0.3 0.19 0.29 0.2 0.29 0.2 0.29 0.21 0.28 0.21 0.28 0.22 0.27 0.22 0.27 0.23 0.26 -0.59 0.51 -0.24 -0.28 -0.23 -0.28 -0.23 -0.28 -0.22 -0.29 -0.22 -0.29 -0.21 -0.3 -0.21 -0.3 -0.2 -0.31 -0.2 -0.31 -0.19 -0.32 -0.18 -0.32 -0.18 -0.32 -0.17 -0.33 -0.17 -0.33 -0.16 -0.33 -0.15 -0.34 -0.15 -0.34 -0.14 -0.35 -0.14 -0.35 -0.13 -0.35 -0.12 -0.36 -0.12 -0.36 -0.11 -0.36 -0.1 -0.37 -0.1 -0.37 -0.09 -0.37 -0.08 -0.37 -0.07 -0.38 -0.07 -0.38 -0.06 -0.38 -0.05 -0.39 -0.05 -0.39 0 0zm17.38 -21.6l0.08 0.78 0 0 -0.96 0.13 -0.94 0.17 -0.92 0.22 -0.9 0.26 -0.88 0.31 -0.86 0.35 -0.84 0.39 -0.81 0.43 -0.79 0.46 -0.76 0.5 -0.73 0.54 -0.71 0.57 -0.68 0.6 -0.65 0.63 -0.62 0.66 -0.58 0.69 -0.55 0.72 -0.51 0.74 -0.48 0.77 -0.44 0.79 -0.4 0.81 -0.37 0.83 -0.33 0.85 -0.28 0.87 -0.24 0.89 -0.2 0.9 -0.16 0.92 -0.11 0.93 -0.06 0.94 -0.02 0.95 0.03 0.96 0.08 0.97 -0.78 0.08 -0.08 -1.01 -0.03 -1 0.02 -0.99 0.07 -0.98 0.12 -0.97 0.16 -0.95 0.21 -0.94 0.25 -0.92 0.3 -0.9 0.34 -0.89 0.38 -0.87 0.42 -0.84 0.46 -0.82 0.5 -0.8 0.54 -0.77 0.57 -0.75 0.61 -0.72 0.64 -0.69 0.67 -0.66 0.71 -0.63 0.74 -0.59 0.77 -0.56 0.79 -0.52 0.82 -0.48 0.85 -0.45 0.87 -0.4 0.9 -0.36 0.92 -0.32 0.94 -0.28 0.96 -0.23 0.98 -0.18 1 -0.13 0 0zm21.6 17.38l-0.78 0.08 0 0 -0.13 -0.96 -0.17 -0.94 -0.22 -0.92 -0.26 -0.9 -0.31 -0.88 -0.35 -0.86 -0.39 -0.84 -0.43 -0.81 -0.46 -0.79 -0.5 -0.76 -0.54 -0.73 -0.57 -0.71 -0.6 -0.68 -0.63 -0.65 -0.66 -0.62 -0.69 -0.58 -0.72 -0.55 -0.74 -0.51 -0.77 -0.48 -0.79 -0.44 -0.81 -0.41 -0.83 -0.37 -0.85 -0.33 -0.87 -0.28 -0.89 -0.24 -0.9 -0.2 -0.92 -0.16 -0.93 -0.11 -0.94 -0.06 -0.95 -0.02 -0.96 0.03 -0.97 0.08 -0.08 -0.78 1.01 -0.08 1 -0.03 0.99 0.02 0.98 0.07 0.97 0.12 0.95 0.16 0.94 0.21 0.92 0.25 0.9 0.3 0.89 0.34 0.87 0.38 0.84 0.42 0.82 0.46 0.8 0.5 0.77 0.54 0.75 0.57 0.72 0.61 0.69 0.64 0.66 0.67 0.63 0.71 0.59 0.74 0.56 0.77 0.52 0.79 0.48 0.82 0.45 0.85 0.4 0.87 0.36 0.9 0.32 0.92 0.28 0.94 0.23 0.96 0.18 0.98 0.13 1 0 0zm-17.38 21.6l-0.08 -0.78 0 0 0.96 -0.13 0.94 -0.18 0.92 -0.22 0.9 -0.26 0.88 -0.31 0.86 -0.35 0.84 -0.39 0.81 -0.43 0.79 -0.46 0.76 -0.5 0.73 -0.53 0.71 -0.57 0.68 -0.6 0.65 -0.63 0.62 -0.66 0.58 -0.69 0.55 -0.72 0.51 -0.74 0.48 -0.77 0.44 -0.79 0.41 -0.81 0.37 -0.83 0.33 -0.85 0.28 -0.87 0.24 -0.89 0.2 -0.9 0.16 -0.92 0.11 -0.93 0.06 -0.94 0.02 -0.95 -0.03 -0.96 -0.08 -0.97 0.78 -0.08 0.08 1.01 0.03 1 -0.02 0.99 -0.07 0.98 -0.12 0.97 -0.16 0.95 -0.21 0.94 -0.25 0.92 -0.3 0.91 -0.34 0.89 -0.38 0.87 -0.42 0.85 -0.46 0.82 -0.5 0.8 -0.54 0.77 -0.57 0.75 -0.61 0.72 -0.64 0.69 -0.67 0.66 -0.71 0.63 -0.74 0.59 -0.77 0.56 -0.79 0.52 -0.82 0.48 -0.85 0.44 -0.87 0.4 -0.9 0.36 -0.92 0.32 -0.94 0.28 -0.96 0.23 -0.98 0.18 -1 0.13 0 0zm-11.24 -2.14l0.36 -0.69 0.3 0.16 0.31 0.15 0.31 0.15 0.31 0.14 0.31 0.13 0.32 0.13 0.32 0.12 0.32 0.12 0.32 0.11 0.33 0.11 0.33 0.1 0.33 0.09 0.33 0.09 0.33 0.08 0.34 0.08 0.34 0.07 0.34 0.06 0.34 0.06 0.35 0.05 0.35 0.04 0.35 0.04 0.35 0.03 0.35 0.03 0.35 0.02 0.35 0.01 0.36 0 0.36 -0 0.36 -0.01 0.36 -0.02 0.36 -0.02 0.36 -0.03 0.36 -0.04 0.08 0.78 -0.38 0.04 -0.38 0.03 -0.38 0.02 -0.37 0.02 -0.37 0.01 -0.37 0 -0.37 -0.01 -0.37 -0.01 -0.37 -0.02 -0.37 -0.03 -0.36 -0.03 -0.36 -0.04 -0.36 -0.05 -0.36 -0.05 -0.36 -0.06 -0.36 -0.07 -0.35 -0.07 -0.35 -0.08 -0.35 -0.09 -0.35 -0.09 -0.34 -0.1 -0.34 -0.1 -0.34 -0.11 -0.34 -0.12 -0.33 -0.12 -0.33 -0.13 -0.33 -0.13 -0.33 -0.14 -0.32 -0.15 -0.32 -0.15 -0.32 -0.16 -0.31 -0.16z"/>
  </g>
  <path class="fil1" d="M5.56 22.19c0,0.42 -0.34,0.76 -0.76,0.76 -0.42,0 -0.76,-0.34 -0.76,-0.76 0,-0.42 0.34,-0.76 0.76,-0.76 0.42,0 0.76,0.34 0.76,0.76z"/>
  <path class="fil1" d="M6.85 12.87c0,0.36 -0.29,0.65 -0.65,0.65 -0.36,0 -0.65,-0.29 -0.65,-0.65 0,-0.36 0.29,-0.65 0.65,-0.65 0.36,0 0.65,0.29 0.65,0.65z"/>
  <path class="fil1" d="M13.58 5.65c0,0.55 -0.45,1 -1,1 -0.55,0 -1,-0.45 -1,-1 0,-0.55 0.45,-1 1,-1 0.55,0 1,0.45 1,1z"/>
  <path class="fil1" d="M25.67 7.33c0,0.37 -0.3,0.68 -0.67,0.68 -0.37,0 -0.68,-0.3 -0.68,-0.68 0,-0.37 0.3,-0.67 0.68,-0.67 0.37,0 0.67,0.3 0.67,0.67z"/>
  <circle class="fil1" cx="17.94" cy="36.51" r="0.76"/>
  <circle class="fil1" cx="22.9" cy="27.84" r="0.35"/>
  <circle class="fil1" cx="27.5" cy="25.21" r="0.57"/>
  <path class="fil1" d="M23.74 35.75c0,0.24 -0.2,0.44 -0.44,0.44 -0.24,0 -0.44,-0.2 -0.44,-0.44 0,-0.24 0.2,-0.44 0.44,-0.44 0.24,0 0.44,0.2 0.44,0.44z"/>
  <path class="fil1" d="M29.82 7.95c0,0.34 -0.28,0.62 -0.62,0.62 -0.34,0 -0.62,-0.28 -0.62,-0.62 0,-0.34 0.28,-0.62 0.62,-0.62 0.34,0 0.62,0.28 0.62,0.62z"/>
 </g>
</svg>
