<?xml version="1.0" encoding="UTF-8"?>
<!DOCTYPE svg PUBLIC "-//W3C//DTD SVG 1.1//EN" "http://www.w3.org/Graphics/SVG/1.1/DTD/svg11.dtd">
<!-- Creator: CorelDRAW -->
<svg xmlns="http://www.w3.org/2000/svg" xml:space="preserve" width="38.1651mm" height="7.9334mm" version="1.1" style="shape-rendering:geometricPrecision; text-rendering:geometricPrecision; image-rendering:optimizeQuality; fill-rule:evenodd; clip-rule:evenodd"
viewBox="0 0 1315.18 273.39"
 xmlns:xlink="http://www.w3.org/1999/xlink"
 xmlns:xodm="http://www.corel.com/coreldraw/odm/2003">
 <defs>
  <style type="text/css">
   <![CDATA[
    .str0 {stroke:#D1A132;stroke-width:6.89;stroke-miterlimit:22.9256;stroke-dasharray:34.460276 20.676165}
    .fil2 {fill:none}
    .fil0 {fill:#D1A132;fill-rule:nonzero}
    .fil3 {fill:#D1A132;fill-rule:nonzero}
    .fil1 {fill:white;fill-rule:nonzero}
   ]]>
  </style>
 </defs>
 <g id="Layer_x0020_1">
  <metadata id="CorelCorpID_0Corel-Layer"/>
  <g id="_2479246337504">
   <polygon class="fil0" points="315.85,156.73 315.85,26.86 330.38,26.86 330.38,90.17 402.49,90.17 402.49,31.07 417.21,26.48 417.21,156.34 402.49,156.34 402.49,93.04 330.38,93.04 330.38,152.14 "/>
   <path id="_1" class="fil0" d="M557.21 156.54l-17.02 -4.59 -14.35 -37.29 -64.45 0 -16.07 41.5 -3.25 0 50.49 -129.48 14.72 0 49.92 129.87zm-32.51 -44.95l-30.98 -79.75 -31.18 79.75 62.16 0z"/>
   <polygon id="_2" class="fil0" points="596.8,156.54 582.08,156.54 582.08,31.26 596.8,26.67 "/>
   <path id="_3" class="fil0" d="M621.67 156.54l0 -129.87 61.97 0.19c20.46,0 45.33,9.18 46.09,35.38 0,17.21 -7.46,27.16 -16.64,33.28 -12.05,8.03 -24.48,8.99 -41.69,8.99 -2.87,-0.19 -5.93,-0.57 -8.8,-0.95 26.58,11.28 49.92,26.97 67.7,50.87l-2.3 1.72c-23.53,-31.17 -55.08,-47.24 -91.61,-59.1l0 54.89 -0.77 0.19c-9.75,3.06 -4.78,1.34 -13.96,4.4zm52.79 -55.08c23.52,-0.19 40.36,-9.75 40.55,-38.82 0,-10.52 -2.87,-19.13 -9.18,-25.06 -5.74,-5.36 -13.58,-7.84 -23.33,-7.84l-46.09 0 0 63.5c12.05,5.36 23.72,8.22 38.06,8.22z"/>
   <path id="_4" class="fil0" d="M883.12 163.8c-28.12,0 -57,-4.78 -79.95,-5.93 -13.96,-0.95 -25.63,-1.53 -33.47,-1.53l-14.54 0 0 -125.27 14.54 -4.59 0 126.99c7.84,0 18.93,0.58 33.66,1.34 23.14,1.34 52.6,5.93 80.9,5.93 39.4,-0.38 79.18,-2.87 93.53,-43.8 2.68,-7.84 4.21,-16.64 4.21,-25.25 0,-31.56 -18.36,-61.97 -53.37,-61.97 -35,0 -53.36,30.41 -53.36,61.78 0,22.38 11.67,52.4 33.28,61.39 -3.63,0.38 -7.27,0.57 -11.09,0.57 -22.19,-9.75 -36.72,-38.06 -36.72,-61.97 0,-31.75 22.19,-64.64 67.9,-64.64 45.52,0 67.9,32.9 67.9,64.64 0,9.18 -1.72,18.17 -5.36,26.59 -16.83,39.59 -63.5,44.56 -100.61,45.52l-7.46 0.19z"/>
   <path id="_5" class="fil0" d="M1087.39 153.47c25.63,0 41.89,-16.07 48.96,-36.53 2.87,-7.84 4.21,-16.64 4.21,-25.25 0,-8.61 -1.34,-17.41 -4.21,-25.44 -7.08,-20.47 -23.53,-36.53 -48.96,-36.53 -25.63,0 -42.08,16.07 -49.15,36.53 -2.87,7.84 -4.21,16.64 -4.21,25.25 0,30.79 17.6,61.97 53.36,61.97zm0 2.87c-45.33,0 -67.89,-32.51 -67.89,-64.84 0,-32.13 22.57,-64.64 67.89,-64.64 45.33,0 67.9,32.51 67.9,64.64 0,32.32 -22.57,64.84 -67.9,64.84z"/>
   <polygon id="_6" class="fil0" points="1240.2,157.11 1238.86,154.24 1183.21,58.8 1183.21,155.96 1180.15,155.96 1180.15,26.48 1182.83,26.48 1246.51,137.6 1301.02,26.48 1302.17,26.48 1302.36,26.1 1302.36,26.48 1315.18,26.48 1315.18,151.94 1300.64,156.34 1300.64,33.94 "/>
   <path class="fil1" d="M755.66 273.39l-1.24 0c-7.18,-0.17 -13.36,-2.23 -18.97,-5.61 -18.06,-10.8 -29.69,-35.88 -56,-51.38l0 23.51c-4.37,1.48 -1.9,0.49 -6.27,1.98l0 -56 26.72 0.08c9.24,0 19.55,4.37 19.88,15.26 0,14.27 -11.55,18.06 -21.85,18.23 -7.01,0 -8.42,-0.25 -14.1,-1.9 31.92,21.11 41.16,54.27 71.34,54.6 15.75,0 27.87,-10.64 28.04,-25.24 0,-4.37 -1.15,-8.41 -3.13,-12.37 -4.87,4.37 -11.63,7.17 -20.37,7.17 -19.63,0 -29.28,-14.18 -29.28,-27.87 0,-14.02 9.81,-27.96 29.28,-27.96 19.47,0 29.28,13.94 29.28,27.96 0,6.02 -1.98,12.45 -5.86,17.49 -0.99,-1.49 -2.06,-2.81 -3.3,-4.04 2.06,-4.21 2.89,-9.16 2.89,-13.44 0,-13.12 -7.51,-26.64 -23.01,-26.64 -15.34,0 -23.01,13.28 -23.01,26.56 0,10.89 5.03,21.28 14.6,25.15 0.17,-5.03 2.31,-8.82 5.36,-11.3 3.13,-2.39 5.2,-2.89 9.15,-3.14 6.76,0 13.77,4.04 17.08,13.28 1.07,3.14 1.56,6.19 1.56,9.16 -0.17,15.18 -13.03,26.47 -28.78,26.47zm4.04 -32.91c8.17,0 14.1,-3.79 17.98,-9.32 -3.22,-3.55 -7.51,-5.44 -11.8,-5.44l-2.06 0.17c-6.02,0.82 -11.13,5.61 -11.3,13.44 2.14,0.74 4.54,1.15 7.17,1.15zm-63.75 -22.35c9.16,0 17.15,-3.71 17.49,-15.67 0,-10.56 -4.95,-15.26 -14.02,-15.26l-19.96 0 0 27.38c5.19,2.31 10.39,3.55 16.49,3.55z"/>
   <path id="_1_3" class="fil1" d="M828.15 240.56c11.05,0 18.06,-6.93 21.11,-15.75 1.24,-3.38 1.81,-7.17 1.81,-10.89 0,-3.71 -0.58,-7.51 -1.81,-10.97 -3.05,-8.83 -10.15,-15.76 -21.11,-15.76 -11.05,0 -18.14,6.93 -21.2,15.76 -1.24,3.38 -1.81,7.17 -1.81,10.89 0,13.28 7.58,26.72 23.01,26.72zm0 1.24c-19.55,0 -29.28,-14.02 -29.28,-27.96 0,-13.86 9.73,-27.88 29.28,-27.88 19.55,0 29.28,14.02 29.28,27.88 0,13.94 -9.73,27.96 -29.28,27.96z"/>
   <polygon id="_2_4" class="fil1" points="880.27,241.88 880.27,187.2 858.66,187.2 858.66,185.88 908.48,185.88 908.48,187.2 886.62,187.2 886.62,239.91 "/>
   <path id="_3_5" class="fil1" d="M936.11 241.8c-10.23,0 -19.55,-3.96 -21.61,-11.3l1.49 0.08c2.06,6.19 10.48,9.98 20.37,9.98 8.49,-0.08 15.26,-3.13 15.75,-11.22 0,-6.93 -8.08,-9.9 -17.07,-12.12 -9.81,-2.89 -20.78,-5.77 -20.78,-16.5 0.17,-9.48 9.73,-14.76 20.78,-14.76 8.99,0 17.98,3.71 22.19,10.97l0.08 0.08c0,7.84 -0.08,4.21 -0.08,11.3 -7.1,-15.75 -15.75,-21.03 -23.84,-21.03 -7.17,0.33 -12.86,4.7 -13.11,12.04 0,7.01 8.16,9.4 16.66,11.88 0.33,0.17 0.17,0.17 0.5,0.17 9.9,2.88 20.45,6.02 20.45,15.83 -0.33,5.28 -2.14,8.49 -6.93,11.13 -4.46,2.64 -8.66,3.22 -14.85,3.46z"/>
   <g>
    <path class="fil2 str0" d="M639.61 208.85c-248.81,0 -248.81,0 -248.81,0"/>
    <path class="fil2 str0" d="M1240.28 208.85c-248.81,0 -248.81,0 -248.81,0"/>
   </g>
   <path class="fil3" d="M38.5 211.48l-2.88 -1.5c0.61,-1.18 62.53,-118.56 155.24,-140.85l0.76 3.16c-91.29,21.95 -152.51,138.02 -153.12,139.2z"/>
   <path class="fil3" d="M66.96 167.33l-2.36 -2.23c0.51,-0.55 52.25,-54.52 125.44,-48.85l-0.25 3.24c-71.62,-5.57 -122.32,47.3 -122.82,47.84z"/>
   <path class="fil3" d="M101.93 126.76l-2.46 -2.12c33.86,-39.28 16.13,-79.53 15.95,-79.94l2.95 -1.34c0.2,0.42 18.76,42.56 -16.45,83.4z"/>
   <path class="fil3" d="M205.6 118.15c-0.16,5.55 -4.79,9.92 -10.33,9.76 -5.55,-0.16 -9.92,-4.79 -9.77,-10.33 0.16,-5.55 4.79,-9.92 10.34,-9.77 5.55,0.16 9.92,4.78 9.76,10.34z"/>
   <path class="fil3" d="M203.15 71.04c-0.16,5.55 -4.79,9.92 -10.33,9.77 -5.55,-0.16 -9.92,-4.79 -9.77,-10.34 0.16,-5.55 4.79,-9.92 10.34,-9.76 5.55,0.16 9.92,4.79 9.76,10.33z"/>
   <path class="fil3" d="M125.42 44.27c-0.16,5.55 -4.79,9.92 -10.34,9.76 -5.55,-0.16 -9.92,-4.79 -9.76,-10.33 0.16,-5.55 4.79,-9.92 10.33,-9.77 5.55,0.16 9.92,4.79 9.77,10.34z"/>
   <path class="fil3" d="M191.22 157.72c-0.96,2.15 -1.88,3.45 -2.97,4.97 -1.06,1.44 -2.23,2.77 -3.44,4.04 -2.45,2.51 -5.16,4.66 -7.96,6.62 -5.7,3.8 -11.89,6.57 -18.23,8.61 -6.36,2.07 -12.84,3.33 -19.25,4.32 -6.45,0.99 -12.94,1.61 -19.43,1.95 -12.97,0.74 -25.91,0.12 -38.64,-0.05 -6.35,-0.02 -12.72,0.03 -18.8,1.15 -6.05,1.08 -11.84,3.49 -15.87,7.99 -0.6,0.67 -1.63,0.72 -2.29,0.12 -0.65,-0.59 -0.72,-1.58 -0.16,-2.25l0.02 -0.02c4.45,-5.31 11.1,-8.26 17.55,-9.59 6.53,-1.39 13.06,-1.62 19.52,-1.8 12.91,-0.21 25.66,0.01 38.3,-1.09 6.31,-0.52 12.58,-1.32 18.79,-2.45 6.21,-1.16 12.35,-2.54 18.13,-4.62 5.8,-2.05 11.34,-4.75 16.23,-8.22 2.39,-1.79 4.67,-3.7 6.64,-5.84 0.96,-1.09 1.89,-2.2 2.69,-3.36 0.77,-1.09 1.58,-2.52 1.91,-3.3l0.12 -0.29c0.82,-1.98 3.1,-2.93 5.09,-2.1 1.98,0.83 2.93,3.1 2.1,5.09 -0.01,0.03 -0.02,0.08 -0.04,0.11z"/>
   <path class="fil3" d="M64.58 75.14c1.52,1.14 2.38,2.04 3.41,3.14 0.96,1.06 1.86,2.16 2.67,3.32 1.64,2.29 2.98,4.73 4.09,7.26 2.21,5.06 3.46,10.41 3.91,15.74 0.91,10.7 -0.97,21.19 -4.06,31.04 -3.09,9.79 -6.8,19.35 -11.08,28.62 -4.26,9.28 -8.98,18.32 -14.35,27 -0.15,0.24 -0.46,0.31 -0.7,0.17 -0.23,-0.14 -0.31,-0.44 -0.18,-0.67l0.01 -0.02c4.86,-8.87 9.09,-18.11 12.83,-27.5 3.76,-9.39 6.92,-19 9.44,-28.73 2.42,-9.65 3.53,-19.66 2.14,-29.21 -0.69,-4.76 -2.08,-9.35 -4.19,-13.49 -1.06,-2.06 -2.3,-4.02 -3.73,-5.79 -0.7,-0.89 -1.47,-1.71 -2.26,-2.49 -0.74,-0.73 -1.74,-1.56 -2.28,-1.91l-0.09 -0.06c-1.82,-1.15 -2.37,-3.55 -1.22,-5.38 1.15,-1.82 3.55,-2.36 5.37,-1.22 0.09,0.05 0.18,0.11 0.26,0.17z"/>
   <path class="fil3" d="M115.5 36.58c0.37,0.59 -0.73,1.94 -2.46,3.03 -1.73,1.08 -3.43,1.48 -3.79,0.9 -0.37,-0.59 0.73,-1.94 2.46,-3.03 1.73,-1.09 3.43,-1.49 3.79,-0.9z"/>
   <path class="fil3" d="M199.75 70.9c-0.62,0.31 -1.86,-0.92 -2.76,-2.75 -0.9,-1.83 -1.13,-3.55 -0.51,-3.86 0.62,-0.31 1.86,0.92 2.76,2.75 0.91,1.82 1.13,3.56 0.51,3.87z"/>
   <path class="fil3" d="M201.8 122.07c-0.69,-0.08 -1.08,-1.78 -0.86,-3.8 0.22,-2.03 0.96,-3.6 1.65,-3.53 0.69,0.07 1.07,1.77 0.85,3.8 -0.22,2.02 -0.96,3.6 -1.65,3.53z"/>
   <rect class="fil3" transform="matrix(0.0625018 -0.320841 0.320845 0.0625011 148.645 87.0022)" width="65.15" height="9.93"/>
   <rect class="fil3" transform="matrix(0.00931642 -0.326758 0.326761 0.00931633 126.143 104.926)" width="9.93" height="51.87"/>
   <rect class="fil3" transform="matrix(0.208786 -0.251508 0.251511 0.208784 107.96 76.8195)" width="9.93" height="46.17"/>
   <rect class="fil3" transform="matrix(0.0676993 -0.319795 0.319798 0.0676987 130.601 127.419)" width="9.93" height="62.17"/>
   <rect class="fil3" transform="matrix(0.190382 -0.265728 0.265731 0.19038 101.675 139.981)" width="9.94" height="42.78"/>
   <rect class="fil3" transform="matrix(0.107057 -0.308877 0.30888 0.107056 117.469 129.873)" width="40.83" height="9.94"/>
   <g>
    <path class="fil1" d="M0.67 125.75l4.49 -0.49 0 0 0.26 2.16 0.3 2.14 0.34 2.13 0.37 2.12 0.42 2.1 0.45 2.08 0.49 2.06 0.53 2.05 0.57 2.03 0.6 2.01 0.64 1.99 0.68 1.97 0.71 1.96 0.75 1.94 0.79 1.92 0.82 1.9 0.86 1.88 0.89 1.86 0.92 1.84 0.96 1.82 0.99 1.79 1.02 1.78 1.05 1.75 1.09 1.73 1.12 1.71 1.14 1.69 1.18 1.66 1.21 1.63 1.23 1.61 1.26 1.59 1.29 1.56 1.32 1.53 -3.4 2.98 -1.37 -1.6 -1.34 -1.63 -1.32 -1.65 -1.28 -1.68 -1.25 -1.7 -1.23 -1.73 -1.19 -1.75 -1.16 -1.77 -1.13 -1.8 -1.1 -1.83 -1.06 -1.85 -1.03 -1.87 -1 -1.9 -0.96 -1.91 -0.93 -1.94 -0.89 -1.96 -0.85 -1.98 -0.82 -2 -0.78 -2.02 -0.75 -2.04 -0.71 -2.06 -0.67 -2.08 -0.63 -2.1 -0.59 -2.12 -0.55 -2.13 -0.51 -2.15 -0.48 -2.16 -0.43 -2.18 -0.39 -2.2 -0.35 -2.22 -0.3 -2.23 -0.27 -2.24 0 0zm100.66 -125.08l0.49 4.49 0 0 -5.57 0.74 -5.46 1.01 -5.35 1.28 -5.23 1.53 -5.11 1.78 -4.99 2.02 -4.85 2.25 -4.71 2.47 -4.57 2.69 -4.41 2.89 -4.26 3.1 -4.09 3.3 -3.92 3.48 -3.75 3.66 -3.56 3.83 -3.38 4 -3.18 4.15 -2.98 4.3 -2.78 4.45 -2.56 4.58 -2.34 4.7 -2.12 4.82 -1.88 4.93 -1.65 5.03 -1.41 5.13 -1.16 5.22 -0.9 5.3 -0.64 5.38 -0.38 5.44 -0.1 5.5 0.18 5.55 0.46 5.59 -4.49 0.49 -0.48 -5.82 -0.18 -5.78 0.11 -5.72 0.39 -5.67 0.67 -5.6 0.94 -5.52 1.21 -5.44 1.46 -5.34 1.72 -5.24 1.97 -5.14 2.21 -5.02 2.44 -4.89 2.67 -4.77 2.89 -4.62 3.1 -4.48 3.31 -4.32 3.51 -4.16 3.71 -3.99 3.9 -3.81 4.09 -3.63 4.26 -3.43 4.44 -3.23 4.6 -3.02 4.76 -2.8 4.91 -2.58 5.05 -2.34 5.19 -2.1 5.32 -1.85 5.45 -1.6 5.57 -1.33 5.69 -1.05 5.79 -0.78 0 0zm125.08 100.65l-4.49 0.49 0 0 -0.74 -5.57 -1.01 -5.46 -1.28 -5.35 -1.53 -5.23 -1.78 -5.11 -2.01 -4.98 -2.25 -4.85 -2.47 -4.71 -2.69 -4.57 -2.89 -4.41 -3.1 -4.26 -3.3 -4.09 -3.48 -3.92 -3.66 -3.75 -3.83 -3.56 -4 -3.38 -4.15 -3.18 -4.3 -2.98 -4.45 -2.78 -4.58 -2.56 -4.7 -2.35 -4.82 -2.12 -4.93 -1.88 -5.03 -1.65 -5.13 -1.41 -5.22 -1.16 -5.3 -0.9 -5.38 -0.64 -5.44 -0.38 -5.5 -0.1 -5.55 0.18 -5.59 0.46 -0.49 -4.49 5.82 -0.48 5.78 -0.18 5.72 0.11 5.67 0.39 5.6 0.67 5.52 0.94 5.44 1.21 5.34 1.46 5.24 1.72 5.14 1.97 5.02 2.2 4.89 2.44 4.77 2.67 4.62 2.89 4.48 3.1 4.32 3.31 4.16 3.51 3.99 3.71 3.81 3.9 3.63 4.09 3.43 4.26 3.23 4.44 3.02 4.6 2.8 4.75 2.58 4.91 2.34 5.05 2.1 5.19 1.85 5.32 1.6 5.46 1.33 5.57 1.05 5.69 0.78 5.79 0 0zm-100.65 125.08l-0.49 -4.49 0 0 5.57 -0.74 5.46 -1.02 5.35 -1.28 5.23 -1.53 5.11 -1.78 4.98 -2.01 4.85 -2.25 4.71 -2.47 4.56 -2.69 4.41 -2.9 4.26 -3.1 4.09 -3.3 3.92 -3.48 3.75 -3.66 3.56 -3.83 3.38 -4 3.18 -4.15 2.98 -4.3 2.78 -4.44 2.56 -4.58 2.35 -4.7 2.12 -4.82 1.88 -4.93 1.65 -5.04 1.41 -5.13 1.16 -5.22 0.9 -5.3 0.64 -5.38 0.38 -5.44 0.1 -5.5 -0.18 -5.55 -0.46 -5.59 4.49 -0.49 0.48 5.82 0.18 5.78 -0.11 5.73 -0.39 5.67 -0.67 5.6 -0.94 5.52 -1.21 5.44 -1.46 5.34 -1.72 5.24 -1.97 5.13 -2.2 5.02 -2.44 4.9 -2.67 4.77 -2.89 4.62 -3.1 4.48 -3.31 4.32 -3.51 4.16 -3.71 3.99 -3.9 3.81 -4.09 3.63 -4.26 3.43 -4.44 3.23 -4.59 3.02 -4.76 2.81 -4.91 2.57 -5.05 2.34 -5.19 2.1 -5.32 1.85 -5.46 1.6 -5.57 1.33 -5.69 1.06 -5.79 0.78 0 0zm-65.11 -12.41l2.11 -4 1.74 0.9 1.77 0.87 1.78 0.84 1.8 0.81 1.82 0.78 1.83 0.74 1.85 0.71 1.86 0.68 1.87 0.64 1.89 0.62 1.9 0.58 1.91 0.54 1.93 0.51 1.94 0.47 1.95 0.44 1.96 0.41 1.98 0.37 1.98 0.33 2 0.3 2.01 0.26 2.01 0.22 2.03 0.18 2.04 0.15 2.04 0.11 2.05 0.07 2.06 0.03 2.07 -0.01 2.07 -0.04 2.08 -0.09 2.08 -0.12 2.1 -0.17 2.1 -0.21 0.49 4.49 -2.19 0.21 -2.18 0.18 -2.17 0.13 -2.17 0.09 -2.16 0.05 -2.16 0.01 -2.14 -0.03 -2.14 -0.07 -2.13 -0.11 -2.12 -0.16 -2.11 -0.19 -2.1 -0.23 -2.09 -0.27 -2.08 -0.3 -2.07 -0.34 -2.06 -0.39 -2.05 -0.42 -2.03 -0.46 -2.02 -0.49 -2.01 -0.53 -2 -0.57 -1.98 -0.6 -1.96 -0.64 -1.95 -0.67 -1.94 -0.71 -1.92 -0.74 -1.91 -0.78 -1.88 -0.81 -1.87 -0.84 -1.86 -0.88 -1.84 -0.91 -1.82 -0.94z"/>
   </g>
   <path class="fil1" d="M32.18 128.54c0,2.43 -1.96,4.39 -4.39,4.39 -2.43,0 -4.39,-1.96 -4.39,-4.39 0,-2.43 1.96,-4.39 4.39,-4.39 2.43,0 4.39,1.96 4.39,4.39z"/>
   <path class="fil1" d="M39.69 74.52c0,2.07 -1.68,3.76 -3.76,3.76 -2.08,0 -3.76,-1.68 -3.76,-3.76 0,-2.08 1.69,-3.76 3.76,-3.76 2.07,0 3.76,1.68 3.76,3.76z"/>
   <path class="fil1" d="M78.67 32.74c0,3.2 -2.6,5.8 -5.8,5.8 -3.2,0 -5.8,-2.6 -5.8,-5.8 0,-3.2 2.6,-5.8 5.8,-5.8 3.2,0 5.8,2.6 5.8,5.8z"/>
   <path class="fil1" d="M148.68 42.44c0,2.16 -1.75,3.91 -3.91,3.91 -2.16,0 -3.91,-1.75 -3.91,-3.91 0,-2.16 1.75,-3.91 3.91,-3.91 2.16,0 3.91,1.75 3.91,3.91z"/>
   <circle class="fil1" cx="103.89" cy="211.47" r="4.41"/>
   <circle class="fil1" cx="132.63" cy="161.23" r="2.04"/>
   <circle class="fil1" cx="159.25" cy="146.02" r="3.31"/>
   <path class="fil1" d="M137.48 207.06c0,1.41 -1.14,2.56 -2.56,2.56 -1.41,0 -2.56,-1.14 -2.56,-2.56 0,-1.41 1.14,-2.56 2.56,-2.56 1.41,0 2.56,1.14 2.56,2.56z"/>
   <path class="fil1" d="M172.7 46.05c0,1.99 -1.61,3.6 -3.6,3.6 -1.99,0 -3.6,-1.61 -3.6,-3.6 0,-1.99 1.61,-3.6 3.6,-3.6 1.99,0 3.6,1.61 3.6,3.6z"/>
  </g>
 </g>
</svg>
