<?xml version="1.0" encoding="UTF-8"?>
<!DOCTYPE svg PUBLIC "-//W3C//DTD SVG 1.1//EN" "http://www.w3.org/Graphics/SVG/1.1/DTD/svg11.dtd">
<!-- Creator: CorelDRAW -->
<svg xmlns="http://www.w3.org/2000/svg" xml:space="preserve" width="8.9401mm" height="9.1872mm" version="1.1" style="shape-rendering:geometricPrecision; text-rendering:geometricPrecision; image-rendering:optimizeQuality; fill-rule:evenodd; clip-rule:evenodd"
viewBox="0 0 56.92 58.49"
 xmlns:xlink="http://www.w3.org/1999/xlink"
 xmlns:xodm="http://www.corel.com/coreldraw/odm/2003">
 <defs>
  <style type="text/css">
   <![CDATA[
    .fil2 {fill:none}
    .fil0 {fill:#D1A132;fill-rule:nonzero}
    .fil1 {fill:white;fill-rule:nonzero}
   ]]>
  </style>
 </defs>
 <g id="Layer_x0020_1">
  <metadata id="CorelCorpID_0Corel-Layer"/>
  <g id="_2477796288352">
   <path class="fil0" d="M14.64 46.22l-0.53 -0.28c0.11,-0.22 11.55,-21.9 28.68,-26.02l0.14 0.58c-16.86,4.06 -28.18,25.5 -28.29,25.72z"/>
   <path class="fil0" d="M19.9 38.07l-0.44 -0.41c0.09,-0.1 9.65,-10.07 23.17,-9.03l-0.05 0.6c-13.23,-1.03 -22.6,8.74 -22.69,8.84z"/>
   <path class="fil0" d="M26.36 30.57l-0.45 -0.39c6.26,-7.26 2.98,-14.69 2.95,-14.77l0.55 -0.25c0.04,0.08 3.47,7.86 -3.04,15.41z"/>
   <path class="fil0" d="M45.51 28.98c-0.03,1.03 -0.88,1.83 -1.91,1.8 -1.03,-0.03 -1.83,-0.88 -1.8,-1.91 0.03,-1.03 0.88,-1.83 1.91,-1.8 1.03,0.03 1.83,0.88 1.8,1.91z"/>
   <path class="fil0" d="M45.06 20.28c-0.03,1.03 -0.88,1.83 -1.91,1.8 -1.03,-0.03 -1.83,-0.88 -1.8,-1.91 0.03,-1.03 0.88,-1.83 1.91,-1.8 1.03,0.03 1.83,0.88 1.8,1.91z"/>
   <path class="fil0" d="M30.7 15.33c-0.03,1.03 -0.88,1.83 -1.91,1.8 -1.03,-0.03 -1.83,-0.88 -1.8,-1.91 0.03,-1.03 0.88,-1.83 1.91,-1.8 1.03,0.03 1.83,0.88 1.8,1.91z"/>
   <path class="fil0" d="M42.85 36.29c-0.18,0.4 -0.35,0.64 -0.55,0.92 -0.2,0.27 -0.41,0.51 -0.64,0.75 -0.45,0.46 -0.95,0.86 -1.47,1.22 -1.05,0.7 -2.2,1.21 -3.37,1.59 -1.18,0.38 -2.37,0.61 -3.56,0.8 -1.19,0.18 -2.39,0.3 -3.59,0.36 -2.4,0.14 -4.79,0.02 -7.14,-0.01 -1.17,-0 -2.35,0.01 -3.47,0.21 -1.12,0.2 -2.19,0.64 -2.93,1.48 -0.11,0.12 -0.3,0.13 -0.42,0.02 -0.12,-0.11 -0.13,-0.29 -0.03,-0.42l0 -0c0.82,-0.98 2.05,-1.53 3.24,-1.77 1.21,-0.26 2.41,-0.3 3.61,-0.33 2.39,-0.04 4.74,0 7.08,-0.2 1.17,-0.1 2.33,-0.24 3.47,-0.45 1.15,-0.21 2.28,-0.47 3.35,-0.85 1.07,-0.38 2.1,-0.88 3,-1.52 0.44,-0.33 0.86,-0.68 1.23,-1.08 0.18,-0.2 0.35,-0.41 0.5,-0.62 0.14,-0.2 0.29,-0.47 0.35,-0.61l0.02 -0.05c0.15,-0.37 0.57,-0.54 0.94,-0.39 0.37,0.15 0.54,0.57 0.39,0.94 -0,0.01 -0,0.01 -0.01,0.02z"/>
   <path class="fil0" d="M19.46 21.03c0.28,0.21 0.44,0.38 0.63,0.58 0.18,0.2 0.34,0.4 0.49,0.61 0.3,0.42 0.55,0.87 0.76,1.34 0.41,0.93 0.64,1.92 0.72,2.91 0.17,1.98 -0.18,3.91 -0.75,5.73 -0.57,1.81 -1.26,3.57 -2.05,5.29 -0.79,1.71 -1.66,3.38 -2.65,4.99 -0.03,0.04 -0.08,0.06 -0.13,0.03 -0.04,-0.03 -0.06,-0.08 -0.03,-0.12l0 -0c0.9,-1.64 1.68,-3.35 2.37,-5.08 0.69,-1.73 1.28,-3.51 1.74,-5.31 0.45,-1.78 0.65,-3.63 0.39,-5.4 -0.13,-0.88 -0.38,-1.73 -0.77,-2.49 -0.2,-0.38 -0.42,-0.74 -0.69,-1.07 -0.13,-0.16 -0.27,-0.32 -0.42,-0.46 -0.14,-0.13 -0.32,-0.29 -0.42,-0.35l-0.02 -0.01c-0.34,-0.21 -0.44,-0.66 -0.22,-0.99 0.21,-0.34 0.66,-0.44 0.99,-0.22 0.02,0.01 0.03,0.02 0.05,0.03z"/>
   <path class="fil0" d="M28.87 13.91c0.07,0.11 -0.13,0.36 -0.45,0.56 -0.32,0.2 -0.63,0.27 -0.7,0.17 -0.07,-0.11 0.13,-0.36 0.45,-0.56 0.32,-0.2 0.63,-0.27 0.7,-0.17z"/>
   <path class="fil0" d="M44.43 20.25c-0.12,0.06 -0.34,-0.17 -0.51,-0.51 -0.17,-0.34 -0.21,-0.66 -0.09,-0.71 0.12,-0.06 0.34,0.17 0.51,0.51 0.17,0.34 0.21,0.66 0.09,0.71z"/>
   <path class="fil0" d="M44.81 29.71c-0.13,-0.01 -0.2,-0.33 -0.16,-0.7 0.04,-0.37 0.18,-0.67 0.3,-0.65 0.13,0.01 0.2,0.33 0.16,0.7 -0.04,0.37 -0.18,0.67 -0.3,0.65z"/>
   <rect class="fil0" transform="matrix(0.0625018 -0.320841 0.320845 0.0625011 34.9893 23.2264)" width="12.04" height="1.83"/>
   <rect class="fil0" transform="matrix(0.00931642 -0.326758 0.326761 0.00931633 30.8319 26.5378)" width="1.83" height="9.58"/>
   <rect class="fil0" transform="matrix(0.208786 -0.251508 0.251511 0.208784 27.4727 21.3452)" width="1.83" height="8.53"/>
   <rect class="fil0" transform="matrix(0.0676993 -0.319795 0.319798 0.0676987 31.6556 30.6934)" width="1.83" height="11.49"/>
   <rect class="fil0" transform="matrix(0.190382 -0.265728 0.265731 0.19038 26.3115 33.0143)" width="1.84" height="7.9"/>
   <rect class="fil0" transform="matrix(0.107057 -0.308877 0.30888 0.107056 29.2295 31.1469)" width="7.54" height="1.84"/>
   <g>
    <path class="fil1" d="M7.65 30.38l0.83 -0.09 0 0 0.05 0.4 0.05 0.4 0.06 0.39 0.07 0.39 0.08 0.39 0.08 0.38 0.09 0.38 0.1 0.38 0.11 0.38 0.11 0.37 0.12 0.37 0.13 0.36 0.13 0.36 0.14 0.36 0.15 0.36 0.15 0.35 0.16 0.35 0.16 0.34 0.17 0.34 0.18 0.34 0.18 0.33 0.19 0.33 0.19 0.32 0.2 0.32 0.21 0.32 0.21 0.31 0.22 0.31 0.22 0.3 0.23 0.3 0.23 0.29 0.24 0.29 0.24 0.28 -0.63 0.55 -0.25 -0.3 -0.25 -0.3 -0.24 -0.3 -0.24 -0.31 -0.23 -0.31 -0.23 -0.32 -0.22 -0.32 -0.21 -0.33 -0.21 -0.33 -0.2 -0.34 -0.2 -0.34 -0.19 -0.35 -0.18 -0.35 -0.18 -0.35 -0.17 -0.36 -0.16 -0.36 -0.16 -0.37 -0.15 -0.37 -0.14 -0.37 -0.14 -0.38 -0.13 -0.38 -0.12 -0.38 -0.12 -0.39 -0.11 -0.39 -0.1 -0.39 -0.09 -0.4 -0.09 -0.4 -0.08 -0.4 -0.07 -0.41 -0.06 -0.41 -0.06 -0.41 -0.05 -0.41 0 0zm18.6 -23.11l0.09 0.83 0 0 -1.03 0.14 -1.01 0.19 -0.99 0.24 -0.97 0.28 -0.94 0.33 -0.92 0.37 -0.9 0.42 -0.87 0.46 -0.84 0.5 -0.81 0.53 -0.79 0.57 -0.76 0.61 -0.72 0.64 -0.69 0.68 -0.66 0.71 -0.62 0.74 -0.59 0.77 -0.55 0.79 -0.51 0.82 -0.47 0.85 -0.43 0.87 -0.39 0.89 -0.35 0.91 -0.3 0.93 -0.26 0.95 -0.21 0.96 -0.17 0.98 -0.12 0.99 -0.07 1.01 -0.02 1.02 0.03 1.03 0.09 1.03 -0.83 0.09 -0.09 -1.08 -0.03 -1.07 0.02 -1.06 0.07 -1.05 0.12 -1.03 0.17 -1.02 0.22 -1 0.27 -0.99 0.32 -0.97 0.36 -0.95 0.41 -0.93 0.45 -0.9 0.49 -0.88 0.53 -0.85 0.57 -0.83 0.61 -0.8 0.65 -0.77 0.69 -0.74 0.72 -0.7 0.76 -0.67 0.79 -0.63 0.82 -0.6 0.85 -0.56 0.88 -0.52 0.91 -0.48 0.93 -0.43 0.96 -0.39 0.98 -0.34 1.01 -0.29 1.03 -0.25 1.05 -0.19 1.07 -0.14 0 0zm23.11 18.6l-0.83 0.09 0 0 -0.14 -1.03 -0.19 -1.01 -0.24 -0.99 -0.28 -0.97 -0.33 -0.94 -0.37 -0.92 -0.42 -0.9 -0.46 -0.87 -0.5 -0.84 -0.53 -0.81 -0.57 -0.79 -0.61 -0.76 -0.64 -0.72 -0.68 -0.69 -0.71 -0.66 -0.74 -0.62 -0.77 -0.59 -0.79 -0.55 -0.82 -0.51 -0.85 -0.47 -0.87 -0.43 -0.89 -0.39 -0.91 -0.35 -0.93 -0.3 -0.95 -0.26 -0.96 -0.21 -0.98 -0.17 -0.99 -0.12 -1.01 -0.07 -1.02 -0.02 -1.03 0.03 -1.03 0.09 -0.09 -0.83 1.08 -0.09 1.07 -0.03 1.06 0.02 1.05 0.07 1.03 0.12 1.02 0.17 1 0.22 0.99 0.27 0.97 0.32 0.95 0.36 0.93 0.41 0.9 0.45 0.88 0.49 0.85 0.53 0.83 0.57 0.8 0.61 0.77 0.65 0.74 0.69 0.7 0.72 0.67 0.76 0.63 0.79 0.6 0.82 0.56 0.85 0.52 0.88 0.48 0.91 0.43 0.93 0.39 0.96 0.34 0.98 0.29 1.01 0.25 1.03 0.19 1.05 0.14 1.07 0 0zm-18.6 23.11l-0.09 -0.83 0 0 1.03 -0.14 1.01 -0.19 0.99 -0.24 0.97 -0.28 0.94 -0.33 0.92 -0.37 0.9 -0.42 0.87 -0.46 0.84 -0.5 0.82 -0.54 0.79 -0.57 0.76 -0.61 0.72 -0.64 0.69 -0.68 0.66 -0.71 0.62 -0.74 0.59 -0.77 0.55 -0.8 0.51 -0.82 0.47 -0.85 0.43 -0.87 0.39 -0.89 0.35 -0.91 0.3 -0.93 0.26 -0.95 0.21 -0.96 0.17 -0.98 0.12 -0.99 0.07 -1 0.02 -1.02 -0.03 -1.03 -0.09 -1.03 0.83 -0.09 0.09 1.08 0.03 1.07 -0.02 1.06 -0.07 1.05 -0.12 1.03 -0.17 1.02 -0.22 1 -0.27 0.99 -0.32 0.97 -0.36 0.95 -0.41 0.93 -0.45 0.9 -0.49 0.88 -0.53 0.85 -0.57 0.83 -0.61 0.8 -0.65 0.77 -0.69 0.74 -0.72 0.7 -0.76 0.67 -0.79 0.63 -0.82 0.6 -0.85 0.56 -0.88 0.52 -0.91 0.48 -0.93 0.43 -0.96 0.39 -0.98 0.34 -1.01 0.29 -1.03 0.25 -1.05 0.2 -1.07 0.14 0 0zm-12.03 -2.29l0.39 -0.74 0.32 0.17 0.33 0.16 0.33 0.16 0.33 0.15 0.34 0.14 0.34 0.14 0.34 0.13 0.34 0.13 0.35 0.12 0.35 0.11 0.35 0.11 0.35 0.1 0.36 0.09 0.36 0.09 0.36 0.08 0.36 0.08 0.37 0.07 0.37 0.06 0.37 0.05 0.37 0.05 0.37 0.04 0.37 0.03 0.38 0.03 0.38 0.02 0.38 0.01 0.38 0.01 0.38 -0 0.38 -0.01 0.39 -0.02 0.39 -0.02 0.39 -0.03 0.39 -0.04 0.09 0.83 -0.4 0.04 -0.4 0.03 -0.4 0.02 -0.4 0.02 -0.4 0.01 -0.4 0 -0.4 -0.01 -0.4 -0.01 -0.39 -0.02 -0.39 -0.03 -0.39 -0.04 -0.39 -0.04 -0.39 -0.05 -0.38 -0.06 -0.38 -0.06 -0.38 -0.07 -0.38 -0.08 -0.37 -0.08 -0.37 -0.09 -0.37 -0.1 -0.37 -0.1 -0.37 -0.11 -0.36 -0.12 -0.36 -0.12 -0.36 -0.13 -0.36 -0.14 -0.35 -0.14 -0.35 -0.15 -0.35 -0.16 -0.34 -0.16 -0.34 -0.17 -0.34 -0.17z"/>
   </g>
   <path class="fil1" d="M13.47 30.9c0,0.45 -0.36,0.81 -0.81,0.81 -0.45,0 -0.81,-0.36 -0.81,-0.81 0,-0.45 0.36,-0.81 0.81,-0.81 0.45,0 0.81,0.36 0.81,0.81z"/>
   <path class="fil1" d="M14.86 20.92c0,0.38 -0.31,0.69 -0.69,0.69 -0.38,0 -0.69,-0.31 -0.69,-0.69 0,-0.38 0.31,-0.69 0.69,-0.69 0.38,0 0.69,0.31 0.69,0.69z"/>
   <path class="fil1" d="M22.06 13.2c0,0.59 -0.48,1.07 -1.07,1.07 -0.59,0 -1.07,-0.48 -1.07,-1.07 0,-0.59 0.48,-1.07 1.07,-1.07 0.59,0 1.07,0.48 1.07,1.07z"/>
   <path class="fil1" d="M35 14.99c0,0.4 -0.32,0.72 -0.72,0.72 -0.4,0 -0.72,-0.32 -0.72,-0.72 0,-0.4 0.32,-0.72 0.72,-0.72 0.4,0 0.72,0.32 0.72,0.72z"/>
   <circle class="fil1" cx="26.72" cy="46.22" r="0.81"/>
   <circle class="fil1" cx="32.03" cy="36.94" r="0.38"/>
   <circle class="fil1" cx="36.95" cy="34.13" r="0.61"/>
   <path class="fil1" d="M32.93 45.41c0,0.26 -0.21,0.47 -0.47,0.47 -0.26,0 -0.47,-0.21 -0.47,-0.47 0,-0.26 0.21,-0.47 0.47,-0.47 0.26,0 0.47,0.21 0.47,0.47z"/>
   <path class="fil1" d="M39.43 15.66c0,0.37 -0.3,0.67 -0.67,0.67 -0.37,0 -0.66,-0.3 -0.66,-0.67 0,-0.37 0.3,-0.67 0.66,-0.67 0.37,0 0.67,0.3 0.67,0.67z"/>
  </g>
  <circle class="fil2" cx="28.56" cy="28.67" r="24.72"/>
  <path class="fil1" d="M52.98 32.41c0.12,-0.95 1.04,-1.68 2.18,-1.52 0.9,0.12 1.75,0.81 1.61,1.89 -0.07,0.5 -0.33,1.08 -0.86,1.48l-0.9 -0.12 0.17 -0.03c0.64,-0.12 1.42,-0.73 1.5,-1.34 0.11,-0.8 -0.58,-1.34 -1.4,-1.45 -0.21,-0.03 -0.43,-0.03 -0.65,-0 -0.78,0.09 -1.39,0.68 -1.48,1.37 -0.05,0.4 0.07,0.86 0.43,1.22l-0.06 0.06 -0.02 -0.01c-0.41,-0.38 -0.59,-1.03 -0.53,-1.54z"/>
  <path id="_1" class="fil1" d="M50.59 37.64c0.09,-0.22 0.23,-0.44 0.42,-0.62 0.74,-0.73 2.4,-0.74 3.23,-1.37l-1.5 -0.58c0.02,-0.31 0.02,-0.13 0.03,-0.45l3.55 1.37 -0.64 1.67c-0.22,0.58 -0.75,1.17 -1.47,0.91 -0.42,-0.16 -0.63,-0.39 -0.72,-0.73 -0.07,-0.37 -0.05,-0.67 0.1,-1.1 0.12,-0.31 0.28,-0.62 0.5,-0.9 -0.9,0.53 -2.36,0.58 -3.02,1.23 -0.2,0.2 -0.32,0.38 -0.4,0.59 -0.29,0.75 0.09,1.51 0.79,1.79 0.53,0.2 1.26,0.06 1.57,-0.51l-1.41 -1.29 0.03 -0.08 3.01 2.75 -0.16 0.41 -4.08 -0.01c0.19,-0.28 0.09,-0.12 0.29,-0.4l0 -0.01 3.79 -0.01 -1.41 -1.29 -0.01 0.02c-0.34,0.56 -1.08,0.73 -1.67,0.5 -0.78,-0.3 -1.1,-1.19 -0.83,-1.9zm3.13 -0.98c-0.24,0.65 -0.15,1.21 0.63,1.52 0.3,0.11 0.56,0.12 0.78,0.01 0.21,-0.09 0.36,-0.29 0.47,-0.55l0 -0.02 0.48 -1.24 -1.74 -0.67c-0.28,0.27 -0.48,0.57 -0.63,0.96z"/>
  <path id="_2" class="fil1" d="M49.84 41.26l3.22 2.04 -1.4 2.2 -0.08 -0.05 1.17 -1.84 -1.49 -0.95 -0.99 1.57 -0.07 -0.05 0.99 -1.57 -1.46 -0.93c0.02,-0.07 0.06,-0.22 0.12,-0.44z"/>
  <polygon id="_3" class="fil1" points="47,45.14 49.71,47.69 50.72,46.62 50.78,46.68 48.46,49.15 48.39,49.08 49.41,48 46.8,45.54 "/>
  <polygon id="_4" class="fil1" points="43.11,48.67 45.16,47.05 47.51,50.03 45.46,51.65 45.41,51.58 47.12,50.23 46.03,48.84 44.57,49.99 44.51,49.93 45.98,48.77 44.88,47.38 43.16,48.73 "/>
  <path id="_5" class="fil1" d="M41.23 49.88l1.31 -0.75 1.89 3.3 -1.3 0.74c-0.48,0.27 -0.97,0.29 -1.42,0.14 -0.44,-0.15 -0.82,-0.47 -1.07,-0.9 -0.47,-0.84 -0.39,-1.96 0.58,-2.53zm0.04 0.08c-0.71,0.4 -0.72,1.42 -0.25,2.23 0.46,0.79 1.38,1.29 2.08,0.89l0.91 -0.52 -1.8 -3.14 -0.95 0.54z"/>
  <path id="_6" class="fil1" d="M29.54 53.61l0.43 -0.08 0.66 3.66c-0.13,0.07 -0.25,0.14 -0.35,0.22 -0.18,0.15 -0.26,0.32 -0.22,0.5 0.06,0.3 0.32,0.5 0.68,0.45 0.1,-0.02 0.21,-0.07 0.31,-0.13 0.38,-0.25 0.53,-0.72 0.63,-1.15l0.77 -3.98 0 -0.02 0.42 -0.08 1.46 2.67 0.44 -3.02 0.43 -0.08 1.93 3.53c-0.3,-0.04 -0.14,-0.01 -0.46,-0.04 -0.04,-0.01 -0.02,-0.01 -0.05,-0l-0 -0.02 -1.77 -3.23 -0.44 2.98 0.4 0.73c-0.3,-0.04 -0.14,-0.01 -0.46,-0.04 -0.03,-0.01 -0.02,-0.01 -0.05,-0l-1.78 -3.25 -0 -0.01 -0.74 3.82c-0.01,0.02 -0.01,0.01 -0.01,0.04 -0.05,0.22 -0.11,0.45 -0.21,0.67 -0.16,0.34 -0.45,0.63 -0.79,0.69 -0.4,0.05 -0.72,-0.11 -0.79,-0.51 -0.04,-0.22 0.05,-0.41 0.25,-0.58l-0.68 -3.75z"/>
  <polygon id="_7" class="fil1" points="27.07,53.32 26.76,57.03 28.23,57.15 28.22,57.24 24.84,56.96 24.85,56.87 26.33,56.99 26.63,53.42 "/>
  <polygon id="_8" class="fil1" points="24.43,53.07 23.57,56.78 23.16,56.69 23.58,54.88 21.51,54.4 21.12,56.09 20.67,56.12 21.53,52.41 21.95,52.51 21.53,54.32 23.59,54.79 23.98,53.1 "/>
  <path id="_9" class="fil1" d="M16.59 50.3c0.85,0.44 1.22,1.54 0.7,2.57 -0.42,0.81 -1.36,1.37 -2.33,0.87 -0.45,-0.23 -0.9,-0.68 -1.1,-1.31l0.42 -0.8 -0.03 0.17c-0.11,0.65 0.21,1.59 0.75,1.87 0.72,0.37 1.46,-0.09 1.84,-0.82 0.1,-0.18 0.18,-0.39 0.22,-0.61 0.18,-0.76 -0.17,-1.53 -0.79,-1.85 -0.36,-0.19 -0.83,-0.23 -1.29,-0.01l-0.04 -0.08 0.02 -0.01c0.5,-0.25 1.17,-0.21 1.62,0.02z"/>
  <path id="_10" class="fil1" d="M12.3 47.3l0.31 0.42 -0.35 1.12 1.48 1.17 1.13 -0.66 0.07 0.06 -3.52 2.06 -0.34 -0.27 1.22 -3.9zm-0.07 1.63l-0.74 2.4 2.17 -1.27 -1.43 -1.13z"/>
  <path id="_11" class="fil1" d="M9.64 41.44c0.09,0.11 0.17,0.24 0.25,0.37 0.92,1.65 -0.29,4.38 0.02,5.93l1.26 -0.99c0.26,0.17 0.11,0.08 0.37,0.25l-2.99 2.36 -1.12 -1.43c-0.38,-0.48 -0.61,-1.22 -0.02,-1.7 0.66,-0.52 1.33,-0.29 1.9,0.4 0.26,0.33 0.31,0.43 0.48,0.8 -0.11,-1.59 0.87,-4.1 0.04,-5.57 -0.08,-0.14 -0.16,-0.26 -0.25,-0.37 -0.89,-1.13 -2.21,-0.97 -2.95,-0.39 -0.76,0.59 -1.01,1.7 -0.24,2.67 0.28,0.36 0.71,0.66 1.23,0.81l1.18 -0.93 -0.56 -0.72 -0.79 -1 0.07 -0.05 1.61 2.04 -2.98 2.35 -1.61 -2.04 0.07 -0.06 1.35 1.71 1.58 -1.25c-0.51,-0.14 -0.93,-0.46 -1.21,-0.82 -0.8,-1.02 -0.53,-2.17 0.26,-2.79 0.82,-0.65 2.18,-0.74 3.09,0.4zm-0.33 5.35c-0.43,-0.53 -0.95,-0.75 -1.63,-0.23 -0.24,0.19 -0.39,0.42 -0.41,0.67 -0.02,0.23 0.07,0.46 0.24,0.68l0.84 1.07 1.46 -1.15c-0.09,-0.37 -0.24,-0.7 -0.51,-1.03z"/>
  <path id="_12" class="fil1" d="M3.6 38.16c-0.18,0.06 -0.36,0.05 -0.53,-0.04 -0.17,-0.09 -0.29,-0.22 -0.35,-0.4 -0.06,-0.18 -0.05,-0.36 0.04,-0.53 0.09,-0.17 0.22,-0.29 0.4,-0.35 0.18,-0.06 0.36,-0.05 0.53,0.04 0.17,0.09 0.29,0.22 0.35,0.4 0.06,0.18 0.05,0.36 -0.04,0.53 -0.09,0.17 -0.22,0.29 -0.4,0.35z"/>
  <path id="_13" class="fil1" d="M3.81 30l-3.81 -0.13 0.07 -1.82c0.02,-0.6 0.31,-1.32 1.08,-1.32 0.5,0.02 0.79,0.25 0.96,0.52 0.22,0.36 0.24,0.73 0.22,1.23 -0.01,0.08 -0.02,0.17 -0.04,0.26 0.36,-0.77 0.84,-1.44 1.56,-1.93l0.05 0.07c-0.94,0.66 -1.44,1.57 -1.83,2.63l1.61 0.06 0.01 0.02c0.08,0.29 0.03,0.14 0.12,0.41zm-1.56 -1.6c0.02,-0.69 -0.25,-1.19 -1.1,-1.23 -0.31,-0.01 -0.56,0.06 -0.74,0.24 -0.16,0.16 -0.24,0.39 -0.25,0.68l-0.05 1.35 1.86 0.06c0.17,-0.35 0.26,-0.69 0.28,-1.11z"/>
  <path id="_14" class="fil1" d="M5.44 19.57c0.36,-1.28 -0.38,-2.18 -1.29,-2.44 -0.91,-0.26 -2,0.12 -2.37,1.4 -0.71,2.52 3.02,2.95 2.29,5.52 -0.21,0.72 -0.78,1.06 -1.42,1.1 -0.25,0.02 -0.5,-0.01 -0.75,-0.08 -0.87,-0.25 -1.6,-0.99 -1.32,-2 0.2,-0.72 0.78,-1.06 1.42,-1.09 0.25,-0.02 0.5,0.01 0.75,0.08 0.44,0.12 0.83,0.37 1.08,0.7 -0.16,-0.38 -0.43,-0.7 -0.75,-1.04 -0.07,-0.03 -0.14,-0.06 -0.21,-0.08 -0.91,-0.26 -2.01,0.12 -2.37,1.4 -0.36,1.29 0.37,2.18 1.28,2.44 0.91,0.26 2.01,-0.12 2.37,-1.41l-0.01 -0c0.74,-2.64 -2.99,-3.07 -2.29,-5.53 0.2,-0.72 0.78,-1.06 1.42,-1.09 0.25,-0.02 0.5,0.01 0.75,0.08 0.24,0.07 0.47,0.18 0.68,0.32 0.52,0.36 0.84,0.96 0.64,1.67 -0.2,0.72 -0.78,1.06 -1.42,1.1 -0.25,0.02 -0.5,-0.01 -0.75,-0.08 -0.37,-0.11 -0.71,-0.3 -0.97,-0.57 0.2,0.35 0.49,0.66 0.81,0.97l0.04 0.01c0.92,0.26 2.01,-0.12 2.37,-1.4z"/>
  <polygon id="_15" class="fil1" points="7.11,16.39 3.89,14.54 3.15,15.81 3.08,15.77 4.77,12.83 4.84,12.87 4.1,14.16 7.21,15.95 "/>
  <polygon id="_16" class="fil1" points="10.15,12.11 8.53,14.15 5.55,11.8 7.18,9.75 7.24,9.8 5.89,11.52 7.28,12.61 8.43,11.15 8.5,11.21 7.34,12.67 8.73,13.76 10.09,12.06 "/>
  <path id="_17" class="fil1" d="M11.77 10.55l-1.1 1.03 -2.6 -2.77 1.09 -1.02c0.4,-0.38 0.88,-0.51 1.34,-0.46 0.46,0.04 0.91,0.26 1.25,0.63 0.65,0.7 0.83,1.82 0.02,2.59zm-0.06 -0.07c0.59,-0.56 0.37,-1.55 -0.27,-2.23 -0.64,-0.66 -1.64,-0.94 -2.23,-0.38l-0.77 0.72 2.48 2.64 0.79 -0.75z"/>
  <polygon id="_18" class="fil1" points="16.42,7.15 16.04,7.36 14.21,4.17 14.52,3.84 "/>
  <polygon id="_19" class="fil1" points="19.78,5.54 15.78,3.82 17.09,6.67 17.02,6.71 15.43,3.26 15.5,3.23 19.39,4.91 18.07,2.04 18.16,2.01 "/>
  <polygon id="_20" class="fil1" points="24.66,4.25 24.17,0.56 22.72,0.75 22.7,0.66 26.07,0.22 26.08,0.31 24.6,0.5 25.07,4.06 "/>
  <path id="_21" class="fil1" d="M30.8 5.04c-0.24,-0.02 -0.49,-0.1 -0.71,-0.23 -0.9,-0.5 -1.38,-2.09 -2.22,-2.71l-0.13 1.6c-0.3,0.07 -0.13,0.02 -0.44,0.09l0.31 -3.79 1.78 0.15c0.62,0.05 1.34,0.39 1.28,1.15 -0.04,0.45 -0.2,0.71 -0.5,0.9 -0.34,0.17 -0.63,0.24 -1.08,0.21 -0.34,-0.03 -0.67,-0.09 -1,-0.23 0.76,0.71 1.22,2.1 2.03,2.55 0.24,0.13 0.45,0.2 0.68,0.22 0.8,0.07 1.43,-0.51 1.49,-1.26 0.05,-0.57 -0.29,-1.22 -0.93,-1.37l-0.84 1.72 -0.09 -0.01 1.78 -3.67 0.44 0.04 1.14 3.92c-0.32,-0.1 -0.14,-0.05 -0.47,-0.17l-0.01 0 -1.07 -3.63 -0.83 1.72 0.02 0.01c0.63,0.17 1.01,0.83 0.96,1.46 -0.07,0.83 -0.83,1.39 -1.59,1.33zm-1.83 -2.72c0.69,0.05 1.2,-0.19 1.28,-1.04 0.02,-0.31 -0.04,-0.57 -0.21,-0.76 -0.15,-0.17 -0.38,-0.27 -0.66,-0.29l-0.02 0 -1.33 -0.11 -0.15 1.86c0.34,0.19 0.69,0.29 1.1,0.33z"/>
  <path id="_22" class="fil1" d="M35.95 5.06l-1.43 -0.48 1.2 -3.61 1.42 0.47c0.52,0.17 0.86,0.53 1.05,0.96 0.18,0.43 0.2,0.92 0.04,1.4 -0.31,0.91 -1.21,1.6 -2.27,1.25zm0.03 -0.08c0.77,0.26 1.54,-0.41 1.83,-1.3 0.28,-0.87 0.04,-1.89 -0.73,-2.15l-1 -0.33 -1.14 3.43 1.03 0.34z"/>
  <polygon id="_23" class="fil1" points="38.67,6.13 38.28,5.95 39.82,2.61 40.27,2.66 "/>
  <polygon id="_24" class="fil1" points="40.64,7.11 42.49,3.88 41.22,3.15 41.26,3.07 44.2,4.76 44.16,4.84 42.87,4.1 41.08,7.21 "/>
  <polygon id="_25" class="fil1" points="43.22,8.78 42.87,8.53 45.03,5.55 45.46,5.7 "/>
  <path id="_26" class="fil1" d="M45.39 10.44c0.55,0.52 1.22,0.5 1.78,0.21 0.22,-0.11 0.43,-0.27 0.6,-0.45 0.17,-0.18 0.32,-0.4 0.42,-0.63 0.26,-0.58 0.23,-1.25 -0.31,-1.77 -0.55,-0.52 -1.22,-0.5 -1.79,-0.21 -0.22,0.11 -0.42,0.27 -0.6,0.45 -0.62,0.66 -0.87,1.68 -0.11,2.4zm-0.06 0.06c-0.97,-0.91 -0.79,-2.06 -0.14,-2.75 0.65,-0.69 1.78,-0.93 2.75,-0.01 0.97,0.91 0.79,2.06 0.15,2.75 -0.65,0.69 -1.79,0.93 -2.76,0.02z"/>
  <polygon id="_27" class="fil1" points="49.06,14.83 49.8,10.54 47.33,12.48 47.28,12.42 50.26,10.07 50.31,10.12 49.59,14.3 52.06,12.35 52.12,12.42 "/>
  <path id="_28" class="fil1" d="M53.97 20.49c0.18,-0.05 0.36,-0.03 0.53,0.06 0.17,0.09 0.28,0.23 0.33,0.42 0.05,0.18 0.03,0.36 -0.06,0.53 -0.09,0.17 -0.23,0.28 -0.42,0.33 -0.18,0.05 -0.36,0.03 -0.53,-0.06 -0.17,-0.1 -0.28,-0.23 -0.33,-0.42 -0.05,-0.18 -0.03,-0.36 0.06,-0.53 0.09,-0.17 0.23,-0.28 0.42,-0.33z"/>
 </g>
</svg>
