<?xml version="1.0" encoding="UTF-8"?>
<!DOCTYPE svg PUBLIC "-//W3C//DTD SVG 1.1//EN" "http://www.w3.org/Graphics/SVG/1.1/DTD/svg11.dtd">
<!-- Creator: CorelDRAW -->
<svg xmlns="http://www.w3.org/2000/svg" xml:space="preserve" width="9.7289mm" height="9.729mm" version="1.1" style="shape-rendering:geometricPrecision; text-rendering:geometricPrecision; image-rendering:optimizeQuality; fill-rule:evenodd; clip-rule:evenodd"
viewBox="0 0 67.03 67.03"
 xmlns:xlink="http://www.w3.org/1999/xlink"
 xmlns:xodm="http://www.corel.com/coreldraw/odm/2003">
 <defs>
  <style type="text/css">
   <![CDATA[
    .fil2 {fill:none}
    .fil0 {fill:#D1A132}
    .fil1 {fill:white;fill-rule:nonzero}
   ]]>
  </style>
 </defs>
 <g id="Layer_x0020_1">
  <metadata id="CorelCorpID_0Corel-Layer"/>
  <rect class="fil0" x="0" y="0" width="67.03" height="67.03" rx="600.06" ry="670.27"/>
  <g id="_2440584981040">
   <path class="fil1" d="M18.56 51.89l-0.58 -0.3c0.12,-0.24 12.5,-23.7 31.04,-28.16l0.15 0.63c-18.25,4.39 -30.49,27.59 -30.61,27.83z"/>
   <path class="fil1" d="M24.25 43.06l-0.47 -0.45c0.1,-0.11 10.45,-10.9 25.08,-9.77l-0.05 0.65c-14.32,-1.11 -24.45,9.46 -24.56,9.56z"/>
   <path class="fil1" d="M31.24 34.95l-0.49 -0.42c6.77,-7.85 3.23,-15.9 3.19,-15.98l0.59 -0.27c0.04,0.08 3.75,8.51 -3.29,16.67z"/>
   <path class="fil1" d="M51.97 33.23c-0.03,1.11 -0.96,1.98 -2.07,1.95 -1.11,-0.03 -1.98,-0.96 -1.95,-2.07 0.03,-1.11 0.96,-1.98 2.07,-1.95 1.11,0.03 1.98,0.96 1.95,2.07z"/>
   <path class="fil1" d="M51.48 23.81c-0.03,1.11 -0.96,1.98 -2.07,1.95 -1.11,-0.03 -1.98,-0.96 -1.95,-2.07 0.03,-1.11 0.96,-1.98 2.07,-1.95 1.11,0.03 1.98,0.96 1.95,2.07z"/>
   <path class="fil1" d="M35.94 18.46c-0.03,1.11 -0.96,1.98 -2.07,1.95 -1.11,-0.03 -1.98,-0.96 -1.95,-2.07 0.03,-1.11 0.96,-1.98 2.07,-1.95 1.11,0.03 1.98,0.96 1.95,2.07z"/>
   <path class="fil1" d="M49.09 41.14c-0.19,0.43 -0.38,0.69 -0.59,0.99 -0.21,0.29 -0.45,0.55 -0.69,0.81 -0.49,0.5 -1.03,0.93 -1.59,1.32 -1.14,0.76 -2.38,1.31 -3.65,1.72 -1.27,0.41 -2.57,0.66 -3.85,0.86 -1.29,0.2 -2.59,0.32 -3.88,0.39 -2.59,0.15 -5.18,0.02 -7.73,-0.01 -1.27,-0 -2.54,0.01 -3.76,0.23 -1.21,0.22 -2.37,0.7 -3.17,1.6 -0.12,0.13 -0.33,0.14 -0.46,0.02 -0.13,-0.12 -0.14,-0.32 -0.03,-0.45l0 -0c0.89,-1.06 2.22,-1.65 3.51,-1.92 1.3,-0.28 2.61,-0.32 3.9,-0.36 2.58,-0.04 5.13,0 7.66,-0.22 1.26,-0.1 2.52,-0.26 3.76,-0.49 1.24,-0.23 2.47,-0.51 3.63,-0.92 1.16,-0.41 2.27,-0.95 3.24,-1.64 0.48,-0.36 0.93,-0.74 1.33,-1.17 0.19,-0.22 0.38,-0.44 0.54,-0.67 0.15,-0.22 0.32,-0.5 0.38,-0.66l0.02 -0.06c0.16,-0.4 0.62,-0.59 1.02,-0.42 0.4,0.17 0.58,0.62 0.42,1.02 -0,0.01 -0,0.02 -0.01,0.02z"/>
   <path class="fil1" d="M23.77 24.63c0.3,0.23 0.48,0.41 0.68,0.63 0.19,0.21 0.37,0.43 0.53,0.66 0.33,0.46 0.6,0.95 0.82,1.45 0.44,1.01 0.69,2.08 0.78,3.15 0.18,2.14 -0.19,4.24 -0.81,6.21 -0.62,1.96 -1.36,3.87 -2.21,5.72 -0.85,1.85 -1.8,3.66 -2.87,5.4 -0.03,0.05 -0.09,0.06 -0.14,0.03 -0.05,-0.03 -0.06,-0.09 -0.04,-0.13l0 -0c0.97,-1.77 1.82,-3.62 2.56,-5.5 0.75,-1.88 1.38,-3.8 1.89,-5.74 0.48,-1.93 0.71,-3.93 0.43,-5.84 -0.14,-0.95 -0.42,-1.87 -0.84,-2.7 -0.21,-0.41 -0.46,-0.8 -0.75,-1.16 -0.14,-0.18 -0.29,-0.34 -0.45,-0.5 -0.15,-0.15 -0.35,-0.31 -0.46,-0.38l-0.02 -0.01c-0.36,-0.23 -0.47,-0.71 -0.24,-1.07 0.23,-0.36 0.71,-0.47 1.07,-0.24 0.02,0.01 0.04,0.02 0.05,0.03z"/>
   <path class="fil1" d="M33.95 16.92c0.07,0.12 -0.15,0.39 -0.49,0.6 -0.35,0.22 -0.68,0.3 -0.76,0.18 -0.07,-0.12 0.15,-0.39 0.49,-0.6 0.35,-0.22 0.68,-0.3 0.76,-0.18z"/>
   <path class="fil1" d="M50.8 23.78c-0.12,0.06 -0.37,-0.18 -0.55,-0.55 -0.18,-0.37 -0.23,-0.71 -0.1,-0.77 0.12,-0.06 0.37,0.18 0.55,0.55 0.18,0.36 0.23,0.71 0.1,0.77z"/>
   <path class="fil1" d="M51.21 34.01c-0.14,-0.02 -0.21,-0.36 -0.17,-0.76 0.04,-0.41 0.19,-0.72 0.33,-0.71 0.14,0.01 0.21,0.35 0.17,0.76 -0.04,0.4 -0.19,0.72 -0.33,0.71z"/>
   <rect class="fil1" transform="matrix(0.0625018 -0.320841 0.320845 0.0625011 40.5816 27.0002)" width="13.03" height="1.98"/>
   <rect class="fil1" transform="matrix(0.00931642 -0.326758 0.326761 0.00931633 36.0827 30.5837)" width="1.98" height="10.37"/>
   <rect class="fil1" transform="matrix(0.208786 -0.251508 0.251511 0.208784 32.4475 24.9644)" width="1.98" height="9.23"/>
   <rect class="fil1" transform="matrix(0.0676993 -0.319795 0.319798 0.0676987 36.9741 35.0806)" width="1.98" height="12.43"/>
   <rect class="fil1" transform="matrix(0.190382 -0.265728 0.265731 0.19038 31.191 37.5922)" width="1.99" height="8.55"/>
   <rect class="fil1" transform="matrix(0.107057 -0.308877 0.30888 0.107056 34.3486 35.5713)" width="8.16" height="1.99"/>
   <g>
    <path class="fil1" d="M11 34.75l0.9 -0.1 0 0 0.05 0.43 0.06 0.43 0.07 0.43 0.07 0.42 0.08 0.42 0.09 0.42 0.1 0.41 0.11 0.41 0.11 0.41 0.12 0.4 0.13 0.4 0.14 0.39 0.14 0.39 0.15 0.39 0.16 0.38 0.16 0.38 0.17 0.38 0.18 0.37 0.18 0.37 0.19 0.36 0.2 0.36 0.2 0.36 0.21 0.35 0.22 0.35 0.22 0.34 0.23 0.34 0.23 0.33 0.24 0.33 0.25 0.32 0.25 0.32 0.26 0.31 0.26 0.31 -0.68 0.6 -0.27 -0.32 -0.27 -0.33 -0.26 -0.33 -0.26 -0.34 -0.25 -0.34 -0.25 -0.35 -0.24 -0.35 -0.23 -0.35 -0.23 -0.36 -0.22 -0.37 -0.21 -0.37 -0.21 -0.37 -0.2 -0.38 -0.19 -0.38 -0.19 -0.39 -0.18 -0.39 -0.17 -0.4 -0.16 -0.4 -0.16 -0.4 -0.15 -0.41 -0.14 -0.41 -0.13 -0.42 -0.13 -0.42 -0.12 -0.42 -0.11 -0.43 -0.1 -0.43 -0.1 -0.43 -0.09 -0.44 -0.08 -0.44 -0.07 -0.44 -0.06 -0.45 -0.05 -0.45 0 0zm20.12 -25.01l0.1 0.9 0 0 -1.11 0.15 -1.09 0.2 -1.07 0.26 -1.05 0.31 -1.02 0.36 -1 0.4 -0.97 0.45 -0.94 0.49 -0.91 0.54 -0.88 0.58 -0.85 0.62 -0.82 0.66 -0.78 0.7 -0.75 0.73 -0.71 0.77 -0.68 0.8 -0.64 0.83 -0.6 0.86 -0.56 0.89 -0.51 0.91 -0.47 0.94 -0.42 0.96 -0.38 0.99 -0.33 1.01 -0.28 1.03 -0.23 1.04 -0.18 1.06 -0.13 1.07 -0.08 1.09 -0.02 1.1 0.04 1.11 0.09 1.12 -0.9 0.1 -0.1 -1.16 -0.04 -1.16 0.02 -1.14 0.08 -1.13 0.13 -1.12 0.19 -1.1 0.24 -1.09 0.29 -1.07 0.34 -1.05 0.39 -1.03 0.44 -1 0.49 -0.98 0.53 -0.95 0.58 -0.92 0.62 -0.9 0.66 -0.86 0.7 -0.83 0.74 -0.8 0.78 -0.76 0.82 -0.72 0.85 -0.69 0.89 -0.65 0.92 -0.6 0.95 -0.56 0.98 -0.52 1.01 -0.47 1.04 -0.42 1.06 -0.37 1.09 -0.32 1.11 -0.27 1.14 -0.21 1.16 -0.16 0 0zm25.01 20.12l-0.9 0.1 0 0 -0.15 -1.11 -0.2 -1.09 -0.26 -1.07 -0.31 -1.05 -0.36 -1.02 -0.4 -1 -0.45 -0.97 -0.49 -0.94 -0.54 -0.91 -0.58 -0.88 -0.62 -0.85 -0.66 -0.82 -0.7 -0.78 -0.73 -0.75 -0.77 -0.71 -0.8 -0.68 -0.83 -0.64 -0.86 -0.6 -0.89 -0.56 -0.91 -0.51 -0.94 -0.47 -0.96 -0.42 -0.99 -0.38 -1.01 -0.33 -1.03 -0.28 -1.04 -0.23 -1.06 -0.18 -1.07 -0.13 -1.09 -0.08 -1.1 -0.02 -1.11 0.04 -1.12 0.09 -0.1 -0.9 1.16 -0.1 1.16 -0.04 1.14 0.02 1.13 0.08 1.12 0.13 1.1 0.19 1.09 0.24 1.07 0.29 1.05 0.34 1.03 0.39 1 0.44 0.98 0.49 0.95 0.53 0.92 0.58 0.9 0.62 0.86 0.66 0.83 0.7 0.8 0.74 0.76 0.78 0.72 0.82 0.69 0.85 0.65 0.89 0.6 0.92 0.56 0.95 0.52 0.98 0.47 1.01 0.42 1.04 0.37 1.06 0.32 1.09 0.27 1.11 0.21 1.14 0.16 1.16 0 0zm-20.12 25.01l-0.1 -0.9 0 0 1.11 -0.15 1.09 -0.2 1.07 -0.26 1.05 -0.31 1.02 -0.36 1 -0.4 0.97 -0.45 0.94 -0.49 0.91 -0.54 0.88 -0.58 0.85 -0.62 0.82 -0.66 0.78 -0.7 0.75 -0.73 0.71 -0.77 0.68 -0.8 0.64 -0.83 0.6 -0.86 0.56 -0.89 0.51 -0.91 0.47 -0.94 0.42 -0.96 0.38 -0.99 0.33 -1.01 0.28 -1.03 0.23 -1.04 0.18 -1.06 0.13 -1.07 0.08 -1.09 0.02 -1.1 -0.04 -1.11 -0.09 -1.12 0.9 -0.1 0.1 1.16 0.04 1.16 -0.02 1.15 -0.08 1.13 -0.13 1.12 -0.19 1.1 -0.24 1.09 -0.29 1.07 -0.34 1.05 -0.39 1.03 -0.44 1 -0.49 0.98 -0.53 0.95 -0.58 0.92 -0.62 0.89 -0.66 0.86 -0.7 0.83 -0.74 0.8 -0.78 0.76 -0.82 0.72 -0.85 0.69 -0.89 0.65 -0.92 0.6 -0.95 0.56 -0.98 0.51 -1.01 0.47 -1.04 0.42 -1.06 0.37 -1.09 0.32 -1.11 0.27 -1.14 0.21 -1.16 0.16 0 0zm-13.02 -2.48l0.42 -0.8 0.35 0.18 0.35 0.17 0.36 0.17 0.36 0.16 0.36 0.16 0.37 0.15 0.37 0.14 0.37 0.14 0.37 0.13 0.38 0.12 0.38 0.12 0.38 0.11 0.39 0.1 0.39 0.09 0.39 0.09 0.39 0.08 0.4 0.07 0.4 0.07 0.4 0.06 0.4 0.05 0.4 0.04 0.41 0.04 0.41 0.03 0.41 0.02 0.41 0.01 0.41 0.01 0.41 -0 0.41 -0.01 0.42 -0.02 0.42 -0.02 0.42 -0.03 0.42 -0.04 0.1 0.9 -0.44 0.04 -0.44 0.04 -0.43 0.03 -0.43 0.02 -0.43 0.01 -0.43 0 -0.43 -0.01 -0.43 -0.01 -0.43 -0.02 -0.42 -0.03 -0.42 -0.04 -0.42 -0.05 -0.42 -0.05 -0.42 -0.06 -0.41 -0.07 -0.41 -0.08 -0.41 -0.08 -0.41 -0.09 -0.4 -0.1 -0.4 -0.11 -0.4 -0.11 -0.4 -0.12 -0.39 -0.13 -0.39 -0.13 -0.39 -0.14 -0.38 -0.15 -0.38 -0.16 -0.38 -0.16 -0.37 -0.17 -0.37 -0.17 -0.37 -0.18 -0.36 -0.19z"/>
   </g>
   <path class="fil1" d="M17.3 35.31c0,0.49 -0.39,0.88 -0.88,0.88 -0.49,0 -0.88,-0.39 -0.88,-0.88 0,-0.49 0.39,-0.88 0.88,-0.88 0.49,0 0.88,0.39 0.88,0.88z"/>
   <path class="fil1" d="M18.8 24.5c0,0.41 -0.34,0.75 -0.75,0.75 -0.42,0 -0.75,-0.34 -0.75,-0.75 0,-0.42 0.34,-0.75 0.75,-0.75 0.41,0 0.75,0.34 0.75,0.75z"/>
   <path class="fil1" d="M26.59 16.15c0,0.64 -0.52,1.16 -1.16,1.16 -0.64,0 -1.16,-0.52 -1.16,-1.16 0,-0.64 0.52,-1.16 1.16,-1.16 0.64,0 1.16,0.52 1.16,1.16z"/>
   <path class="fil1" d="M40.59 18.09c0,0.43 -0.35,0.78 -0.78,0.78 -0.43,0 -0.78,-0.35 -0.78,-0.78 0,-0.43 0.35,-0.78 0.78,-0.78 0.43,0 0.78,0.35 0.78,0.78z"/>
   <circle class="fil1" cx="31.63" cy="51.88" r="0.88"/>
   <circle class="fil1" cx="37.38" cy="41.84" r="0.41"/>
   <circle class="fil1" cx="42.7" cy="38.8" r="0.66"/>
   <path class="fil1" d="M38.35 51c0,0.28 -0.23,0.51 -0.51,0.51 -0.28,0 -0.51,-0.23 -0.51,-0.51 0,-0.28 0.23,-0.51 0.51,-0.51 0.28,0 0.51,0.23 0.51,0.51z"/>
   <path class="fil1" d="M45.39 18.81c0,0.4 -0.32,0.72 -0.72,0.72 -0.4,0 -0.72,-0.32 -0.72,-0.72 0,-0.4 0.32,-0.72 0.72,-0.72 0.4,0 0.72,0.32 0.72,0.72z"/>
  </g>
  <circle class="fil2" cx="33.62" cy="32.91" r="25.74"/>
  <path class="fil1" d="M59.05 36.81c0.13,-0.99 1.08,-1.75 2.27,-1.59 0.94,0.12 1.82,0.85 1.67,1.97 -0.07,0.52 -0.35,1.12 -0.89,1.54l-0.93 -0.12 0.17 -0.03c0.67,-0.12 1.48,-0.76 1.57,-1.4 0.11,-0.83 -0.6,-1.4 -1.46,-1.51 -0.21,-0.03 -0.44,-0.03 -0.68,0 -0.81,0.09 -1.44,0.7 -1.54,1.42 -0.06,0.42 0.07,0.89 0.45,1.27l-0.06 0.06 -0.02 -0.01c-0.43,-0.4 -0.62,-1.07 -0.55,-1.6z"/>
  <path id="_1" class="fil1" d="M56.56 42.25c0.09,-0.23 0.24,-0.46 0.44,-0.64 0.77,-0.76 2.49,-0.77 3.36,-1.42l-1.56 -0.6c0.02,-0.32 0.02,-0.14 0.03,-0.46l3.7 1.43 -0.67 1.74c-0.23,0.6 -0.79,1.22 -1.53,0.94 -0.44,-0.17 -0.65,-0.41 -0.75,-0.77 -0.07,-0.39 -0.06,-0.7 0.1,-1.15 0.13,-0.33 0.29,-0.64 0.52,-0.93 -0.93,0.55 -2.46,0.6 -3.14,1.28 -0.2,0.2 -0.33,0.39 -0.42,0.62 -0.3,0.78 0.09,1.58 0.82,1.86 0.55,0.21 1.31,0.07 1.64,-0.53l-1.47 -1.35 0.03 -0.09 3.14 2.86 -0.16 0.43 -4.25 -0.01c0.19,-0.29 0.09,-0.13 0.31,-0.42l0 -0.01 3.94 -0.01 -1.47 -1.34 -0.01 0.02c-0.36,0.58 -1.13,0.76 -1.74,0.52 -0.81,-0.31 -1.15,-1.24 -0.86,-1.97zm3.26 -1.02c-0.25,0.67 -0.16,1.25 0.66,1.58 0.31,0.11 0.59,0.13 0.82,0.01 0.21,-0.1 0.38,-0.3 0.49,-0.58l0 -0.02 0.5 -1.29 -1.81 -0.7c-0.29,0.28 -0.49,0.6 -0.66,1z"/>
  <path id="_2" class="fil1" d="M55.78 46.02l3.35 2.12 -1.46 2.3 -0.08 -0.05 1.21 -1.91 -1.55 -0.99 -1.03 1.63 -0.08 -0.05 1.04 -1.63 -1.53 -0.97c0.03,-0.07 0.07,-0.23 0.12,-0.45z"/>
  <polygon id="_3" class="fil1" points="52.83,50.06 55.64,52.72 56.69,51.61 56.76,51.67 54.34,54.24 54.27,54.17 55.34,53.05 52.62,50.48 "/>
  <polygon id="_4" class="fil1" points="48.77,53.73 50.91,52.05 53.36,55.16 51.22,56.84 51.17,56.77 52.95,55.36 51.81,53.91 50.29,55.12 50.23,55.05 51.76,53.85 50.62,52.4 48.83,53.8 "/>
  <path id="_5" class="fil1" d="M46.82 55l1.36 -0.78 1.97 3.43 -1.35 0.77c-0.5,0.28 -1.01,0.3 -1.47,0.14 -0.46,-0.16 -0.86,-0.49 -1.12,-0.94 -0.49,-0.87 -0.4,-2.04 0.61,-2.63zm0.04 0.08c-0.74,0.42 -0.75,1.48 -0.26,2.33 0.48,0.82 1.44,1.35 2.17,0.93l0.95 -0.55 -1.87 -3.27 -0.98 0.56z"/>
  <path id="_6" class="fil1" d="M34.64 58.88l0.44 -0.08 0.69 3.81c-0.14,0.07 -0.26,0.15 -0.37,0.23 -0.19,0.15 -0.27,0.33 -0.23,0.52 0.06,0.32 0.33,0.52 0.71,0.47 0.11,-0.02 0.22,-0.07 0.33,-0.14 0.39,-0.26 0.55,-0.75 0.65,-1.2l0.81 -4.14 0 -0.02 0.44 -0.08 1.52 2.78 0.46 -3.14 0.44 -0.08 2.01 3.68c-0.32,-0.04 -0.15,-0.02 -0.48,-0.04 -0.04,-0 -0.02,-0.01 -0.05,-0l-0 -0.02 -1.84 -3.37 -0.46 3.11 0.42 0.76c-0.32,-0.04 -0.15,-0.02 -0.48,-0.04 -0.03,-0.01 -0.02,-0.01 -0.05,-0l-1.85 -3.38 -0 -0.01 -0.77 3.98c-0.01,0.03 -0.01,0.01 -0.01,0.04 -0.05,0.23 -0.12,0.47 -0.22,0.7 -0.17,0.36 -0.47,0.65 -0.82,0.72 -0.42,0.05 -0.75,-0.12 -0.82,-0.53 -0.04,-0.23 0.06,-0.43 0.26,-0.6l-0.71 -3.9z"/>
  <polygon id="_7" class="fil1" points="32.07,58.58 31.75,62.44 33.28,62.57 33.27,62.66 29.75,62.37 29.76,62.28 31.3,62.41 31.61,58.68 "/>
  <polygon id="_8" class="fil1" points="29.32,58.32 28.43,62.19 28,62.09 28.43,60.2 26.28,59.71 25.88,61.47 25.41,61.5 26.3,57.64 26.74,57.74 26.3,59.62 28.45,60.12 28.86,58.36 "/>
  <path id="_9" class="fil1" d="M21.15 55.44c0.88,0.46 1.28,1.61 0.73,2.67 -0.43,0.84 -1.42,1.43 -2.42,0.91 -0.47,-0.24 -0.94,-0.71 -1.15,-1.36l0.43 -0.84 -0.03 0.17c-0.11,0.67 0.22,1.65 0.79,1.94 0.75,0.39 1.52,-0.09 1.92,-0.86 0.1,-0.19 0.18,-0.4 0.23,-0.64 0.19,-0.79 -0.17,-1.6 -0.82,-1.93 -0.37,-0.19 -0.87,-0.24 -1.35,-0l-0.04 -0.08 0.02 -0.02c0.52,-0.27 1.22,-0.22 1.69,0.03z"/>
  <path id="_10" class="fil1" d="M16.69 52.31l0.32 0.43 -0.36 1.17 1.54 1.22 1.17 -0.69 0.08 0.06 -3.67 2.14 -0.35 -0.28 1.27 -4.06zm-0.07 1.69l-0.77 2.5 2.26 -1.32 -1.49 -1.18z"/>
  <path id="_11" class="fil1" d="M13.92 46.21c0.09,0.11 0.18,0.25 0.26,0.39 0.96,1.72 -0.31,4.57 0.02,6.18l1.31 -1.03c0.27,0.18 0.11,0.08 0.38,0.26l-3.12 2.46 -1.17 -1.49c-0.4,-0.5 -0.63,-1.27 -0.02,-1.77 0.68,-0.54 1.39,-0.3 1.97,0.42 0.27,0.34 0.33,0.45 0.5,0.83 -0.11,-1.66 0.91,-4.27 0.04,-5.8 -0.08,-0.14 -0.17,-0.27 -0.26,-0.39 -0.93,-1.18 -2.3,-1.01 -3.08,-0.4 -0.79,0.62 -1.05,1.77 -0.25,2.78 0.29,0.37 0.74,0.69 1.28,0.85l1.23 -0.97 -0.58 -0.75 -0.82 -1.04 0.07 -0.05 1.68 2.13 -3.11 2.45 -1.68 -2.13 0.07 -0.06 1.4 1.78 1.65 -1.3c-0.53,-0.15 -0.96,-0.48 -1.26,-0.86 -0.84,-1.06 -0.55,-2.26 0.27,-2.91 0.85,-0.67 2.27,-0.78 3.21,0.42zm-0.34 5.57c-0.45,-0.56 -0.99,-0.78 -1.7,-0.24 -0.25,0.2 -0.41,0.44 -0.43,0.7 -0.02,0.24 0.07,0.48 0.25,0.71l0.87 1.11 1.52 -1.2c-0.1,-0.39 -0.25,-0.73 -0.53,-1.07z"/>
  <path id="_12" class="fil1" d="M7.63 42.8c-0.19,0.06 -0.37,0.05 -0.55,-0.04 -0.18,-0.09 -0.3,-0.23 -0.36,-0.42 -0.06,-0.19 -0.05,-0.37 0.04,-0.55 0.09,-0.18 0.23,-0.3 0.42,-0.36 0.19,-0.06 0.37,-0.05 0.55,0.04 0.18,0.09 0.3,0.23 0.36,0.42 0.06,0.19 0.05,0.37 -0.04,0.55 -0.09,0.18 -0.23,0.3 -0.42,0.36z"/>
  <path id="_13" class="fil1" d="M7.85 34.3l-3.97 -0.14 0.07 -1.89c0.02,-0.62 0.33,-1.38 1.13,-1.37 0.53,0.02 0.82,0.26 1,0.54 0.23,0.38 0.25,0.76 0.23,1.28 -0.01,0.09 -0.02,0.18 -0.04,0.27 0.37,-0.8 0.87,-1.5 1.62,-2.01l0.05 0.07c-0.98,0.69 -1.5,1.63 -1.9,2.74l1.68 0.06 0.01 0.02c0.08,0.3 0.04,0.15 0.12,0.43zm-1.63 -1.67c0.02,-0.72 -0.26,-1.24 -1.14,-1.28 -0.32,-0.01 -0.59,0.07 -0.78,0.25 -0.17,0.17 -0.25,0.41 -0.26,0.71l-0.05 1.41 1.94 0.07c0.18,-0.36 0.28,-0.72 0.29,-1.15z"/>
  <path id="_14" class="fil1" d="M9.54 23.44c0.38,-1.33 -0.39,-2.27 -1.34,-2.54 -0.95,-0.27 -2.09,0.13 -2.47,1.46 -0.74,2.63 3.15,3.08 2.39,5.75 -0.21,0.75 -0.82,1.11 -1.48,1.14 -0.26,0.02 -0.52,-0.01 -0.78,-0.09 -0.91,-0.26 -1.67,-1.03 -1.37,-2.08 0.21,-0.75 0.82,-1.1 1.48,-1.14 0.26,-0.02 0.52,0.01 0.78,0.09 0.46,0.13 0.86,0.38 1.13,0.72 -0.16,-0.39 -0.45,-0.73 -0.78,-1.08 -0.07,-0.03 -0.15,-0.06 -0.22,-0.08 -0.95,-0.27 -2.09,0.13 -2.47,1.46 -0.38,1.34 0.38,2.27 1.34,2.54 0.95,0.27 2.1,-0.13 2.47,-1.46l-0.01 -0c0.78,-2.75 -3.11,-3.19 -2.39,-5.75 0.21,-0.75 0.81,-1.1 1.47,-1.14 0.26,-0.02 0.52,0.01 0.78,0.09 0.25,0.07 0.49,0.18 0.71,0.33 0.54,0.38 0.88,0.99 0.67,1.74 -0.21,0.75 -0.82,1.11 -1.48,1.14 -0.26,0.02 -0.52,-0.01 -0.78,-0.09 -0.39,-0.11 -0.74,-0.31 -1.01,-0.59 0.21,0.36 0.51,0.68 0.84,1.01l0.05 0.01c0.96,0.27 2.09,-0.12 2.47,-1.46z"/>
  <polygon id="_15" class="fil1" points="11.29,20.13 7.93,18.2 7.17,19.52 7.08,19.48 8.84,16.42 8.93,16.46 8.15,17.81 11.39,19.67 "/>
  <polygon id="_16" class="fil1" points="14.45,15.67 12.77,17.8 9.66,15.34 11.35,13.21 11.42,13.27 10.01,15.05 11.46,16.2 12.66,14.68 12.73,14.73 11.53,16.25 12.97,17.39 14.38,15.61 "/>
  <path id="_17" class="fil1" d="M16.13 14.05l-1.15 1.08 -2.71 -2.88 1.13 -1.06c0.42,-0.39 0.91,-0.53 1.4,-0.48 0.48,0.04 0.95,0.27 1.3,0.65 0.68,0.73 0.87,1.9 0.02,2.7zm-0.06 -0.07c0.62,-0.58 0.39,-1.61 -0.28,-2.33 -0.66,-0.68 -1.71,-0.97 -2.32,-0.4l-0.8 0.75 2.58 2.75 0.83 -0.78z"/>
  <polygon id="_18" class="fil1" points="20.98,10.5 20.59,10.73 18.68,7.41 19,7.06 "/>
  <polygon id="_19" class="fil1" points="24.48,8.83 20.31,7.03 21.68,10.01 21.6,10.05 19.95,6.45 20.02,6.42 24.07,8.17 22.7,5.19 22.79,5.15 "/>
  <polygon id="_20" class="fil1" points="29.56,7.49 29.06,3.65 27.54,3.84 27.52,3.75 31.02,3.29 31.04,3.39 29.5,3.59 29.98,7.29 "/>
  <path id="_21" class="fil1" d="M35.95 8.31c-0.25,-0.02 -0.51,-0.1 -0.74,-0.24 -0.94,-0.52 -1.44,-2.18 -2.31,-2.82l-0.14 1.67c-0.31,0.07 -0.14,0.02 -0.45,0.1l0.33 -3.95 1.86 0.15c0.65,0.05 1.39,0.41 1.34,1.2 -0.04,0.47 -0.21,0.74 -0.52,0.94 -0.35,0.17 -0.65,0.25 -1.13,0.22 -0.35,-0.03 -0.7,-0.1 -1.04,-0.24 0.79,0.74 1.27,2.19 2.11,2.66 0.25,0.14 0.47,0.21 0.71,0.23 0.83,0.07 1.49,-0.53 1.55,-1.31 0.05,-0.59 -0.31,-1.27 -0.97,-1.42l-0.88 1.79 -0.09 -0.01 1.86 -3.82 0.45 0.04 1.19 4.08c-0.33,-0.1 -0.15,-0.05 -0.49,-0.18l-0.01 0 -1.12 -3.78 -0.87 1.79 0.02 0.01c0.66,0.18 1.05,0.87 0.99,1.52 -0.07,0.87 -0.87,1.45 -1.65,1.38zm-1.9 -2.84c0.72,0.05 1.25,-0.2 1.33,-1.08 0.02,-0.33 -0.04,-0.6 -0.22,-0.79 -0.16,-0.18 -0.39,-0.28 -0.69,-0.3l-0.02 0 -1.38 -0.11 -0.16 1.93c0.35,0.19 0.71,0.31 1.14,0.35z"/>
  <path id="_22" class="fil1" d="M41.31 8.33l-1.49 -0.5 1.25 -3.75 1.48 0.49c0.54,0.18 0.9,0.55 1.09,1 0.19,0.45 0.21,0.96 0.05,1.46 -0.32,0.95 -1.26,1.66 -2.37,1.3zm0.04 -0.09c0.8,0.27 1.6,-0.42 1.91,-1.35 0.29,-0.91 0.04,-1.97 -0.76,-2.23l-1.04 -0.35 -1.19 3.58 1.08 0.36z"/>
  <polygon id="_23" class="fil1" points="44.15,9.44 43.74,9.25 45.34,5.77 45.81,5.83 "/>
  <polygon id="_24" class="fil1" points="46.2,10.46 48.13,7.11 46.8,6.34 46.85,6.26 49.91,8.02 49.86,8.1 48.52,7.33 46.66,10.57 "/>
  <polygon id="_25" class="fil1" points="48.89,12.21 48.52,11.95 50.77,8.85 51.22,9 "/>
  <path id="_26" class="fil1" d="M51.15 13.93c0.57,0.54 1.27,0.52 1.85,0.22 0.23,-0.11 0.44,-0.28 0.62,-0.47 0.18,-0.19 0.33,-0.42 0.44,-0.65 0.27,-0.6 0.24,-1.31 -0.32,-1.84 -0.57,-0.54 -1.27,-0.53 -1.86,-0.22 -0.23,0.12 -0.44,0.28 -0.62,0.47 -0.65,0.68 -0.91,1.75 -0.11,2.5zm-0.06 0.06c-1.01,-0.95 -0.83,-2.15 -0.15,-2.86 0.67,-0.71 1.86,-0.96 2.86,-0.01 1.01,0.95 0.83,2.15 0.15,2.86 -0.68,0.72 -1.86,0.97 -2.87,0.02z"/>
  <polygon id="_27" class="fil1" points="54.97,18.5 55.73,14.03 53.16,16.06 53.11,15.99 56.21,13.54 56.26,13.6 55.52,17.95 58.09,15.92 58.15,15.99 "/>
  <path id="_28" class="fil1" d="M60.08 24.4c0.19,-0.06 0.38,-0.03 0.55,0.07 0.17,0.1 0.29,0.24 0.34,0.43 0.05,0.19 0.03,0.37 -0.07,0.55 -0.1,0.17 -0.24,0.29 -0.43,0.34 -0.19,0.05 -0.38,0.03 -0.55,-0.07 -0.17,-0.1 -0.29,-0.24 -0.34,-0.44 -0.05,-0.19 -0.03,-0.37 0.07,-0.55 0.1,-0.17 0.24,-0.29 0.44,-0.34z"/>
 </g>
</svg>
