<?xml version="1.0" encoding="UTF-8"?>
<!DOCTYPE svg PUBLIC "-//W3C//DTD SVG 1.1//EN" "http://www.w3.org/Graphics/SVG/1.1/DTD/svg11.dtd">
<!-- Creator: CorelDRAW -->
<svg xmlns="http://www.w3.org/2000/svg" xml:space="preserve" width="12.7216mm" height="18.2595mm" version="1.1" style="shape-rendering:geometricPrecision; text-rendering:geometricPrecision; image-rendering:optimizeQuality; fill-rule:evenodd; clip-rule:evenodd"
viewBox="0 0 337.04 483.76"
 xmlns:xlink="http://www.w3.org/1999/xlink"
 xmlns:xodm="http://www.corel.com/coreldraw/odm/2003">
 <defs>
  <style type="text/css">
   <![CDATA[
    .fil0 {fill:white}
   ]]>
  </style>
 </defs>
 <g id="Layer_x0020_1">
  <metadata id="CorelCorpID_0Corel-Layer"/>
  <path class="fil0" d="M254.52 423.88c-12.36,-10.91 -2.85,-2.3 -11.84,-12.68 -11.16,-12.88 -18.92,-27.47 -18.89,-45.52 0.02,-14.81 2.32,-13.28 9.73,-22.11 19.81,4.02 29.86,50.13 28.01,73.46 -0.15,1.89 -0.35,4.67 -0.64,6.48 -0.19,1.17 -0.27,1.65 -0.59,2.71 -0.48,1.59 -0.63,1.63 -1.12,2.41l-4.67 -4.76zm1.12 5.12c-37.02,-2.03 -61.01,-40.94 -52.48,-65.8 6.27,-18.27 11.51,-16.65 21.42,-14.38 -6.78,29.46 -0.21,43.27 17.29,65.42 2.52,3.2 10.44,9.93 13.77,14.76zm-122.04 -76.07c-1.68,-6.77 3.94,-11.56 9.7,-8.5 2.72,6.42 -1.22,12.93 -9.7,8.5zm129.89 71c1.52,-32.05 -4.18,-68.43 -26.16,-82.23 36.62,-4.09 49.77,39.76 33.18,72.15l-7.02 10.08zm-29.97 56.74c-35.35,2.96 -64.49,-25.69 -78.95,-54.96 -13.88,-28.1 -11.09,-65.42 7.34,-91.5 3.47,-4.91 4.61,-7.01 8.35,-8.95 -18.37,28.13 -23.53,65.29 -5.76,99.42 4.28,8.22 7.96,12.62 12.38,18.86 2.08,2.93 12.36,13.46 15.37,15.88 23.64,19.07 33.41,17.24 41.28,21.26zm38.94 -21.36c-8.3,20.59 -39.44,18.57 -61.68,6.07 -65.57,-36.85 -61.41,-120.48 -30.01,-142.39 6.06,-4.23 18.97,-10.65 27.29,-10.6 0.28,0 0.64,0.04 0.88,0.06l2.55 0.8c-2.55,1.76 -6.28,1.19 -9.57,1.89 -0.38,9.17 4.94,7.56 13.11,8.84l9.25 21.23c-30.9,-7.4 -36.67,52.65 1.49,77.35 4.32,2.8 9.08,5.48 14.91,7.4 6.11,2.01 13.86,2.06 18.94,3.52 4.29,10.91 5.75,17.88 12.83,25.83zm-58.13 -145.7c-2.07,-8.82 34.58,-18.42 69.55,3.98 9.27,5.94 7.94,7.13 12.44,10.94 28.33,23.97 40.86,94.95 15.68,120.08 -22.52,22.47 -44.62,15.47 -49.83,-17.57 6.75,-4.07 13.36,-17.07 16.48,-26.95 7.24,-22.95 0.88,-52.02 -19.01,-62.3 -5.32,-2.75 -11.67,-3.69 -18.31,-3.84 -10.22,-0.23 -8.83,1.61 -13.37,7.3 -3.21,-3.49 -8.73,-16.33 -10.1,-21.96 4.94,-3.24 10.93,-5.55 8.77,-13.2 -8.85,-2.82 -6.41,3.99 -12.3,3.52zm-85.89 38.08c-31,1.77 -52.79,-4.63 -76.67,-20.7 -22.89,-15.41 -53.88,-55.54 -33.57,-83.57 5.55,-7.66 17.63,-20.75 27.82,-20.88 14.17,-0.17 29.1,1.92 42.01,6.9 42.34,16.36 69.03,56.27 55.15,101.07 -4.1,13.22 -7.95,-0.48 -14.75,17.17zm48.47 -73.34c-5.26,-13.94 -5.79,-12.96 0.24,-27.09 7.17,-16.83 18.45,-29.76 33.03,-39.46 7.05,-4.69 14.97,-8.37 24.48,-11.43 5.72,5.88 2.51,5.49 12.92,8.28 3.79,20.76 3.19,69.85 -3.8,89.24 -6.81,0.8 -5.87,-0.48 -8.17,-3 -1.64,5.16 -4.8,3.78 -11.34,4.68l-0.02 -10.54c-4.58,13.73 -0.15,10.34 -13.8,15.84l3.46 -17.4 -7.13 18.47 -7.56 0.71 7.08 -25.67c-4.06,8.05 -6.91,15.8 -10.08,26.02l-14.33 4.01 10.72 -31.55c-0.97,0.88 -0.8,0.62 -1.83,1.99l-0.96 1.44c-0.65,1.1 -1.17,2.46 -1.78,3.89 -1.9,4.43 -8.09,18.23 -7.2,21.21 -5.88,-32.86 0.55,-29.59 4.11,-43.2l-5.22 7.02c-0.97,2.12 -1.74,4.39 -2.82,6.53zm-39.78 81.71c0.03,0.11 0.15,0.84 0.17,0.69 0.02,-0.16 0.07,0.5 0.17,0.72 2.28,-7.96 3.94,-1.53 7.46,-8.62 2.52,-5.09 0.06,-6.84 2.87,-11.52 0.91,-1.52 2.25,-2.53 3.62,-4.23 12.97,-16.1 19.95,-49.57 9.5,-62.92 1.19,15.17 4.1,23.66 -0.76,39.45 -1.6,5.22 -9.82,27.15 -16.38,26.88 4.39,-19.01 9.33,-26.57 3.22,-48.88 -4.28,-15.63 -12.22,-26.93 -19.94,-35.92 -6.3,-7.34 -21.17,-17.58 -33.96,-22.98 -15.79,-6.68 -29.2,-7.47 -47.01,-8.52 10.31,-9.44 35.08,-12.24 50.97,-9.77 48.13,7.5 79.24,48 76.74,95.46 -0.42,7.99 0.03,6.82 -5.12,9.7 0.59,-4.01 1.76,-7.7 1.94,-11.99 0.17,-3.82 -1.41,-9.47 -1.01,-11.4 -1.49,13.38 0.92,22.82 -6.9,29.94 -12.32,11.2 -15.57,28.62 -19.52,39.59 -4.25,11.81 -45.98,21.17 -74.2,12.73 -43.32,-12.95 -72.02,-59.03 -64.47,-100.12 1.28,-6.99 4.24,-12.31 5.29,-17.04 0.07,20.02 2.21,27.82 11.38,42.22 6.59,10.35 16.34,20.21 25.99,27.6 40.28,30.85 77.36,21.32 83.09,24.14 -0.34,2.2 -1.48,2.58 -6.54,5.47 -2.83,1.62 -5.21,2.76 -8.28,4.02 -5.9,2.43 -14.38,4.29 -21.37,4.71 -17.78,1.06 -27.86,-5.09 -40.93,-10.17 18.73,13.67 42.57,17.04 65.63,6.64 11.08,-5 11.78,-9.05 17.67,-8.51 2.11,2.83 0.13,0.4 0.66,2.64zm17.68 -128.86l-2.72 4.27c-3.04,-2.43 -5.6,-5.25 -9.24,-7.84 -3.53,-2.51 -6.27,-3.16 -8.22,-6.93 1.18,-3.36 2.65,-4.18 5.18,-5.66 5.84,5.4 8.55,6.37 16.75,11.19 -0.56,2.2 -0.7,2.71 -1.75,4.98zm-13.72 -17.17c1.91,-2.7 4.49,-5.05 6.97,-7.19 5.43,2.45 11.15,5.82 15.37,9.35l-5.84 8.27 -16.49 -10.42zm152.81 96.61c-2.05,2.36 -2.32,3.74 -4.65,5.72 -2.22,-1.84 -3.28,-2.81 -6.3,-4.81l0.36 -7.64 -2.91 5.66c-11.01,-5.34 -18.71,-9.55 -33.71,-10.93 7.67,-38.03 9.25,-50.61 3.45,-90.19 11.83,-0.78 5.52,-5.53 17.02,0.91 13.6,7.62 26.35,21.16 33.53,36.73 9.96,21.6 10.77,47.44 0.63,69.16l-4.18 7.37c-6.97,-4.11 -4.2,-4.48 -3.23,-11.99zm-175.81 -108.39c6.73,1.43 7.35,0.51 10.15,16.25 -12.85,-4.09 -18.68,-7.85 -33.86,-9.38 -3.85,-0.39 -8.73,0.01 -11.93,-1.58 -2.4,-12.48 27.18,-7.07 35.64,-5.28zm41.49 -14.21c5.62,2.16 4.98,3.6 10.03,6.69l-3.31 12.58 -11.17 -9.18 4.46 -10.09zm146.34 62.95c-9.04,-22.33 -23.83,-38.14 -45.44,-47.38 0.87,-6.8 0.18,-7.15 -1.69,-13.12 82.2,8.89 93.37,95.91 50.48,139.37 -2.96,3 -0.81,1.68 -4.28,2.51 -2.1,-4.98 2.48,-7.79 4,-14.23 -0.99,2.22 -5.37,8.44 -7.73,8.95 -5.37,-5.09 5.31,-7.84 9.17,-34.1 2.09,-14.18 0.59,-29.44 -4.5,-42zm-150.17 -11.12c3.43,-15.02 19.88,-31.63 29.16,-37.7 13.93,-9.12 33.18,-12.38 52.75,-12.3 -1.85,5.63 -1.18,7.63 -7.42,9.61 -11.38,3.6 -26.37,10.84 -33.6,18.87 -3.05,3.39 -6.26,5.57 -8.82,9.03 -2.45,3.31 -4.84,6.5 -7.31,10.58 -4.66,7.68 -6.25,15.57 -10.27,23.71 -5.25,-10 -2.31,-7.19 -0.91,-18.2l-3.5 8.74c-0.23,-0.21 -0.54,-0.48 -0.7,-0.64 -4.56,-4.49 -4.09,-4.51 -2.66,-12.36l-2.37 2.68c-0.04,0.05 -0.94,1.6 -1.09,1.83 -1.54,-2.45 -0.84,-1.6 -3.28,-3.85zm83.66 -44.35c3.79,2.23 -2.3,1.73 0.69,0.58 0.51,-1.39 1.52,-3.57 1.91,-4.82 2.01,-6.34 -2.21,-4.83 3.84,-6.34 3.45,-0.86 2.61,-0.42 6.02,0 4.46,6.42 7.76,10.36 5.04,18.94 -8.16,3.62 -21.27,2.41 -18.87,-8.89 3.43,-1.65 -1.8,-1.33 1.37,0.54zm-70.56 11.76c1.97,-6.27 0.96,-8.91 6.59,-11.28 10.09,-4.25 32.11,-16.92 36.9,-11.97 4.62,4.77 -6.32,5.63 -9.07,6.33 -19,4.89 -25.13,15.08 -34.42,16.92zm-34.62 9.18c-1.97,-2.91 -3.93,-9.14 -4.64,-13.45 -0.66,-4.05 2.15,-6.74 5.36,-10.68 23.13,-28.4 31.01,-14.74 16.12,6.14 -2.49,3.49 -5.45,6.59 -8.03,9.8 -2.74,3.4 -5.16,6.05 -8.81,8.19zm-13.94 -26.6c-11.53,0.8 -44.6,2.61 -47.61,-7.96 -3.48,-12.23 38.75,-2.62 45.25,-1.47l2.36 9.43zm35.14 -27.11c7.9,1.06 15.23,9.89 19.35,14.42l-2.62 7.37c-14.35,-5.08 -6.49,-3.85 -12.93,-10.19 -6.14,-2.98 -3.83,1.02 -9.07,-3.71 1.11,-3.08 2.94,-4.35 5.26,-7.88zm21.82 14.77c7.26,-3.07 13.42,-4.58 20.74,-8.02 3.27,-1.54 18.76,-10.48 16.22,-0.77 -2.38,9.14 -27.22,16.25 -39.37,17.74l2.41 -8.95zm-50.83 12.81c-1.31,-1.79 -5.51,-10.36 -3.16,-14.08 4.1,-6.5 23.26,-26.85 31.95,-24.66 2.43,12.04 -17.23,25.94 -28.79,38.74zm-62.97 -35.13c-7.66,-11.25 14.34,-6.42 20.02,-5.28 8.79,1.77 18.16,3.17 26.92,5.36l4.12 14.67c-13.54,-1.25 -45.02,-5.88 -51.06,-14.75zm94.12 -19.37l21.58 22.33c-1.14,11.46 -2.59,4.15 -3.4,15.93 -1.43,-1.08 -0.65,-0.52 -1.96,-1.81 -0.24,-0.23 -0.91,-0.97 -1.15,-1.21 -1,-1.02 -1.06,-1.16 -2.24,-2.24 -11.78,-10.76 -14.7,-2.76 -12.92,-11.87 4.99,2.35 4.39,4.35 10.81,7.44 -1.94,-3.1 0.08,-0.25 -1.98,-2.41l-5.03 -4.14c-0.64,-0.55 -9.38,-12.06 -9.52,-14.33 -0.09,-1.39 1.38,-6.32 1.89,-8.62l3.92 0.92zm-38.19 34.96c-4.54,-20.16 -9.04,-12.27 1.84,-29.03 18.92,-29.13 32.75,-17.22 28.47,-2.67 -1.81,6.18 -4.93,8.08 -8.43,11.6l-21.88 20.1zm-14.05 -30.86c-58.74,-1.42 -62.92,-25.69 -17.44,-14.57 13.33,3.26 15.8,2.4 17.44,14.57zm79.2 -4.36l-1.84 10.46c-3.83,-1.74 -23.33,-16.23 -24.75,-26.84 9.4,-1.21 22.37,13.09 26.58,16.39zm1.04 -7.48l-2.98 -3.81c-3.32,-2.86 -6.92,-3.99 -11.8,-8.3 -2.81,-2.48 -4.72,-4.31 -6.77,-6.54 -2.52,-2.74 -3.22,-3.85 -3.1,-6.92 0.13,-3.36 0.35,-2 0.81,-2.9 4.6,-0.64 32.9,11.37 23.84,28.46zm-62.52 -26.8c6.38,-3.05 8.48,-8 15.19,-6.43 0.23,0.05 0.71,0.68 0.87,0.41 1.06,-1.8 9.31,13.72 -18.42,35.93l-11 7.91c-5.92,-11.32 -2.68,-11.47 2.31,-19.96 3.22,-5.48 9.58,-14.04 11.05,-17.86zm-25.19 14.9c-10.71,-0.35 -22.21,-0.82 -32.54,-2.89 -28.08,-5.63 -26.56,-21.6 11.57,-11.47 20.58,5.47 18.19,3.6 20.97,14.36zm95.15 -10.1c1.91,-13.34 2.37,-10.76 12.82,-15.77 4.98,-2.39 12.92,-6.67 18.43,-7.46 -0.02,11.19 -20.9,20.81 -31.25,23.23zm-94.83 1.06c-1.38,-6.13 4.35,-13.03 8.83,-19.76 2.9,-4.36 5.91,-7.45 8.63,-11.41 3.27,-4.77 5.66,-6.77 12.01,-3.99 1.68,6.65 1.13,8.42 -2.56,13.45 -4.88,6.67 -20.19,24.03 -22.82,29.59l-4.09 -7.88zm-54.66 -30.43c2.99,-9.25 17.18,-4.31 26.36,-1.44 17.97,5.6 16.66,4.79 19.7,15.8 -10.51,-1.63 -41.56,-6.72 -46.06,-14.35zm156.53 -2.17c9.19,-1.57 14.29,-13.77 22.16,-14.34 1.21,9.47 -17.84,21.38 -25.54,23.55 1.28,-9.88 2.58,-7.3 2.83,-8.64 0.07,-0.36 0.37,-0.37 0.55,-0.57zm-119.58 -8.95c-9.36,-1.58 -16.39,-2.74 -26.13,-3.76 -27.4,-2.88 -20.39,-20.05 8.82,-8.81 8.5,3.27 14.66,3.82 17.31,12.57zm11.35 24.75c-2.83,-12.43 -5.95,-7.05 4.99,-26.55 3.27,-5.82 11.06,-18.84 20.08,-15.51 2.65,9.95 -12.79,36.27 -25.07,42.06zm-9.59 -26.35c-6,-12.54 8.89,-44.07 18.08,-40.58 13.42,5.1 -13.05,32.93 -18.08,40.58zm-11.6 -25.18l1.12 4.49c-8.86,-2 -14,-3.11 -23.76,-4.41 -7.07,-0.95 -17.5,-6.24 -11.76,-13.25 5.51,-4.63 30.99,9.59 34.4,13.17zm0 0c-0.58,-12.53 4.63,-45.02 15.24,-34.18 7.62,7.4 -9.41,32.89 -12.33,38.81l-2.91 -4.62zm129.42 35.73c-2.22,-1.18 -2.44,1.32 -1.42,-3.64 0.96,-4.69 -0.91,2.69 0.62,-1.53l0.82 -2.39c0.06,-0.95 -1.81,0.56 1.45,-8.47l-4.52 -3.7c-0.11,-0.41 -0.41,-0.47 -0.62,-0.69 2.23,8.97 2.73,5.03 0.54,12.35l-1.92 16.17c-6.31,-5.41 -15.05,-10.28 -20.06,-14.33 -1.23,-0.99 -2.03,-1.28 -2.52,-3.17 -3,-11.63 15.11,1.43 18.16,3.07 -1.81,-3.04 -0.07,-0.71 -2.5,-2.93 -0.96,-0.87 -0.97,-0.75 -2.01,-1.48 -5.93,-4.13 -8.88,-5.96 -15.51,-4.4 -1.39,8.85 3.97,10.97 9.61,14.9l14.3 10.11c-0.17,2.16 -0.23,4.07 -0.86,6.19 -3.64,12.11 -0.48,7.11 -2.91,14.65 -5.46,-6.8 -24.8,-18.21 -20.16,-28.51l10.07 6.24c-1.6,-3.3 -8.03,-9.98 -11.77,-6.16 -6.96,7.12 16.61,27.56 21.87,29.55l-1.61 9.88c-3.63,-2.13 -1.26,-0.37 -3.91,-3.51 -4.75,-5.63 -19.49,-20.26 -25.43,-13.73 -5.57,10.37 19.01,26.5 25.81,29.06l-0.65 6.14c-0.92,-0.53 -28.3,-27.77 -28.63,-12.85 -0.03,1.33 0.12,1.57 0.52,2.78 2.55,7.69 19.27,19.61 25.06,24.05l-1.7 7.71c-7.37,-5.82 -12.79,-16.97 -22.6,-20.09l-3.35 -3.17c-0.68,-0.95 -5.64,-21.91 -25.38,-5.52 4.84,-6.85 18.73,-19.23 12.68,-34.13 -7.82,-1.47 -16.15,1.69 -18.47,8.27 -3.09,0.57 -1.16,-0.42 -3.48,2.03 -5.76,6.09 -9.46,16.46 -14.35,22.49 -3.91,-7.41 -3.12,-9.03 2.46,-15.45 4.22,-4.86 6.99,-8.3 10.61,-12.8 4.81,-5.99 20.83,-21.14 7.02,-29.24 -11.05,-3.21 -23.84,26.25 -29.23,32.69l-2.99 -8.89c6.1,-3.73 13.65,-11.66 18.02,-18.47 18.81,-29.3 2.53,-39.1 -12.68,-17.08 -3.72,5.39 -7.39,16.53 -11.66,20.72 -3.79,-16.59 -6.75,-6.92 9.59,-27.3 7.79,-9.72 13.55,-17.63 6.11,-29.22 -16.2,-1.92 -20.17,18.87 -24.01,33.49 -7.76,-10.03 -0.53,-12.81 4.44,-22.23 18.81,-35.67 -4.02,-38.29 -10.37,-23.67 -3.11,7.16 -3.03,16.37 -3.58,24.66 -7.95,-0.6 -24.84,-14.65 -34.02,-9.99 -9.94,11.45 7.33,17.54 17.01,18.52 15.94,1.61 20.66,0.72 25.1,15.22 -6.34,-1.69 -13.65,-6.14 -21.66,-8.41 -23.29,-6.62 -30.95,13.06 1,15.87 8.89,0.78 16.58,2.07 25.09,3.8l3.85 10.93c-7.96,-3.03 -14.61,-5.98 -23.41,-8.02 -9.83,-2.28 -19.63,-4.06 -20.79,6.9 6.11,8.91 36.32,14.53 49.44,15.58l3.67 11.42c-8.87,-2.42 -51.78,-18.38 -49.87,-0.37 1.41,13.31 41.09,13.45 54.27,13.92l2.82 8.74c-11.88,-2.59 -23.72,-7.13 -36.38,-6.48 -4.68,0.24 -7.48,0.59 -9.29,4.07 -6.32,14.17 40.8,16.15 50.73,17.77l2.78 10.72c-9.25,-2.01 -38.55,-9.9 -46.49,-6.55 -5.49,4.86 -2.57,10.62 3,14.11 3.71,2.32 12.54,4.95 17.26,6.23 23.31,6.33 31.94,1.18 34,11.28 -8.85,-1.1 -50.21,-12.88 -47.17,3.97 2.47,13.72 37.93,10.72 51.27,10.3l2.34 8.76c-8.52,-1.32 -30.53,-6.69 -39.5,-1.92 -2.74,1.46 -3.33,4.26 -3.89,6.55l-0.57 2.75c-53.29,5.02 -97.4,59.07 -72.33,118.82 10.71,25.53 26.37,41.18 50.24,52.5 30.9,14.65 55.85,8.5 83.92,-3.26 -2.28,42.87 18.91,73.07 40.37,89.82 32.66,25.48 82.22,20.36 94.05,-0.45 31.67,5.47 50.2,-18.17 53.2,-47.55 1.55,-15.11 -0.03,-32.23 -3.87,-46.32 -4.57,-16.74 -9.97,-22.94 -15.65,-35.57 4.75,-4 12.36,-14.63 16.53,-22.45 28.85,-54.18 -1.12,-119.91 -63.95,-126.37 -10.64,-1.09 -5.88,-5.93 -14.01,-5.61 -7.7,0.3 -2.6,4.34 -14.44,4.42 -6.02,0.03 -11.99,0.39 -17.93,1.12 -5.43,-10.71 -6.05,-7.13 -18.81,-3.93 6.4,-3.62 15.73,-6 18.8,-13.59 5.65,-13.97 -14.73,-4.06 -19.63,-1.68 -6.94,3.37 -10.85,4.79 -17.91,7.28 0.46,-4.93 0.39,-1.59 1.35,-3.8 1.15,-2.63 0.1,-3.98 0.93,-7.76 1.9,-8.63 2.81,-5.82 9.63,-9.43 6.65,-3.52 16.61,-12.66 25.48,-10.11 0.45,8.28 -7.39,13.43 -13.23,16.67 -3.19,1.77 -6.24,3.35 -9.76,4.78 -2.09,0.85 -3.63,1.23 -5.82,2.03l-5.02 2.45c11.75,-1.5 26.15,-7.72 33.15,-16.78 1.32,-1.72 2.26,-2.97 2.63,-5.18 2.89,-17.42 -29.55,6.28 -34.87,7.52 1.24,-6.84 0.05,-8.74 6.71,-10l-4.21 -1.35 3.14 -11.65c1.41,-8.38 10.54,-2.59 24.23,-12.85 2.57,-1.93 16.4,-14.32 8.45,-20.12 -4.56,-3.49 -9.35,1.86 -12.96,4.36l-11.03 8.68c-0.12,-0.21 -0.45,0.51 -0.65,0.78 7.05,-2.95 17.41,-14.66 24.46,-12.34 3.25,13.46 -19.23,24.15 -31.99,26.65l4.61 -20.73c7.61,-3.04 14.36,-4.08 21.24,-8.55 4.58,-2.98 13.1,-10.26 11.65,-17.23 -7.37,-3.67 -20.42,8.33 -31.14,11.8l1.07 -7.45c5.41,-4.01 12.03,-4.72 18.66,-10.32 4.53,-3.83 11.43,-9.1 9.34,-17.7 -9.52,-1.24 -15.32,8.81 -21.8,14.09 -0.18,0.14 -0.47,0.38 -0.62,0.51 -0.16,0.13 -0.47,0.44 -0.59,0.55 -0.13,0.11 -0.48,0.77 -0.57,0.58 -0.09,-0.19 -0.38,0.38 -0.56,0.59z"/>
 </g>
</svg>
