<?xml version="1.0" encoding="UTF-8"?>
<!DOCTYPE svg PUBLIC "-//W3C//DTD SVG 1.1//EN" "http://www.w3.org/Graphics/SVG/1.1/DTD/svg11.dtd">
<!-- Creator: CorelDRAW -->
<svg xmlns="http://www.w3.org/2000/svg" xml:space="preserve" width="8.0916mm" height="7.3619mm" version="1.1" style="shape-rendering:geometricPrecision; text-rendering:geometricPrecision; image-rendering:optimizeQuality; fill-rule:evenodd; clip-rule:evenodd"
viewBox="0 0 64.24 58.45"
 xmlns:xlink="http://www.w3.org/1999/xlink"
 xmlns:xodm="http://www.corel.com/coreldraw/odm/2003">
 <defs>
  <style type="text/css">
   <![CDATA[
    .fil0 {fill:white}
   ]]>
  </style>
 </defs>
 <g id="Layer_x0020_1">
  <metadata id="CorelCorpID_0Corel-Layer"/>
  <path class="fil0" d="M25.03 0.18c-1,0.68 0.05,1.68 -1.07,5.69 -0.46,1.65 -1.06,3.65 -1.24,5.5 -0.61,6.34 2.54,15.15 8.75,18.16 8.83,4.28 21.05,-5.46 10.07,-19.37 -6.06,-7.68 -10.83,-6.15 -14.24,-9.28 -0.43,-0.4 -1.46,-1.23 -2.27,-0.68zm26.36 31.73c-6.68,0.74 -14.78,5.47 -15.77,10.99 -0.64,3.55 -1.24,6.4 2.32,10.11 7.31,7.62 20.05,-0.84 23.4,-11.06 0.57,-1.74 0.88,-3.56 1.46,-5.26 0.34,-0.99 2.71,-3.76 0.49,-4.11 -1.19,-0.19 -1.69,0.43 -3.07,0.31 -2.02,-0.18 -5.04,-1.4 -8.85,-0.98zm-35.09 -5.36c-1.65,0.76 -0.43,1.07 -3.69,2.85 -4.32,2.36 -4.51,2.42 -7.69,5.75 -1.05,1.1 -1.94,2.66 -2.67,4.06 -9.77,18.98 15.01,27.74 18.85,8.24 1.55,-7.9 -0.25,-10.89 -2.67,-16.8 -0.63,-1.54 -0.21,-4.99 -2.13,-4.1zm47.44 6.61c-0.07,-0.03 -0.18,-0.15 -0.23,-0.07 -0.05,0.07 -0.17,-0.06 -0.23,-0.07 -0.39,-0.05 -0.22,-0.08 -0.72,-0.07 -0.81,0.03 -0.68,0.17 -1.37,0.25 -2.92,0.33 -7.86,-2.66 -16.69,2.5 -4.73,2.76 -9.03,9.22 -4.1,15.39 3.91,4.9 11.35,3.6 15.92,-1.76 6.36,-7.45 4.86,-11.99 6.65,-14.03 0.63,-0.72 1.22,-1 0.77,-2.14zm-38.5 -32.46c-0.62,1.41 0.34,1.28 -0.66,5.02 -0.45,1.68 -0.86,3.06 -0.98,4.9 -0.34,5.29 2.68,13.28 7.92,15.73 9.14,4.28 18.54,-6.91 8.54,-17.06 -2.22,-2.25 -3.23,-3.45 -6.85,-5.04 -1.44,-0.63 -5.08,-1.75 -6.09,-2.7 -0.69,-0.65 -0.84,-1.26 -1.88,-0.86zm-8.2 26.22c-1.03,0.11 -1.2,0.46 -1.71,1.07 -2.7,3.26 -6.74,2.3 -10.81,10.12 -3.27,6.29 -3.03,13.47 2.87,16.51 7,3.61 12.53,-2.51 13.42,-8.53 0.98,-6.57 -0.25,-9.17 -2.54,-14.5 -0.8,-1.86 -0.65,-3.49 -1.24,-4.67zm33.28 25.29c3.03,-0.25 8.1,-5.22 8.5,-8.1 -1.66,0.47 -3.21,2.69 -4.43,3.83 -1.16,1.08 -3.76,3.19 -4.08,4.28zm-7.61 -36.21c0.18,-3.21 -4.78,-8.94 -7.1,-9.3 0.22,1.36 2.5,3.59 3.35,4.74 0.81,1.09 2.64,4.2 3.75,4.56zm-24.56 34.03c1.84,-1.25 3.43,-10.04 1.5,-11.44 -0.69,0.98 -0.71,4.31 -0.92,5.76 -0.2,1.4 -1.17,4.66 -0.58,5.67z"/>
 </g>
</svg>
