<?xml version="1.0" encoding="UTF-8"?>
<!DOCTYPE svg PUBLIC "-//W3C//DTD SVG 1.1//EN" "http://www.w3.org/Graphics/SVG/1.1/DTD/svg11.dtd">
<!-- Creator: CorelDRAW -->
<svg xmlns="http://www.w3.org/2000/svg" xml:space="preserve" width="15.4178mm" height="15.5871mm" version="1.1" style="shape-rendering:geometricPrecision; text-rendering:geometricPrecision; image-rendering:optimizeQuality; fill-rule:evenodd; clip-rule:evenodd"
viewBox="0 0 632.84 639.79"
 xmlns:xlink="http://www.w3.org/1999/xlink"
 xmlns:xodm="http://www.corel.com/coreldraw/odm/2003">
 <defs>
  <style type="text/css">
   <![CDATA[
    .fil0 {fill:#E6E6E6}
   ]]>
  </style>
 </defs>
 <g id="Layer_x0020_1">
  <metadata id="CorelCorpID_0Corel-Layer"/>
  <path class="fil0" d="M39.2 504.17c21.7,4.82 29.27,4.53 51.98,6.41l-17.89 32.77c-10.1,-7.83 -29.38,-29.28 -34.09,-39.18zm337.85 -194.2c18.42,55.87 32.03,94.54 4.29,161.83 -4.72,11.44 -16.72,34.77 -23.88,40.95 -3.27,-20.88 -3.79,-57.27 -22.51,-52.59 -4.06,12.62 9.82,27.07 8.48,62.45 -0.55,14.29 -6.98,15.22 -15.3,22.09 -36.79,30.39 -43.56,33.07 -71.88,18.32 -30.65,-15.97 -27.75,-32.12 -43.89,-28.08 -5.57,18.72 35.19,40.11 49.39,46.17 -12.4,8.5 -44.66,10.16 -61.88,10.48 5.18,-52.85 -16.07,-60.26 -28.09,-98.38l41.43 -18.24c5.99,7.32 22.37,28.88 38.32,24.18 2.5,-11.26 -1.08,-10.49 -10.33,-16.11 -7.4,-4.5 -10.26,-6.92 -15.26,-13.48 3.6,-4.94 20.13,-13.04 26.53,-17 10.56,-6.53 18.04,-12.35 27.87,-18.17 12.98,14.16 11.92,43.24 24.02,31.67 8.57,-12.66 -8.9,-32.38 -12.25,-43.08 8,-3.81 23.51,-18.7 29.93,-25.12l25.92 -28.44c4,8.11 4.92,28.43 12.12,31.24 14.74,5.74 6.03,-22.22 3.62,-29.22 -10.43,-30.32 -4.47,-7.51 9.8,-53.64l3.56 -7.84zm-268.55 68.26c14.06,-31.66 159.39,-104.11 174.15,-70.04 5.38,12.42 -15.15,39.4 -19.89,41.48 -5.19,2.28 -21.44,0.38 -29.44,1.65 -23.73,3.75 -51.78,14.44 -73.51,23.2 -19.77,7.98 -32.04,15.22 -51.31,3.71zm271.83 -91.62c154.71,-16.95 176.37,180.3 53.78,215.98 -14.6,4.25 -39.91,8.89 -53.03,1.59 6.15,-15.49 11.95,-19.49 20.3,-47.09 21.42,-70.87 4.24,-114.23 -21.05,-170.48zm-266.83 156c3.28,15.95 -2.8,28.58 -8.56,41.49 -3.54,7.93 -3.8,9.82 -7.95,11.43 -41.37,7.02 -85.71,-7.66 -82.81,-49.62 3.13,-45.41 56.51,-95.43 88.37,-119.49 39,-29.45 90.74,-55.86 140.17,-68.17 35.62,-8.87 92.66,-13.16 111.55,12.98 23.04,31.88 -8.8,79.33 -24.68,97.66 -36.09,41.65 -112.35,98.72 -165.88,111.03 -5.15,-10.2 -12.18,-22.86 -9.85,-37.9 2.1,-13.51 7.24,-9.61 28.2,-19.64 40.87,-19.56 84.91,-47.57 108.23,-85.49 39.59,-64.37 -68.7,-70.52 -167.52,7.92 -17.75,14.1 -68.14,57.74 -47.27,86.38 6.87,9.42 22.7,10.89 37.99,11.41zm505.13 -46.25c-0.06,36.37 -11.27,70.16 -26.8,95.86 -43.62,72.17 -129.71,106.37 -212.5,82.93 -15.27,-4.32 -36.43,-13.06 -42.35,-20.27 10.65,-7.84 19.05,-17.54 27.99,-28.19 3.23,-3.85 5.91,-8.12 8.41,-11.02 25.12,7.95 37.77,14.43 69.08,11.5 123.17,-11.51 161.16,-172.57 63.04,-239.02 -16.61,-11.24 -35.77,-20.02 -59.15,-22.89 -41.02,-5.04 -54.92,7.76 -72.83,10.41 -11.94,-17.82 -19.48,-28.09 -44.14,-34.13l4.16 -3.92c1.55,-1.2 2.54,-1.76 4.49,-2.89 125.21,-71.81 280.8,17.36 280.59,161.63zm-564.19 -267.96c41.36,10.44 100.56,48.84 132.85,79.59 9.21,8.77 22.91,30.08 30.19,42.18l-27.23 10.38c-9.67,-14.72 -39.65,-42.63 -54.75,-59.26 -6.01,-6.62 -11.64,-18.11 -22.24,-14.11 -7.62,9.74 4.24,14.55 10.1,20.73l54.02 58.29 -19.72 9.63c-16.08,-18.94 -24.9,-19.04 -60.71,-65.23 -14.98,-19.32 -34.83,-52.69 -42.52,-82.19zm136.85 -109.55c59.96,40.84 88.7,122.35 89.11,196.6 0.12,22.71 3.98,23.26 -18.34,24.2 -5.71,-10.37 -21.86,-69.51 -27.24,-88.31 -3.28,-11.44 -3.33,-23.69 -17.2,-20.51 -3.57,14.14 24.91,90.75 29.61,112.06l-14.38 3.42c-10.85,-15.13 -18.87,-23.63 -27.67,-43.41 -23.42,-52.62 -31.09,-134.85 -13.89,-184.04zm140.82 203.08c1.51,-23.97 27.5,-72.54 17.15,-84.35 -12.08,-0.36 -11.41,10.46 -14.83,22.38l-16.94 59.79c-5.13,18.44 -3.33,17.43 -23.57,17.65 -0.11,-26.17 -1.73,-40.17 6.26,-64.34 11.59,-35.09 25.62,-63.06 45.54,-93.26 6.5,-9.86 23.86,-34.69 30.96,-39.42 6.09,48.38 1.85,111 -10.31,158.81 -2.93,11.5 -5.2,8.92 -15.62,13.55 -6.67,2.96 -13.14,6.72 -18.64,9.17zm-149.52 -36.66c-2.63,-2.67 -9.72,-7.91 -14.11,-11.46 -5.48,-4.42 -10.27,-7.66 -15.99,-11.47 -11.7,-7.81 -21.52,-14.63 -33.74,-21.05 -13.28,-6.97 -63.57,-33.37 -79.08,-29.38 -9.37,18.51 29.3,83.13 38.16,95.89 16.16,23.27 47.18,61.06 66.31,72.63 -3.06,5.25 -45.46,31.84 -54.48,38.56 -6.63,4.94 -10.8,9.19 -16.86,14.16 -19.87,16.29 -41.67,38.92 -56.71,65.77 -20.54,36.67 -21.9,57.35 -1.09,92.83 10.77,18.37 37.11,58.6 55.98,66.77 -0.21,24.3 -3.18,29.26 8.69,49.49 7.43,12.65 17.92,21.45 33.12,27.2 51.62,19.53 81.67,-29.69 81.67,-29.69 29.42,-0.53 47.48,-2.4 73.88,-11.03 23.59,-7.72 37.54,-17.64 55.86,-28.47 31.67,11.95 46.92,29.62 104.16,30.46 155.72,2.26 250.32,-163 181.92,-292.5 -12.89,-24.4 -33.97,-49.87 -51.68,-63.42 -52.09,-39.86 -98.48,-52.69 -178.39,-38.6 5.11,-31.63 11.2,-57.37 12.59,-91.19 0.86,-20.86 3.22,-82.33 -9.1,-93.57 -7.31,-2.83 -24.53,21.12 -29.45,27.31 -40.82,51.36 -61.46,109.86 -64.77,113.71 -11.51,-32.41 -6.7,-43.08 -32.13,-86.05 -14.88,-25.13 -35.81,-48.71 -56.63,-63.99 -22.03,-16.16 -20.83,-7.38 -25.58,18.01 -6.74,36 -8.8,74.95 -3.4,111.2 2.28,15.27 9.91,37.23 10.87,47.9z"/>
 </g>
</svg>
