<?xml version="1.0" encoding="UTF-8"?>
<!DOCTYPE svg PUBLIC "-//W3C//DTD SVG 1.1//EN" "http://www.w3.org/Graphics/SVG/1.1/DTD/svg11.dtd">
<!-- Creator: CorelDRAW -->
<svg xmlns="http://www.w3.org/2000/svg" xml:space="preserve" width="11.8654mm" height="16.9947mm" version="1.1" style="shape-rendering:geometricPrecision; text-rendering:geometricPrecision; image-rendering:optimizeQuality; fill-rule:evenodd; clip-rule:evenodd"
viewBox="0 0 160.53 229.93"
 xmlns:xlink="http://www.w3.org/1999/xlink"
 xmlns:xodm="http://www.corel.com/coreldraw/odm/2003">
 <defs>
  <style type="text/css">
   <![CDATA[
    .fil0 {fill:white}
   ]]>
  </style>
 </defs>
 <g id="Layer_x0020_1">
  <metadata id="CorelCorpID_0Corel-Layer"/>
  <path class="fil0" d="M94.65 47.96c5.11,6.18 17.98,5.91 28.97,10.11l3.89 2c-5.67,-1.28 -6.83,-2.9 -17.08,-4.71 -11.43,-2.03 -9.04,-2.11 -16.07,-6.11 0.72,1.53 1.52,2.27 2.18,4.02 -1.43,-0.78 -0.08,0.16 -0.93,-0.69l-2.16 -2.79c5.62,20.61 28.88,22.7 41.67,14.16 -0.01,-11.68 -12.59,-27.31 -29.64,-24.28 -4.29,0.76 -12.77,4.97 -10.96,6.12 0.03,0.65 -0.62,0.28 1.47,-0.03l8.47 -0.65c-2.04,1.27 -7.28,0.56 -9.15,1.75 5.25,2.98 13.86,4.03 19.97,6.01 5.87,1.91 13.26,4.85 16.96,9.62 -0.92,-0.37 -1.61,-0.69 -2.47,-1.18 -2.32,-1.35 -0.85,-0.56 -1.09,-1.03 -1.05,-1.98 -10.96,-5.53 -13.28,-6.21 -10.65,-3.1 -8.15,-1.35 -20.74,-6.1zm27.03 22.04c-4.36,0.2 -6.62,0.07 -10.83,-0.74 1.18,1.93 3.64,3.84 5.42,5.23 1.64,1.28 2.36,0.18 7.4,-0.97 -0.28,-0.99 -1.45,-2.89 -1.99,-3.52zm-92.05 -0.83c3.14,0.97 4.91,2.02 8.5,2.5 2.14,0.28 8.31,0.71 9.88,-0.2 -2,-0.95 -3.47,-0.65 -9.24,-3.58 -2.83,-1.44 -5.47,-3.36 -8.38,-4.76 -2.41,-1.16 -15.5,-8.06 -16.95,-9.34 4.73,0.08 13.64,5.59 17.1,7.93 4.9,3.31 10.36,6.61 16.93,8.54 0.91,-1.37 -0.98,0.35 0,-1.22 0.62,0.42 0.96,0.6 1.75,1.01 -1.11,-6.32 -3.29,-8.72 -6.53,-12.26 -1.44,-1.58 -2.77,-1.96 -3.67,-3.31 7.59,2.55 9.62,11.77 10.95,14.58 0.17,-4.86 -2.38,-8.87 -4.57,-11.93 -2.07,-2.88 -5.46,-5.92 -8.97,-7.41 -8.63,-3.67 -19.37,-1.44 -24.98,3.94 -0.71,3.96 2.62,9.39 4.41,12.09 4.94,7.43 11.59,12.58 21.32,12.12 7.39,-0.35 10.17,-5.09 10.89,-5.38 -3.44,-0.04 -5.91,0.88 -10.01,0.17 -2.29,-0.4 -6.97,-1.46 -8.44,-3.51zm76.27 -1.51c1.31,1.84 8.41,8.45 10.45,8.65 -0.62,-1.59 -6.92,-7.63 -10.45,-8.65zm28.61 -13.58c0.64,3.78 1.84,4.44 3.6,6.75 1.55,2.03 3.06,3.73 4.74,5.94 1.65,2.17 8.22,10.75 9,12.71 -0.11,-0.06 -0.26,-0.05 -0.31,-0.22l-0.57 -0.45c-2.49,-2.37 -9.31,-12.8 -14.02,-17 -0.41,3.19 5.71,7.88 7.97,12.34 -1.8,-0.84 -7.03,-7.69 -8.43,-9.22 -2.91,1.04 -3.79,2.13 -10.5,4.31l-2.84 0.99c0.48,0.75 1.15,2.07 1.52,2.95 5.21,-0.69 10.68,1.15 14.76,3.95 4.19,2.88 8.25,9.87 9.04,10.22 2.71,1.21 9.2,0.54 10.83,-0.76 1.11,-11.37 -10.6,-30.58 -24.79,-32.52zm-61.44 37.29c1.77,-2.32 5.44,-11.07 11.97,-16.4 1.69,-1.38 3.57,-3.75 6.49,-3.61l0.91 3.08 1.83 -0.67c-0.72,-8.18 -9.14,-31.96 -12.73,-40.06 -2.91,-6.58 -6.09,-12.06 -9.6,-17.05 -1.92,-2.72 -3.7,-5.13 -5.62,-7.51 -1.69,-2.1 -4.25,-5.72 -6.53,-6.99 -0.6,0.33 -1.32,0.89 -1.86,1.41 -0.85,0.79 -0.78,0.73 -1.27,1.84 12.13,6.64 29.46,36.84 28.47,47.13 -0.34,3.52 -5.84,9.51 -7.6,11.23 -8.1,7.92 -31.15,17.32 -33.89,22.61 1.89,-1.18 4.92,-3.88 8.85,-6.22 6.22,-3.7 14.23,-7.19 20.23,-11.37 1.37,-0.95 3.3,-2.34 4.45,-3.35 0.9,-0.79 1.14,-1.29 2.03,-2.05 2.76,-2.33 7.64,-11.01 10.09,-2.14 2.54,9.23 -2.7,8.98 -10.67,20 -1.72,2.38 -4.71,7.2 -5.55,10.1zm18.52 -16l-0.89 -3.36c-4.41,1.6 -15.59,15.32 -16.83,20.35 1.07,0.75 1.18,0.91 2.05,1.97 0.74,0.91 1.4,1.5 2.08,2.42 1.24,1.68 2.4,3.69 3.61,5.15 -1.09,-7.03 -1.68,-9.53 1.17,-16.03 2.74,-6.25 6.74,-8.37 8.8,-10.49zm-88.61 27.92c3.97,-0.3 7.75,1.09 12.12,0.71 3.9,-0.34 7.68,-1.06 11.08,-2.2 3.26,-1.09 6.26,-2.47 8.82,-4.29 4.4,-3.13 5.79,-5.75 6.47,-6.14 -3.45,2.11 -5.11,4.31 -10.38,6.76 -3.85,1.79 -9.08,3.82 -13.84,4.36l0.68 -0.49c0.69,-0.37 0.28,-0.22 1.01,-0.49l5.68 -1.67c2.31,-0.81 4.41,-1.75 6.43,-2.98 2.23,-1.36 10.29,-6.33 11,-7.75 -3.71,-2.81 -11.38,-3.65 -16.72,-2.78 -8.68,1.43 -10.79,4.76 -14.55,6.31 0.92,-1.85 4.33,-3.81 6.34,-4.77 5.48,-2.62 11.77,-3.54 17.84,-2.3 2.98,0.6 5.45,2.07 7.74,2.51 -3.92,-2.07 -5.04,-3.88 -11.64,-4.64 -9.01,-1.03 -19.62,4.72 -23.79,10.16 -1.36,1.77 -5.77,7.56 -6.37,9.79 8.43,12.03 39.2,11.01 41.65,-11.13 -2.23,2.02 -1.81,3.31 -6.93,6.75 -6.28,4.21 -12.88,6.52 -20.98,6.16 -4.76,-0.21 -7.74,-1.22 -11.69,-1.89zm116.09 -24.39c2.49,2.22 4.57,3.61 6.33,5.72 0.88,1.05 1.03,0.97 2.12,1.98 0.93,0.86 1.11,1.4 1.85,2.27 1.66,1.95 4.36,5.13 5.27,7.39 -0.1,-0.07 -0.24,-0.07 -0.29,-0.24 -0.05,-0.17 -0.22,-0.17 -0.28,-0.23l-6.97 -8.36c-1.93,-2.12 -7.06,-5.72 -8.48,-7.17l1.31 7.07c-1.26,-1.25 -2.36,-6.72 -2.42,-7.38l-0.11 9c-0.47,-0.65 -0.19,-0.08 -0.54,-1.09 -0.66,-1.89 -0.21,-6.63 -0.14,-8.63 -5.41,9.04 3.96,27.13 16.8,32.94 1.92,0.87 4.17,1.69 6.46,2.1 4.28,0.77 3.67,-0.35 4.79,-0.44 6.4,-0.52 7.23,-29.12 -9.44,-36.64 -4.42,-2 -10.46,-2.42 -15.19,-0.87 5.46,-0.04 8.77,-0.12 13.57,2.02 3.72,1.65 7.32,4.43 8.73,7.68 -1.62,-0.88 -3.11,-4.19 -9.32,-7.03 -3.41,-1.56 -9.8,-2.58 -13.97,-1.84 0.19,0.44 -0.11,-0.09 0.59,0.46l0.86 0.72c5.65,4.68 4.99,1.99 12.37,11.05 3.17,3.88 7.8,11.42 9.47,17.6 -2.74,-2.24 -7.95,-19.77 -23.37,-28.06zm-27.78 10.21c-0.01,-4.72 1.26,-7.84 1.57,-11.62l-3.73 4.84c-6.18,8.53 -4.2,14.18 -3.2,21.43 -1.23,-3.78 -2.34,-8.31 -1.52,-12.96 0.55,-3.11 3.24,-9.05 4.66,-10.51 -2.27,1.57 -5.04,7.35 -5.72,10.95 -2.33,12.34 6.44,29.06 18.99,33.28 4.23,1.42 6.25,-3.31 8.23,-7.61 6.13,-13.34 2.34,-31.41 -9.09,-37.49 0.65,0.5 1,1.11 1.52,1.78 4.44,5.71 7.97,11 8.26,19.31 -0.32,-0.46 -0.26,-0.32 -0.54,-1.14 -0.61,-1.83 -0.28,-2.65 -1.83,-6.86 -1.1,-2.99 -3.59,-7.38 -5.61,-9.56 -1.04,-1.12 -1.55,-1.28 -2.52,-2.39 -1.36,-1.57 -1.29,-1.19 -2.63,-2.3 -1.45,-1.19 -1.3,-2.18 -2.92,-2.16 -1.43,3.44 -1.01,12.91 -0.42,17.01 0.89,6.22 2.98,9.93 4.25,15.09 -0.1,-0.08 -0.25,-0.08 -0.3,-0.26 -0.05,-0.18 -0.22,-0.19 -0.28,-0.27 -1.74,-2.11 -3.53,-9.12 -4.06,-11.74 -1.09,-5.4 -1.29,-10.4 -0.9,-15.97 -2.86,5.11 -0.36,18.45 1.38,23.74 3.79,11.53 9.09,13.54 10.16,17.41 -2.63,-1.56 -7.74,-9.08 -9.53,-13.15 -2.43,-5.52 -4.18,-11.99 -4.19,-18.86zm-20.44 8.91c-1.29,2.4 -4.66,11.08 -5.58,14.56l-1.16 2.69c0.49,-3.9 2.06,-7.77 3.43,-11.02 1.07,-2.55 3.31,-7.29 3.14,-10.41l-2.48 0.89c0.51,-1.09 0.71,-0.7 1.91,-1.47 -4.61,0.48 -10.31,4.66 -11.91,6.95 -6.84,9.81 -6.53,17.51 -0.32,28.57 1.31,2.33 7.08,10.25 8.89,10.28 2.84,0.05 12.06,-11.7 14.41,-18.68 3.93,-11.64 -0.98,-18.33 -6.88,-23.97 0.5,1.72 1.48,3.19 2.3,5.04 0.78,1.76 1.59,3.98 1.92,6.02 -1.62,-1.62 -2.55,-6.95 -5.97,-12.2l0.57 5.66c-0.68,-1.52 -0.42,-1.81 -1.01,-2.67l-4.81 16.77c-0.75,2.71 -1.51,6.55 -1.61,9.44 -0.15,4.18 0.3,6.47 0.51,10.06 -0.4,-3.29 -1.26,-5.26 -1.22,-9.32 0.1,-10.94 4.63,-18.5 5.87,-27.19zm30.94 27.81c0.18,9.58 5.21,14.23 10.93,17.82 2.73,1.71 18.92,6.33 22.56,6.21 2.38,-2.86 2.23,-8.9 1.44,-13.02 -1.97,-10.35 -13.09,-19.41 -25,-18.78 -0.84,1.55 -2.16,3.46 -2.68,4.69 4.3,2.22 6.15,1.79 12.58,6.26 1.83,1.27 3.73,2.79 5.28,4.17 1.18,1.05 3.8,3.93 4.53,5.81 -2.15,-1.06 -0.97,-0.97 -2.52,-2.5 -1.22,-1.2 -1.24,-1.15 -2.43,-2.47 -2.52,-2.78 -15.82,-11.02 -18.47,-10.05 0.67,1.52 8.11,2.54 14.53,7.82 3.43,2.82 9.56,7.73 10.89,12.46 -1.58,-1.34 -3.07,-4.1 -4.33,-5.49 -4.73,-5.2 -10.28,-8.9 -16.92,-11.74 -7.71,-3.29 -4.19,0.1 -10.37,-1.19zm-50.46 -12.51c-6.9,-4.46 -16.07,2.53 -18.83,3.52 0.66,-1.16 0.68,-1.08 2.18,-2.02 4.25,-2.65 6.03,-2.47 7.66,-3.62 -13.53,1.14 -21.57,13.34 -21.96,26.32 -0.06,2.2 0.17,5.03 0.79,7.1 0.61,2.03 2.09,4.12 3.8,4.32 6.5,0.77 18.68,-8.04 21.36,-10.53 2.41,-2.24 9.26,-10.69 7.51,-15.02 -0.84,-2.07 -1.3,-4.03 -1.87,-6.26 -5.4,1.75 -14.06,10.92 -18.16,15.69l-1.69 1.26c1.44,-3.31 6.61,-7.71 8.94,-10.39 0.69,-0.79 1.5,-1.46 2.4,-2.13 1.11,-0.82 1.67,-1.44 2.71,-2.22l5.51 -3.98c-1.85,-0.85 -7.52,4.31 -8.74,5.28 -4.64,3.68 -13.21,12.95 -14.76,18.3 -0.41,1.41 0.29,0.38 -0.74,2.22 -0.93,1.66 -1.55,3.9 -2.47,5.41 0.33,-8.09 8.13,-18.62 13.28,-23.66 1.25,-1.23 2.43,-2.51 3.87,-3.53 5.51,-3.93 2.31,-2.17 8,-5.13 0.51,-0.26 0.05,0.03 0.54,-0.31 0.78,-0.53 0.22,-0.02 0.69,-0.63zm74.81 45.36c1.14,0.7 1.46,1.12 2.45,1.55 0.27,-3.53 -0.96,-8.25 -2.91,-10.66 -1.03,-1.28 -8.97,-3.05 -10.51,-2.57l0.28 -1.05 -4.26 -2c-2.07,-1.08 -3.32,-2.93 -4.8,-3.86 -0.07,-0.04 -0.19,-0.09 -0.26,-0.13 -0.06,-0.04 -0.18,-0.09 -0.23,-0.13l-0.35 -0.27c-0.06,-0.07 -1.11,-1.88 -1.35,-2.16 -2.1,-2.54 -0.99,-0.4 -3.04,-5.56l-0.77 -2.32c-2.49,2.2 -1.15,6.58 -0.25,7.91 0.98,1.45 0.51,0.48 0.8,0.43 2.19,-0.35 -0.6,-0.92 0.52,-0.35 -0.62,0.99 -0.35,1.92 0.26,2.8 1.21,1.73 1.18,1.23 2.36,0.49 -1.39,1.01 -0.5,0.26 -0.91,1.23 2.31,2.83 4.6,4.62 8.11,7.15 5.72,4.12 4.05,1.51 10.38,0.8l-5.38 1.85 3.85 2.38c1.3,0.19 3.06,-0.61 5.06,-0.41l-4.47 0.72c0.08,0.07 0.21,0.33 0.26,0.25 0.03,-0.05 0.78,1.17 2.99,1.94 -0.83,0.46 -0.69,-0.37 -1.92,0.7l0.87 1.38c-1.32,-2.21 -1.88,-3.18 -4.78,-4.32 0.17,1.6 0.35,1.75 0.59,2.99 -1.08,-3.56 -0.46,-3.5 -4.61,-5.21l0.48 4.43c-0.3,-3.86 -0.92,-5.89 -4.91,-7.15l0.37 5.92c-0.11,-0.85 -0.48,-1.62 -0.58,-2.72 -0.52,-5.3 1.9,-1.95 -4.06,-6.84l-0.34 6.24c-0.06,-1.54 0,-5.6 -0.35,-6.64 -0.28,-0.82 -2.36,-3.23 -3.71,-4.15 -0.03,1.74 0.12,3.75 -0.43,4.98 0.63,-3.15 0,-6.78 -1.58,-9.2l-0.44 -0.58c-0.09,13.23 6.31,21.15 17.1,24.26 5.8,1.68 7.09,0.77 12.52,0.23l-1.32 -1.6c-0.08,-0.08 -0.17,-0.17 -0.24,-0.24l-0.48 -0.5zm-82.25 15.46c3.43,3.09 5.92,5.62 12.62,5.55 4.97,-0.05 10.25,-2.02 13.99,-4.39 8.05,-5.1 12.93,-12.59 13.81,-22.55 -2.56,3.71 -2.77,4.18 -5.84,7.54 -6.21,6.78 -16.12,13.56 -26.61,13.4l0.66 -0.31c1.49,-0.56 4.85,-0.96 8.73,-2.44 6.9,-2.64 16.69,-9.68 19.74,-15.58 -2.32,1.79 -4.09,3.66 -6.82,5.57 -10.93,7.62 -22.81,10.79 -25.22,12.52l-3.72 1.18c2.96,-3.39 17.2,-6.28 30.46,-16.72 1.52,-1.19 2.8,-2.22 4.19,-3.62l3.09 -3.24c-5.45,-3.85 -10.97,-3.82 -17.72,-1.5 -9.18,3.16 -10.83,7.28 -13.45,8.58 4.61,-7.16 14.59,-11.72 24.59,-10.69l-1.56 -0.64c-11.92,-2.66 -31.25,10.09 -30.93,27.33zm43.78 -4.27c-0.13,0.44 -0.19,1.25 -0.24,1.71 -0.17,1.63 -0.2,2.87 -0.09,4.5 0.44,6.51 4.83,14.16 9.45,17.55l5.49 3.54c6.88,3.61 14.88,2.66 20.55,-1.54 5.95,-4.41 1.01,-13.63 -2.58,-18.48 -2.24,-3.03 -2.17,-2.35 -4.3,-4.73 -2.18,-2.44 -7.41,-5.41 -11.47,-6.52 -2.53,-0.7 -5.48,-1.06 -8.2,-0.91 -1.6,0.09 -4,0.42 -5.36,1.2l-1.37 1.08c4.17,-0.11 9.39,0.58 13.22,2.31 1.06,0.48 0.65,0.23 1.37,0.83 -4.22,-0.7 -5.57,-2.44 -13.91,-2.79 1.14,2.05 0.78,0.74 1.54,1.68 1.47,1.83 -0.67,-1.63 0.16,0.47 0.95,2.41 5.1,5.35 7.3,7.44l1.35 1.56c-2.88,-1.11 -6.14,-4.9 -7.61,-5.63 1.1,2.5 2.44,4 3.97,5.98 2.4,3.1 6.87,7.3 10.28,9.39l6.27 3.41c0.06,0.16 0.21,0.13 0.31,0.21 -5.12,-1.46 -11.91,-5.72 -15.44,-9.51l-5.33 -7c-1.11,-1.85 -4.06,-6.05 -4.27,-7.55l-1.1 1.79zm-6.98 50.95c1.01,0.74 1.82,2.44 2.54,3.62 0.71,1.16 1.62,2.38 2.41,3.4 2.62,-1.71 4.76,-7.8 5.27,-11.16 0.75,-4.93 -0.28,-10.32 -2.01,-14.36 -3.12,-7.29 -7.77,-13.94 -14.95,-16.99 0.24,2.98 1.18,4.33 2.25,6.94 -1.35,-1.61 -1.59,-3.46 -2.11,-5.33l-0.77 -1.8c-2.49,6.96 1.16,20.85 4.2,28.19 1.04,2.5 3.08,5.26 3.15,7.49zm0 0c-1.41,-0.82 -3.08,-4.97 -3.71,-6.56 -1.01,-2.53 -1.86,-4.43 -2.77,-7.07 -3.91,-11.35 -1.77,-9.68 -3.08,-16.14 -1.34,13.32 5.23,21.83 6.51,26.65l-2.18 -3.13c-4.37,-8.64 -6.61,-18.49 -4.81,-28.35l-0.51 0.54c-2.32,2.38 -1.13,-1.28 -1.68,0.75 -0.02,0.06 -0.11,-0.08 -0.17,-0.08 -5.5,6.18 -8.61,17.55 -3.51,26.76 3.61,6.52 12.72,14.87 19.89,14.63 -0.14,-1.26 -1.7,-2.7 -2.53,-3.72l-1.44 -4.28zm-7.6 -44.39c-4,1.54 -4.34,3.28 -10.78,4.61 -6.4,1.32 -13.21,0.46 -17.69,-4.14 -1.81,-1.85 -2.49,-2.08 -2,-5.7 0.6,-4.5 1.89,-7.68 3.81,-11.33 3.02,-5.73 9.08,-11.31 16.39,-14.03 9.55,-3.55 18.47,-1.54 22.83,4.54 1.94,-2.67 3.9,-16.33 4.34,-20.68 0.28,-2.76 1.17,-9.71 0.19,-11.93l-5.1 -7.14c-0.1,9.94 -4.54,17.59 -11.14,24.22 -1.2,1.21 -2.95,3.3 -4.31,4.31 -2.63,1.95 -3.91,1.66 -5.94,-0.6l-7.99 -9.79 -3.1 5.24c-0.76,1.11 -0.94,1.25 -1.78,2.32 -5.37,6.81 -14.1,12.23 -23.13,13.86 -6.22,1.12 -7.42,-2.74 -8.54,-8.09 -2.73,-13.06 3.93,-27.7 16.94,-32.01 5.63,-1.86 9.48,-1.13 15.1,0.11 3.05,-6 0.37,-6.36 6.94,-12.9 3.3,-3.28 7.28,-6.02 13.84,-6.29 1.5,-2.56 2.38,-5.22 4.43,-8.65 6.63,-11.09 14.14,-10.9 12.21,-20.06 -1.49,-7.05 -4.04,-2.8 -7.06,0.17 -6.32,6.19 -6.63,6.56 -15.13,11.55 -5.37,3.15 -11.72,5.46 -16.91,9.34 -1.47,1.1 -3.96,2.54 -5.11,3.73 3.11,25.45 -27.41,32.33 -42.38,19.67 -1.9,-1.61 -2.62,-3.09 -1.37,-6.2 2.19,-5.47 5.87,-9.76 10.32,-13.1 6.99,-5.26 16.33,-8.43 25.36,-5.2 2.53,0.9 4.23,2.38 6.26,3.22 2.62,-1.47 4.89,-3.66 7.32,-5.43 1.93,-1.41 5.53,-3.98 8.04,-4.75 -1.1,-1.1 -0.5,-0.55 -1.77,-0.98 -1.77,-0.6 -4.26,-1.07 -5.63,-2.16 -3.33,4.12 -4.89,6.49 -10.65,7.79 -10.61,2.4 -19.53,-3.73 -24.61,-11.91 -1.67,-2.7 -4.91,-9.66 -5.04,-13.42 -0.24,-6.91 15.76,-11.13 26.61,-6.94 7.24,2.8 15.63,11.1 14.63,22.2 3.23,2.1 9.6,3.22 13.2,1.6 6.84,-3.07 13.62,-9.07 17.71,-15.08 2.71,-3.99 0.67,-7.8 -1.05,-12.2 -3.36,-8.58 -10.36,-21.92 -16.85,-28.23 -0.94,-0.92 -1.07,-1.1 -1.9,-2.22 -2.32,-3.11 -5.8,-5.01 -8.07,-8.26 0.59,-2.65 2.39,-5.3 5.29,-5.42 3.77,-0.17 13.59,14.56 15.57,17.75 2.86,4.62 5.36,8.91 7.48,14.28 2.72,6.89 3.58,8.24 9.75,12.28 5.82,-6.05 14.2,-8.47 22.77,-6.74 4.39,0.89 7.54,2.83 10.5,5.12 3.59,2.77 4.29,4.13 7.19,8.42 11.91,0.93 17.28,5.21 22.84,15.31 1.82,3.3 8.12,19.66 2.02,22.02 -2.96,1.15 -5.96,0.92 -9.24,0.48 2.03,7.19 3.66,15.45 0.4,22.6 -1.74,3.81 -3.47,5.11 -8.88,4.26 -3.89,-0.61 -6.78,-1.81 -10.11,-3.43 -8.47,-4.14 -14.72,-13.68 -16.19,-23.28 -1.07,-6.99 0.99,-8.03 1.15,-12.1 -2.78,-2.08 -5.55,-3.9 -7.99,-6.42 -5.7,-5.87 -10.65,-8.24 -13.78,-15.78 -1.86,-4.49 -0.27,-7.5 -5.38,-9.52 3.5,9.83 4.61,19.78 7.19,27.46 0.54,1.61 0.04,1.04 1.39,1.82 2.87,1.68 5.59,2.84 8.02,4.71 4.21,3.23 8.33,7.96 10.23,15.25 2.25,8.61 0.47,14.43 -2.25,21.83 15.61,-0.14 27.64,11.81 25.65,27.77 -1.11,8.92 -3.05,6.96 -10.7,5.59 2.13,6.36 6.04,12.16 -3.33,13.17 -13.68,1.48 -27.38,-8.9 -26.69,-26.58 0.15,-3.8 0.3,-6.7 2.88,-8.08l-0.03 -3.23 -6.13 -3.53c-1.07,11.44 -2.44,22.13 -6.5,32.83 -1.5,3.97 -0.43,5.89 1.41,10.18 6.71,-0.73 8.58,-3.22 17.02,-0.25 5.26,1.85 9.65,4.75 12.46,7.68 1.16,1.2 3.12,3.78 4.24,5.62 4.52,7.41 7.14,16.24 -1.54,20.68 -7.58,3.87 -16.97,2.38 -23.72,-2.39l-5.36 -4.9c-3.3,-4.06 -5.54,-8.93 -5.93,-14.38 -0.6,-8.46 2.93,-6.79 0.36,-12.9 -0.44,-1.04 -0.88,-2.76 -1.37,-3.82 -1.51,1.75 -1.75,3.08 -2.67,5.38 -0.95,2.37 -1.89,3.77 -3.19,5.44 -4.23,5.39 -4.76,3.19 -4.53,12.55 9.7,2.25 23.35,24.46 15.56,40.3 -1.14,2.31 -2.82,4.87 -4.44,5.88 -4.83,3 -16.45,-5.75 -19.61,-9.77 -2.84,-3.62 -5.36,-8.77 -5.83,-14.76 -0.65,-8.43 2.81,-16.88 9.84,-20.64 1.34,-0.72 2.14,-0.69 2.35,-2.36 0.21,-1.65 0.15,-3.56 0.37,-5.38z"/>
 </g>
</svg>
