<?xml version="1.0" encoding="UTF-8"?>
<!DOCTYPE svg PUBLIC "-//W3C//DTD SVG 1.1//EN" "http://www.w3.org/Graphics/SVG/1.1/DTD/svg11.dtd">
<!-- Creator: CorelDRAW -->
<svg xmlns="http://www.w3.org/2000/svg" xml:space="preserve" width="7.6261mm" height="6.4931mm" version="1.1" style="shape-rendering:geometricPrecision; text-rendering:geometricPrecision; image-rendering:optimizeQuality; fill-rule:evenodd; clip-rule:evenodd"
viewBox="0 0 57.02 48.55"
 xmlns:xlink="http://www.w3.org/1999/xlink"
 xmlns:xodm="http://www.corel.com/coreldraw/odm/2003">
 <defs>
  <style type="text/css">
   <![CDATA[
    .fil0 {fill:white}
   ]]>
  </style>
 </defs>
 <g id="Layer_x0020_1">
  <metadata id="CorelCorpID_0Corel-Layer"/>
  <g id="_2478270228608">
   <path class="fil0" d="M1.76 8.32c0.99,-0.88 4.17,-2.67 5.23,-3.2 1.88,-0.94 3.88,-1.72 6.03,-2.35 4.13,-1.21 10.42,-2.08 14.41,-0.2 -0.56,0.11 -1.28,0.13 -1.87,0.22 -0.58,0.09 -1.15,0.2 -1.72,0.33 -2.44,0.57 -5.35,1.56 -7.41,2.92 -0.31,0.21 -1,0.62 -0.89,1.06 0.56,0.15 2.37,-0.8 2.94,-1.05 3.11,-1.35 6.17,-2.16 9.64,-2.6l-1.71 1.89c-1.59,1.77 -4.16,3.64 -6.21,4.63 -5.52,2.69 -11.95,2.61 -17.13,-0.68 -0.4,-0.25 -1.08,-0.68 -1.33,-0.97zm-1.76 -0.03c1.74,1.56 4,3.1 7.01,3.95 4.46,1.26 9.54,0.81 13.66,-1.36 1.21,-0.63 3.13,-1.82 4.06,-2.75 0.15,-0.15 0.22,-0.18 0.37,-0.31 0.14,-0.12 0.2,-0.23 0.33,-0.35 0.71,-0.66 1.36,-1.35 1.94,-2.14 0.21,-0.28 0.36,-0.5 0.56,-0.8 0.52,-0.78 0.5,-1.15 0.81,-1.23 0.25,-0.06 0.3,-0.01 0.51,0.09 0.03,0.93 -0.24,2.64 -0.42,3.57 -0.41,2.13 -1.04,4.19 -1.94,6.13 -0.28,0.61 -1.11,2.2 -1.22,2.77 -3.43,-0.56 -5.7,-0.18 -8.53,1.21 -0.88,0.43 -1.64,0.91 -2.43,1.45 -0.28,0.19 -0.47,0.35 -0.72,0.54 -0.12,0.09 -0.26,0.2 -0.38,0.3l-1 0.88c-0.86,0.72 -1.1,1.15 -1.59,1.6 -0.18,0.16 -0.16,0.18 -0.29,0.34l-1.15 1.42c-0.18,0.26 -0.33,0.46 -0.52,0.74 -3.14,4.63 -4.41,10.52 -1.9,15.87 0.28,0.6 0.61,1.13 0.94,1.63 0.44,0.69 1.14,1.58 1.73,2.15 0.65,0.62 1.37,1.19 2.16,1.67 3.76,2.31 8.36,1.85 11.96,-0.2 1.39,-0.79 2.5,-1.73 3.52,-2.92 0.37,-0.43 0.74,-0.97 1.01,-1.5 0.07,-0.13 0.14,-0.28 0.21,-0.42 0.03,-0.06 0.06,-0.14 0.1,-0.22 0.02,-0.05 0.03,-0.07 0.05,-0.1 0.05,-0.08 0.03,-0.05 0.07,-0.09 0.56,0.78 1.06,1.56 1.7,2.23l0.63 0.68c0.21,0.25 0.4,0.45 0.63,0.68l1.38 1.24c0.27,0.21 0.46,0.37 0.74,0.57 3.93,2.93 9.32,4.15 13.9,1.41 0.71,-0.42 1.62,-1.15 2.13,-1.8 1.48,-1.91 2.3,-3.9 2.71,-6.4 0.5,-3.1 0.26,-6.38 -0.63,-9.27 -0.73,-2.36 -1.82,-4.63 -3.35,-6.49l-1.52 -1.73c-0.66,-0.67 -1.36,-1.25 -2.1,-1.83 -1.69,-1.32 -3.95,-2.52 -6.05,-3.12 -0.72,-0.2 -3.8,-1.02 -4.39,-0.59l1.32 0.42c0.46,0.12 0.93,0.23 1.37,0.36 5.76,1.71 10.37,5.3 12.92,11.07 1.5,3.38 2.09,7.76 1.24,11.71 -0.58,2.71 -1.65,5.07 -3.83,6.48 -0.64,0.42 -1.42,0.88 -2.27,1.11 0.18,-0.27 0.48,-0.54 0.75,-0.9 0.2,-0.28 0.47,-0.7 0.63,-1.04 0.37,-0.78 0.68,-1.47 0.93,-2.36 1.04,-3.62 1.11,-8.04 0,-11.67 -0.27,-0.88 -0.55,-1.59 -0.95,-2.35 -0.26,-0.49 -1.06,-1.86 -1.55,-1.69 -0.1,0.29 0.69,1.85 0.86,2.28 0.29,0.76 0.56,1.56 0.76,2.39 1.04,4.47 0.9,11.05 -2.15,14.81l-0.6 0.61c-0.08,0.08 -0.12,0.14 -0.2,0.22 -0.3,0.28 -1.75,0.23 -2.15,0.22 -0.93,-0.04 -1.86,-0.21 -2.7,-0.45 -1.72,-0.51 -2.97,-1.24 -4.19,-2.09 -0.48,-0.33 -0.87,-0.69 -1.3,-1.05 -0.19,-0.16 -0.23,-0.16 -0.42,-0.37 -0.23,-0.26 -0.54,-0.5 -0.79,-0.78 -0.77,-0.82 -1.51,-1.63 -2.16,-2.56 -0.43,-0.62 -0.84,-1.23 -1.24,-1.9 -3.65,-6.06 -4.28,-13.6 0.05,-19.23 0.46,-0.59 0.95,-1.19 1.53,-1.66 0.62,-0.52 0.88,-0.63 1.71,-0.47 0.22,0.04 0.31,-0.01 0.65,0.02 1.96,0.22 3.3,0.65 4.75,1.53 0.63,0.38 1.3,0.84 1.8,1.34 0.16,0.16 0.27,0.22 0.43,0.36l1.15 1.21c0.08,0.09 0.12,0.12 0.2,0.21 0.66,0.79 1.21,1.62 1.82,2.47 0.12,0.16 0.54,0.94 0.81,0.67 0.34,-0.53 -0.64,-2.11 -0.88,-2.48 -0.45,-0.69 -0.96,-1.33 -1.45,-1.95 -0.12,-0.16 -0.31,-0.29 -0.45,-0.44l-1.1 -1.05c-1.9,-1.69 -5.92,-3.64 -8.51,-2.49 -0.23,0.1 -0.39,0.11 -0.63,0.21 -0.41,0.16 -0.8,0.47 -1.04,0.69 -0.2,0.18 -0.32,0.25 -0.49,0.4 -0.1,0.09 -0.12,0.14 -0.19,0.22l-0.82 0.87c-0.07,0.09 -0.09,0.13 -0.18,0.24 -2,2.49 -3.39,6.42 -3.11,10.61 0.19,2.86 1.01,5.56 2.31,8 0.21,0.4 0.4,0.73 0.62,1.11 0.2,0.34 0.45,0.71 0.62,1.05 -0.45,0.93 -1.12,1.71 -1.78,2.47 -0.39,0.45 -0.83,0.83 -1.31,1.21 -2.71,2.12 -6.8,3.44 -10.37,2.5 -1.28,-0.34 -2.38,-0.91 -3.36,-1.67 -0.32,-0.25 -0.64,-0.5 -0.87,-0.76 2.98,1.17 6.66,0.59 9.3,-0.71 0.96,-0.47 1.8,-1 2.59,-1.65 0.73,-0.6 3.33,-2.89 3.11,-3.9 -0.32,-0.06 -0.61,0.24 -0.78,0.42 -0.19,0.2 -0.4,0.36 -0.61,0.55l-1.54 1.44c-0.7,0.65 -1.51,1.21 -2.36,1.68 -2.14,1.19 -4.61,2 -7.52,1.66 -0.81,-0.09 -3.27,-0.64 -3.64,-1.08 -0.56,-0.66 -1.28,-2.02 -1.66,-3 -1,-2.59 -1.09,-5.24 -0.41,-8.04 1.88,-7.68 10.13,-15.59 18.21,-14.16 0.68,0.12 1.25,0.28 1.88,0.49 0.35,0.12 1.44,0.65 1.72,0.55 -0.2,-0.51 -1.99,-1.5 -2.83,-1.61 0.12,-0.24 0.37,-0.51 0.53,-0.76 0.17,-0.25 0.29,-0.48 0.45,-0.75 0.93,-1.51 1.6,-3.4 2.08,-5.14 0.36,-1.27 0.64,-2.69 0.76,-4.06 0.07,-0.78 0.09,-1.56 0.06,-2.34 -0.02,-0.5 -0.01,-1.81 -0.56,-1.85 -0.31,0.26 -0.29,1.05 -0.31,1.51 -0.4,-0.08 -0.65,-0.08 -0.98,-0.31 -0.22,-0.15 -0.47,-0.31 -0.75,-0.45 -4.31,-2.25 -10.21,-1.39 -14.62,-0.23 -4.33,1.14 -8.09,3.08 -11.62,5.56l-1.05 0.78c-0.07,0.06 -0.09,0.07 -0.17,0.14l-0.14 0.13z"/>
   <path class="fil0" d="M30.3 4.63c0,2.64 0.21,7.51 1.08,10.06 0.13,0.37 0.24,0.82 0.64,0.82 0.36,-0.5 -0.18,-3.67 -0.27,-4.53 -0.17,-1.64 -0.26,-3.2 -0.34,-4.84 1.14,0.41 0.67,0.35 2.08,0.54 1.32,0.18 1.22,0.27 2.11,0.45 -0.1,0.21 -0.6,0.55 -0.78,1.61 -0.31,1.79 0.61,3.12 1.62,4.31 1.7,1.99 4.67,2.97 7.05,3.74 3.66,1.18 6.75,2.42 9.8,4.55l2.77 2.04c0.37,-1.74 0.97,-2.48 0.97,-5.03 0,-3.86 -1.36,-7.5 -3.96,-10.2 -0.15,-0.15 -0.27,-0.27 -0.43,-0.41 -1.33,-1.09 -1.85,-1.56 -3.63,-2.39 -2.64,-1.23 -6.33,-1.65 -9.25,-0.79 -0.67,0.2 -2.43,0.78 -2.54,1.27 0.22,0.08 2.07,-0.46 2.48,-0.55 2.81,-0.57 5.88,-0.35 8.46,0.8 1.15,0.52 2.14,1.06 3.06,1.81 2.72,2.24 4.72,5.75 4.72,10.39 0,1.18 -0.21,2.16 -0.45,3.24 -0.16,-0.07 -0.4,-0.27 -0.55,-0.38 -2.69,-2.1 -6.58,-3.91 -9.79,-4.98 -1.89,-0.63 -4.14,-1.16 -5.75,-2.1 -0.75,-0.44 -1.12,-0.67 -1.74,-1.2 -0.6,-0.51 -0.93,-0.87 -1.38,-1.55 -0.69,-1.06 -1.13,-2.62 -0.29,-3.75 0.17,-0.23 0.22,-0.36 0.63,-0.33 1.28,0.1 2.42,-0.01 3.75,0.19 3.08,0.46 5.21,1.64 7.39,3.4 0.2,0.16 0.34,0.31 0.54,0.46 0.22,0.18 0.27,0.29 0.46,0.48 0.16,0.17 0.36,0.31 0.52,0.48l1.78 2.15c0.68,0.93 1.43,2.16 2.02,2.9 0.07,0.09 0.13,0.18 0.21,0.26 0.03,0.03 0.13,0.1 0.16,0.1 0.75,0.2 -0.54,-2.16 -0.63,-2.31 -1.11,-1.95 -1.2,-1.86 -2.3,-3.31 -0.13,-0.17 -0.26,-0.27 -0.39,-0.45 -0.31,-0.4 -1.62,-1.6 -2.08,-1.96 -0.16,-0.12 -0.28,-0.23 -0.44,-0.35 -0.32,-0.24 -0.61,-0.45 -0.96,-0.66 -2.63,-1.61 -5.94,-2.74 -9.14,-2.18 -0.46,0.08 -0.85,0.26 -1.28,0.29 -0.32,-0.49 -0.58,-0.7 -1.25,-0.9 -1.23,-0.37 -2.71,-0.28 -3.36,-0.94 -0.28,-0.28 -0.23,-0.27 -0.23,-0.78 -0,-0.98 0.01,-2.33 -0.05,-3.24 -0.06,-0.81 -0.4,-1.41 -0.68,-0.34 -0.28,1.06 -0.33,2.91 -0.33,4.05z"/>
   <path class="fil0" d="M33.68 40.84c-0.24,-0.23 -0.45,-0.44 -0.68,-0.68 -0.93,-0.99 -1.15,-1.32 -1.92,-2.33 -0.26,-0.34 -0.42,-0.67 -0.72,-0.59 -0.49,0.91 1.62,3.38 1.94,3.67 0.24,0.21 0.47,0.52 0.7,0.77l1.43 1.39c0.15,0.12 0.24,0.22 0.4,0.34 1.41,1.09 2.19,1.53 4.27,2.12 0.72,0.2 4.22,1.24 4.69,0.69 -0.07,-0.63 -3.38,-1.43 -4.03,-1.61 -2.45,-0.71 -3.09,-1.07 -4.62,-2.4 -0.6,-0.51 -0.58,-0.55 -1.09,-1.06 -0.12,-0.12 -0.24,-0.2 -0.37,-0.31z"/>
   <path class="fil0" d="M7.86 33.34c0,3.01 1.09,7.36 3.96,8.72 0.4,0.19 1.11,0.42 1.45,0.08 -0.01,-0.46 -0.9,-0.53 -1.81,-1.45 -2.3,-2.31 -3.05,-7.18 -2.13,-10.6 0.12,-0.42 0.25,-0.83 0.39,-1.24 0.05,-0.14 0.17,-0.54 0.14,-0.7 -0.07,-0.34 -0.41,-0.09 -0.51,0.02 -0.44,0.45 -0.9,1.54 -1.1,2.21 -0.27,0.91 -0.39,1.96 -0.39,2.96z"/>
  </g>
 </g>
</svg>
