<?xml version="1.0" encoding="UTF-8"?>
<!DOCTYPE svg PUBLIC "-//W3C//DTD SVG 1.1//EN" "http://www.w3.org/Graphics/SVG/1.1/DTD/svg11.dtd">
<!-- Creator: CorelDRAW -->
<svg xmlns="http://www.w3.org/2000/svg" xml:space="preserve" width="16.9662mm" height="21.8781mm" version="1.1" style="shape-rendering:geometricPrecision; text-rendering:geometricPrecision; image-rendering:optimizeQuality; fill-rule:evenodd; clip-rule:evenodd"
viewBox="0 0 326.19 420.62"
 xmlns:xlink="http://www.w3.org/1999/xlink"
 xmlns:xodm="http://www.corel.com/coreldraw/odm/2003">
 <defs>
  <style type="text/css">
   <![CDATA[
    .fil0 {fill:white}
   ]]>
  </style>
 </defs>
 <g id="Layer_x0020_1">
  <metadata id="CorelCorpID_0Corel-Layer"/>
  <path class="fil0" d="M109.83 408.65c-2.49,-7.53 10.7,-40.93 23.14,-46.13 -3.84,8.99 -4.59,5.54 -10.75,23.52 -1.59,4.64 -3.12,8.26 -5.11,12.33 -3.53,7.22 -2.8,5.3 -7.28,10.28zm-1.79 -18.16c-1.87,-2.72 -4.65,-11.89 -5.1,-16.18 -0.86,-8.15 2.76,-10.52 6.53,-14.3 12.5,-12.53 16.09,-8.06 36.92,-8.67 -6.38,5.54 -14.87,2.97 -24.77,14.21 -6.09,6.92 -8.9,15.59 -13.58,24.94zm-14.78 -50.19c3.23,-18.01 55.33,-29.52 75.73,-17.76 -4.46,1.65 -34.1,0.42 -44.38,2.04 -21.51,3.38 -22.52,10.49 -31.35,15.72zm5.22 -20.53c3.95,-6.04 23.91,-20.32 31.88,-24.26 7.15,-3.53 34.24,-4.49 43.95,-2.72l3.44 1.27c0.11,-0.24 0.5,0.28 0.72,0.45 -11.36,5.04 -29.66,5.3 -43.43,9.62 -32.45,10.18 -12.5,3.68 -36.57,15.65zm-5.82 -1.92c4.39,-10.3 12.36,-23.95 22.61,-28.13l29.61 -10.47c10.34,-2.94 9.73,0.72 10.23,1.19 -13.66,3.75 -24.12,7.76 -35.32,15.16 -5.91,3.9 -23.97,16.44 -27.14,22.25zm0.93 -30.55c-0.42,-5.56 0.68,-4.41 3.74,-7.48 6.45,-6.46 7.63,-16.53 15.92,-14.64 -2.81,5.34 -15.13,17.67 -19.66,22.12zm0.61 -23.13l8.83 -0.24 -9.21 11.58 0.38 -11.34zm35.53 -11.17c16.02,-13.83 64.09,-8.73 72.94,8.16 -26.68,-10.77 -42.63,-9.84 -72.94,-8.16zm106.86 -25.51c-11.26,-5.79 -57.87,-4.83 -72.95,-0.25 -35.89,10.89 -50.48,40.25 -47.69,25.61 0.56,-2.92 7.48,-7.5 10.34,-10.88 16.36,-19.36 13.86,-12.68 22.66,-15.91 28.58,-10.51 61.22,-5.61 87.64,1.43zm-147.24 27.5c-0.96,-1.29 -0.95,-0.16 -1.77,-3.18l-0.17 -8.07c0.23,-4.15 0.5,-7.1 1.82,-10.73 1.88,-5.15 5.32,-9.76 7.69,-14.14 -0.32,5.23 -3.12,31.58 -7.58,36.12zm-50.62 -27.35c7.5,10.17 26.34,19.98 30.41,29.85 -10.8,-5.72 -36.43,-25.95 -40.34,-42.14 5.52,3.36 5.29,5.99 9.94,12.29zm86.95 6.46c1.54,-9.96 8.13,-42.8 12.47,-48.85 1.32,21.28 -2.32,34.9 -12.47,48.85zm-50.34 10.21c-1.24,-3.94 -9.1,-17.57 -11.29,-20.68 -4.15,-5.88 -9.41,-12.41 -12.05,-20.28 4.51,2.76 13.49,12.37 17.31,16.38 5.84,6.14 7.3,14.59 6.03,24.58zm89.29 -51.86c-0.33,-5.11 0.42,-10.3 0.88,-15.39 0.73,-8.16 -1.55,-11.1 5.65,-11.7l-0.32 21.16c-2.53,2.1 -4.41,3.2 -6.21,5.93zm-67.86 18.31c-0.8,-12.01 21.68,-29.98 38.09,-34.95 -0.73,5.76 -4.08,13.12 -5.93,19.4 -8.25,27.93 1.38,19.09 -17.91,56.44l-14.2 0.51c0.98,-7.3 2.15,-19.31 3.94,-26.42 1.81,-7.16 6.04,-16.76 3.66,-23.34 -4.52,1.05 -7.17,4.4 -7.65,8.36zm74.64 -17.14c17.05,-9.68 98.27,-31.58 124.94,-16.77 -34.65,3.77 -37.98,-4.49 -88.95,8.68 -40.83,10.55 -28.97,5.01 -46.67,25.46 -4.9,5.67 -4.01,8.37 -14.12,10.22l24.81 -27.59zm-29.95 -21.88c7.39,-2.22 10.31,-5.39 19.97,-5.55 -1.25,32.85 1.07,32.48 -22.17,54.39 4.8,-23.93 3.4,-24.48 2.2,-48.83zm-41.52 20.32c3.16,-11.12 9.45,-18.13 18.35,-22.1 8.07,-3.6 22.78,-7 32.01,-6.93 -3.59,0.47 -21.07,9.57 -26.83,12.04 -16.3,6.98 -16.49,13.11 -23.52,16.99zm-19.73 3.98c-0.87,-0.85 -1.11,-0.91 -2.19,-2.33l-17.44 -32.32c5.5,2.54 7.67,11 11.7,15.3 7.63,8.15 8.76,3.23 7.92,19.34zm-7.95 -0.16c-2.16,-1.3 -0.82,-0.35 -2.64,-1.85l-11.79 -9.58c-4.7,-3.43 -8.89,-6.16 -14.79,-9.21 -20.03,-10.35 -30.2,-4.97 -36.03,-13.72 17.08,0.12 28.39,3.58 39.32,11.76 7.91,5.93 21.92,15.85 25.92,22.6zm14.43 30.27c-2.7,-6.02 -2.06,-28.82 -1.15,-37.18 4.02,-37.04 44.93,-59.82 62.47,-46.69l-2.87 1.04c-14.71,4.05 -36.54,13.19 -46.45,22.96 -18.67,18.41 -0.84,42.8 -12.01,59.87zm91.7 -40.91c2.67,-4.57 6.38,-7.49 11.19,-10.84 28.09,-19.59 64.89,-40.96 100.52,-42.96 -0.28,0.23 -0.68,0.49 -0.89,0.62l-14.48 5.98c-20.47,6.5 -52.67,20.93 -71.78,30.99 -13.77,7.25 -15.77,14.29 -24.55,16.21zm-10.26 -28.43c-4.52,-7.07 5.5,-32.93 5.79,-36.5 0.35,5.96 -0.64,14.28 -0.9,20.64 -0.61,15.18 -0.66,15.13 -4.89,15.86zm42.09 -17.97c0.51,-12.46 5.85,-19.13 4.84,-36.62 -0.88,-15.3 -1.28,-27.47 0.25,-42.84 3.94,10.74 4.23,30.2 4.66,42.79 1.27,37.18 -4.45,27.83 -9.75,36.67zm-122.39 2.09c-6.69,-12.75 -13.46,-95.19 -2.48,-103.45 2.55,7.1 3.53,92.09 2.48,103.45zm120.36 15.28c-4.19,-8.01 12.38,-21.04 17.09,-24.87 23.17,-18.86 51.68,-44.87 89.32,-46.01 -37.25,22.41 -30.42,3.78 -85.69,48.31 -13.63,10.98 -13.91,18.96 -20.72,22.57zm-159.11 -71.1c-4.23,-2.95 -6.41,-2.32 -8.33,-8.25 8.83,-3.66 17.65,8.06 21.8,12.13 16.59,16.25 12.9,30.67 19.01,50.28 3,9.63 6.65,19.7 5.09,30.1 -7.33,-8.24 -4.85,-34.41 -13.23,-56.56 -3.9,-10.32 -16.67,-22.36 -24.33,-27.7zm43.8 37.15c0.05,-23.41 -1.52,-44.49 17,-52.57 -4.12,1.11 -8.55,8.22 -10.16,13.32 -2.41,7.63 -1.55,16.54 -1.48,24.56 0.13,14.53 1.56,34.36 -5.01,45.85l-0.35 -31.16zm7.6 26.58c2.58,-14.13 2.82,-19.62 9.21,-31.66 8.04,-15.16 7.73,-23.51 20.76,-39.3 8.89,-10.78 12.19,-23.46 34.75,-24.68 -2.16,1.91 -3.13,2.02 -6.02,3.95 -12.92,8.63 -24.84,24.81 -31.53,39.32 -4.48,9.74 -7.41,18.5 -11.04,29.04 -4.94,14.36 -5.18,16.39 -16.14,23.31zm115.28 68.75c-20.47,-2.99 -32.34,-2.39 -52.79,-0.51 1.62,-3.95 7.08,-9.47 10.26,-13.63 6.75,-8.82 40.31,-14.6 52.02,-17.06 28.17,-5.92 81.34,-3.13 86.82,-5.38 -0.42,-5.89 -5.18,-6.18 -10.42,-8.04 -25.09,-8.88 -52.77,-7.3 -78.27,-0.83 -7.75,1.97 -19.98,6.35 -26.56,6.92 3.12,-1.43 7.8,-5.2 12.47,-7.54l42.06 -19.43c15.09,-6.75 55.56,-16.31 53.8,-26.54 -10.25,-1.48 -35.52,3.61 -45.59,6.63 -14.68,4.4 -24.51,11.05 -36.74,15.48 3.68,-7.63 35.34,-32.25 47.72,-37.74 15.34,-6.8 31.37,-10.87 45.18,-18.98 5.99,-3.52 9.32,-4.1 10.46,-10.85 -17.15,-3.01 -44.76,6.46 -60.11,14.58 -5.84,3.09 -9.66,6.61 -15.21,9.17 6.52,-29.56 29.51,-48.61 27.51,-62.69l-0.75 -2.23c-7.6,1.48 -18.4,17.33 -23.4,23.87l-3.89 3.85c-0.34,-13 0.82,-26.33 0.2,-39.26 -0.26,-5.46 -1.17,-10.51 -2.55,-15.6 -1.49,-5.52 -3.16,-10.07 -7.75,-11.78 -7.48,7.49 -2.6,45.19 -4.24,58.02 -2.36,-5.36 -2.56,-6.45 -5.97,-11.03 -2.95,-3.96 -4.23,-6.63 -8.49,-7.85 -2.76,4.71 -0.08,13.68 -0.21,20.26 -1.16,-3.95 -1.9,-10.89 -2.63,-15.58 -0.78,-5.04 -0.6,-11.76 -5.17,-13.4 -7.58,10.29 -2.3,66.31 -3.37,83.44 -0.55,8.93 -4.33,16.06 -5.24,22.6 -0.94,-16.89 7.72,-72.97 -12.03,-74.78 -2.11,31.59 7.44,100.6 -16.87,116.82 -0.51,-19.23 0.42,-10.4 5.86,-17.53 -2.88,-4.4 -0.72,-1.33 -5.39,-4 0.31,-11.35 6.06,-41.05 0.97,-49.56 -5.89,0.82 -1.28,-2.44 -4.88,3.29 -3.32,5.27 -4.9,11.96 -6.35,17.72 -2.41,9.57 -3.6,17.31 -4.41,27.61 -11.63,3.74 -28.05,2.78 -42.55,8.11 -19.3,7.09 -14.75,14.27 -24.85,24.93 0.02,-13.58 7.31,-19.94 15.52,-24.81 6.91,-4.09 19.72,-11.01 26.4,-13.61 9.47,-3.68 31.66,-0.62 14.65,-12.6 -8.87,-6.26 -22.81,-3.69 -32.73,-1.15 2.5,-13.13 14.42,-40.9 20.49,-50.65 18.1,-29.08 34.02,-23.78 31.69,-36.94l-2.43 -0.76c-8.46,-1.61 5.48,0.12 -2.56,-0.41 -19.54,-1.29 -29.44,14.44 -38.63,26.15 -5.35,6.81 -9.26,11.96 -13.19,21.54 -1.95,4.75 -6.86,18.68 -10.11,21.85 -1.85,-18.13 -3.85,-36.58 12.63,-46.11 5.6,-3.24 10.16,-2.41 11.42,-8.06 -5.73,-3.43 -16.27,-0.74 -21.5,1.99 -7.22,3.77 -9,8.65 -13.63,12.8 -0.24,-12 1.39,-38.23 -4.42,-47.24 -19.69,0.92 -12.11,49.79 -11.63,66.43 -0.3,-0.24 -0.67,-0.57 -0.86,-0.76l-7.45 -9.27c-8.53,-9.24 -16.6,-19.4 -31.45,-15.23 -4.18,17.23 22.08,18.89 32.03,41.39 3.27,7.4 11.47,53.7 11.41,62.39 -11.09,-5.66 -10.36,-24.09 -24.71,-19.7 -1.01,9.93 5.92,17.3 9.41,24.4 -9.69,-5.2 -15.12,-12.98 -26.38,-18.22 -9.15,-4.27 -28.53,-7.95 -38.33,-4.21 -1.6,16.44 27.39,10.21 54.23,29.76 34.21,24.92 25.01,28.6 26.61,55.25 -0.62,-17.67 -1.55,-20.87 -11.4,-30.4 -5.18,-5.01 -13.7,-17.86 -23.99,-15.67 -0.13,11.54 12.44,25.41 17.13,33.16 2.86,4.71 5.79,11.79 8.59,16.81 3.87,6.94 5.7,7.19 8.21,16 -4.73,-10.85 -18.4,-22.79 -27.06,-29.18 -7.13,-5.26 -8.58,-7.57 -13.83,-15.5 -3.67,-5.53 -7.69,-13.78 -14.63,-13.62 -4.16,10.32 5.02,23.78 9.39,29.51 23.51,30.79 46.82,15.44 44.68,75.91 -0.49,-1.93 -1.12,-4.08 -2.12,-6.16 -2.63,-5.46 0.65,-2.05 -3.88,-4.59 -8.43,4.32 -3.13,22.52 -4.3,30.53 -6.86,-6.47 -12.6,-18.23 -28.24,-14.69 -0.56,6.38 12.2,9.56 16.67,20.35 -6.54,-2.39 -23.43,-12.8 -39.82,-6.22 -1.94,12.28 23.11,11.41 31.18,14.92 5.33,2.32 10.21,7.47 13.53,10.48 7.87,7.15 20.88,11.38 25.72,20.98 19.64,38.98 4.39,47.43 22.68,44.07 9.71,-16.21 11.43,-16.73 18.95,-37.05 10.31,-27.87 17.74,-19.75 26.02,-28.32 -2.36,-3.38 -0.89,-2.16 -7.15,-2.01l1.74 -3.55c1.17,-5.73 0.58,-0.38 -0.86,-2.97 -11.94,-3.18 -15.1,-8.2 -30.23,-5.47 -9.47,1.71 -19.56,7.13 -20.98,14.47 -5.12,-15.71 16.02,-23.79 29.69,-25.95 14.44,-2.29 47.14,3.07 51.08,-6.56 -3.4,-7.68 -26.39,-9.76 -34.89,-9.74 -15.37,0.05 -23.57,4.23 -35.66,8.06 42.53,-24.01 78.65,-12.59 80.05,-30.37 -7,-5.06 -23.53,-3.41 -32.99,-3.65 0.29,-0.26 0.74,-0.49 0.98,-0.65 3.6,-2.48 7.89,-4.31 4.74,-9.61 -1.86,-3.12 -7.85,-3.71 -11.7,-3.4 -5.74,0.46 -38.96,13.81 -42.95,17.16 -5.51,4.63 -8.29,9.79 -12.78,16.06 -0.43,-18.18 9.06,-16.84 23.99,-36.8 5.14,1.24 3.28,3.04 9.94,3.07 1.86,-7.52 -0.82,-5.13 -3.15,-11.55 10.13,-6.65 38.21,-5.05 50.92,-3.02 26.41,4.21 32.23,14.39 38.96,14.43 1.27,-6.38 -5.23,-14.19 -8.18,-17.49 -14.46,-16.12 -41.07,-13.59 -60.14,-14.44 49.1,-25.96 87.25,-4.72 108.9,-4.75 -0.76,-13.66 -27.13,-16.68 -37.92,-18.26z"/>
 </g>
</svg>
