<?xml version="1.0" encoding="UTF-8"?>
<!DOCTYPE svg PUBLIC "-//W3C//DTD SVG 1.1//EN" "http://www.w3.org/Graphics/SVG/1.1/DTD/svg11.dtd">
<!-- Creator: CorelDRAW -->
<svg xmlns="http://www.w3.org/2000/svg" xml:space="preserve" width="5.999mm" height="8.1876mm" version="1.1" style="shape-rendering:geometricPrecision; text-rendering:geometricPrecision; image-rendering:optimizeQuality; fill-rule:evenodd; clip-rule:evenodd"
viewBox="0 0 100.81 137.59"
 xmlns:xlink="http://www.w3.org/1999/xlink"
 xmlns:xodm="http://www.corel.com/coreldraw/odm/2003">
 <defs>
  <style type="text/css">
   <![CDATA[
    .fil0 {fill:white}
   ]]>
  </style>
 </defs>
 <g id="Layer_x0020_1">
  <metadata id="CorelCorpID_0Corel-Layer"/>
  <g id="_2477902731296">
   <path class="fil0" d="M45.87 80.29c-3.1,-1.49 -2.98,-6.2 -0.96,-9.51 1.23,-2.02 1.67,-1.69 3.63,-3.06 1.62,-1.14 1.87,-2.6 3.16,-2.96 0.52,1.21 -0.21,1.16 0.99,2.28 0.5,0.46 3.52,1.67 4.95,4.74 2.17,4.64 -1.01,6.96 -2.57,8.58l3.02 -0.87c0.86,0.99 1.16,0.85 1.82,2.29 0.33,0.72 0.66,2 0.65,2.91 -0.02,2.33 -1.43,3.97 -3.19,4.63 1.61,0.25 1.3,-0.61 2.36,0.79 2.58,3.39 0.2,7.24 0.01,8.3 1.12,1.57 2.63,1.63 3.02,4.99 0.32,2.75 -0.92,4.61 -2.55,5.42 0.07,0.05 0.19,0.07 0.24,0.09 1.75,0.57 1.14,0.06 1.92,0.89 2.89,3.06 0.77,7.28 0.67,8.35 1.02,1.12 1.26,0.8 2.27,2.5 3.61,6.09 -1.4,7.46 -2.65,8.81 2.16,-0.52 1.74,-0.99 3.16,-1.53 1.12,2.16 1.29,3.25 -0.47,4.96 -2.39,2.32 -6.49,4.28 -10.18,3.84 -3.63,-0.43 -3.79,-1.71 -3.74,-3.44l1.81 -1.24c-3.56,-1.28 -5.67,-3.58 -4.77,-7.46 0.26,-1.1 0.71,-1.43 1.43,-2.03l0.48 -0.37c-4.54,-1.07 -4.57,-6.29 -3.89,-8.9 0.08,-0.31 0.15,-0.59 0.31,-0.81l1.52 -0.86c0.08,-0.03 0.26,0.01 0.31,-0.12 0.06,-0.14 0.22,-0.06 0.32,-0.13 -2.81,-0.15 -4.58,-2.41 -4.87,-5.19 -0.14,-1.34 0.23,-2.8 0.7,-3.92 0.65,-1.56 0.8,-1.62 2.72,-1.73 -4.79,-2.27 -5.36,-5.55 -2.98,-10.15l2 0.23c-5.66,-3.91 -2.59,-9.35 -1.95,-9.83l1.32 -0.47zm-12.24 -17.19c-0.03,-1.63 1.18,-5.1 2.51,-6.33 1.28,2.55 0.95,4.81 3.31,7.15 2.73,2.7 4.73,3.21 5.74,4.8 -0.64,0.99 -1.37,1.39 -1.95,2.64 -0.99,2.13 -0.68,4.13 -1.05,3.22 -0.02,-0.06 -0.09,0.22 -0.14,0.32 -1.05,-8.44 -5.46,-9.68 -8.41,-11.8zm14.42 3.75c-1.15,-2.31 -1.69,-3.52 -3.17,-5.01 -7.17,-7.18 -8.02,-7.55 -2.95,-14.14 0.54,2 -0.02,3.97 0.88,6.53 1.07,3.04 11.79,9.93 5.24,12.62zm5.21 -7.89c-0.55,-0.74 -0.69,-1.36 -1.13,-2.13 -2.64,-4.59 -10.31,-10.12 -5.76,-14.7 1.96,7.04 2.31,5.31 5.66,8.48 0.65,0.62 2.99,2.81 3.19,3.72 0.22,1.05 -1.29,3.9 -1.95,4.63zm-25.27 47.28c-0.24,-0.39 -0.01,-0.12 -0.49,-0.61 -1.47,-1.48 -2.99,-2.32 -4.37,-4.18 -1.41,-1.9 -1.94,-5.01 -4.47,-5.25 -2.46,4.65 0.27,6.3 2.87,8.33 2.07,1.62 5.64,4.74 4.42,9.02 -3.2,-1.08 -7.33,-8.12 -8.65,-11.02 -1.08,0.58 -0.44,-0.06 -1.28,1.13 -0.25,0.35 -0.56,1.06 -0.73,1.49 -2.11,5.25 0.81,4.34 4.73,7.6 1.67,1.39 2.85,3.12 3.22,6.2l-5.53 -3.89c-1.54,-1.56 -2.3,-3.97 -3.88,-5.37 -2.76,1.29 -2.36,5.52 -0.12,7.13 2.78,2.01 4.02,3.13 4.03,7.16 -1.37,-0.79 -1.95,-2.54 -3.13,-3.61 -1.07,-0.97 -1.84,-2.91 -3.02,-3.76 -1.17,1.51 -1.06,3.62 -1.47,5.69 -0.35,1.78 -1.11,3.91 -2.7,4.92 0.07,-4.73 2.17,-6.08 2.42,-10.6 -1.95,0.84 -4.44,5.17 -6.68,6.46 1.37,-6.67 8.3,-7.03 8.34,-11.88 -2.54,0.06 -3.32,2.38 -4.95,3.82 -1.29,1.14 -3.63,3.02 -5.65,3.4 0.85,-5.43 15.87,-8.93 13.66,-15.08 -1.27,0.17 -8.69,5.31 -10.02,6.32 -1.09,0.84 -2.23,1.82 -3.5,2.2 0.83,-5 5.79,-5.44 9.48,-7.77 3.86,-2.44 7.91,-4.66 7.5,-10.07 -1.89,0.72 -1.68,1.22 -3.24,2.79 -2.17,2.19 -10.17,5.84 -13.08,6.24 0.91,-4.28 6.45,-5.2 10.76,-6.68 4.25,-1.47 7.5,-4.87 7.66,-9.48 -4.14,0.8 -11.23,10.17 -18.17,7.88 1.04,-2.79 8.98,-5.29 11.84,-6 4.66,-1.16 9.39,-5.31 8.44,-9.09 -2.98,1.41 -3.78,3.06 -7.98,3.96 -2.27,0.48 -2.51,0.32 -4.6,1.35 -1.55,0.77 -3.05,1.4 -4.89,1.74 2.94,-6.07 12.74,-4.93 18,-9.08 1.45,-1.14 3.03,-3.8 3.84,-5.69 -5.3,0.84 -5.27,2.81 -9.26,3.99 -1.96,0.58 -9.02,2.37 -10.7,2.16 0.26,-1.16 3.34,-3.58 5.32,-4.21 2.58,-0.83 5.96,-0.91 8.75,-1.25 3.27,-0.4 5.41,-1.3 6.93,-3.13 1.13,-1.36 3.54,-4.36 3.67,-6.35 -1.37,0.33 -3.14,1.2 -4.95,1.72 -2.65,0.77 -9.55,6.52 -16.23,3.45 0.51,-1.12 4.85,-2.8 6.23,-3.4 3.42,-1.47 4.81,-1.33 8.84,-0.89 3.2,0.35 5.14,-0.99 6.28,-2.98 0.77,-1.34 2.93,-5.44 3.21,-6.86l-11.08 2.71c-3.21,1.64 -7.66,4.34 -11.35,2.12l6.91 -3.56c10.95,-4.57 11.06,4.21 19.44,-6.23 0.92,-1.15 1.78,-1.62 2.65,-2.73 -2.33,4.1 -6.21,6.04 -1.67,11.31 2.02,2.34 6,5.23 6.96,8.33l0.02 1.52c-1.5,0.63 -1.5,-0.48 -3.24,-1.68 -7.12,-4.92 -3.99,-6.5 -6.46,-10.65 -2.73,-0.02 -4.53,6.42 -4.4,8.19 2.85,2.43 3.32,0.56 6.22,4.86 1.59,2.35 2.71,5.58 2.6,8.99 -2.89,-1.44 -8.79,-11.84 -9.63,-12.38 -0.75,0.52 -2.93,4.23 -3.24,5.73 -0.67,3.23 6.59,4.58 9.03,8.55 1.1,1.78 3.49,10.12 0.1,5.9 -1.58,-1.97 -3.29,-2.87 -5.13,-4.58 -1.5,-1.4 -1.67,-1.67 -2.88,-3.44 -1.27,-1.85 -1.53,-3.6 -2.35,-4.33 -1.01,1.24 -2.87,4.65 -3.04,6.46 0.97,0.43 2.75,0.9 3.9,1.59 3.82,2.29 6.3,6.84 6.27,11.65 -1.12,-0.8 -1.63,-1.87 -2.62,-3.02 -1.03,-1.19 -1.95,-1.8 -3.1,-2.87 -1.05,-0.97 -1.83,-1.9 -2.67,-3.28 -0.91,-1.49 -1.03,-2.73 -2.97,-3.22 -1.93,7.16 -2.57,6.12 2.88,10.01 2.71,1.94 5.4,5.61 5.52,10.67 -3.5,-2.13 -5.89,-5.88 -7.67,-9.26 -0.84,-1.6 -1.08,-2.89 -2.95,-3.22 -3.54,8.8 3.32,8.48 6.54,13.03 0.68,0.96 2.54,4.02 0.69,4.87zm47.27 -32.11c3.48,-1.81 8.86,2.67 3.36,9.85 0.96,-0.62 4.15,-3.47 5.67,1.31 0.79,2.49 -0.43,2.75 -0.11,4.92 2.04,1.12 3.03,0.86 3.28,3.82 0.23,2.73 -0.91,3.68 -2.11,4.73 5.03,-3.28 7.12,3.67 5.14,7.44 4.26,-1.31 7.03,5.7 2.98,7.73 2.83,-0.51 4.28,-0.5 4.7,3.2 0.21,1.85 -0.28,2.35 0.57,3.93 2.16,4.03 0.4,6.95 -3.62,8.48 -1.2,0.46 -2.51,0.71 -3.88,0.52 -1.77,-0.25 -2.53,-0.78 -2.97,-1.84 1.95,-0.95 1.75,-0.49 3.18,-1.9 -3.02,0.94 -5.76,1.19 -7.65,-1.11 -2.95,-3.59 -1.06,-4.82 0.75,-7.02 -4.29,0.93 -6.85,-1.05 -6.34,-5.59 1.2,-0.59 1.53,-0.03 2.9,-1.02 -3.66,0.79 -9.54,-1.19 -6.22,-9.1 -4.16,-0.96 -6.15,-7.23 -1.96,-7.95 -4.97,-0.43 -5.94,-2.54 -4.69,-7.3 -3.24,-1.25 -4.47,-5.34 -3.37,-10l1.99 -0.91c-2.34,-0.37 -4.04,-2.03 -3.59,-4.96 0.44,-2.86 2.6,-3.74 3.36,-5.63 0.09,-1.21 -4.85,-6.76 -6.37,-11.46 -1.44,-4.45 -0.54,-2.8 -2,-3.79l1.21 -4.21c0.56,-1.28 -0.13,-0.54 0.7,-0.88 -1,5.86 2.88,14.34 5.9,17.94 3.46,4.13 9.43,-0.74 11.24,7.04 0.73,3.14 -0.84,2.18 -2.05,3.76zm-17.88 -24.28c-2.1,-1.01 -4.97,-4.54 -6.39,-6.41 -2.66,-3.5 -0.24,-7.38 1.15,-8.3 2.03,3.92 0.57,4.43 4.23,7.39 3.67,2.96 2.06,2.02 1.01,7.32zm2.57 -11.58c-1.72,-1.48 -5.23,-5.08 -3.39,-7.52 0.47,-0.62 1.41,-1.63 1.9,-2.07 0.44,0.8 0.62,1.56 0.97,2.25 0.85,1.68 2.69,1.78 1.04,6.31 -0.03,0.09 -0.08,0.2 -0.11,0.27l-0.41 0.76zm2.62 -10.46c-0.94,-2.06 -1.45,-3.12 -0.17,-5.37 0.83,-1.45 1.9,-3.42 2.71,-4.72 -0.18,1.61 -1.52,8.81 -2.54,10.09zm-7.5 -0.42c-1.55,-0 -2,0.71 -4.03,0.85 -1.48,0.1 -3.36,0.02 -4.84,-0.11 -8.5,-0.77 -9.72,-2.84 -18.74,2.9 -1.1,0.7 -1.93,0.99 -1.6,2.58 2.98,2.09 9.47,-0.61 12.66,-1.13 2.6,-0.43 4.75,-0.05 7.3,-0.21 2.91,-0.17 3.6,-1.07 5.99,-1.59 -0.89,1.36 -1.86,1.7 -3.02,2.71 -7.49,6.47 -16.09,0.07 -22.85,3.55 -2.9,1.49 -5.86,2.6 -5.93,5.12 5.98,0.92 8.17,-1.06 13.54,-1.39 12.41,-0.75 7.35,-1.62 12.9,-2.81 -0.46,1.27 -1.49,1.83 -2.33,2.75 -4.2,4.58 -14.94,1.44 -21.28,4.76 -1.87,0.98 -5.6,2.09 -6.46,4 1.64,2.01 8.04,1.35 12.12,-0.55 2.33,-1.08 3.79,-0.68 6.39,-1.08 2.37,-0.36 3.49,-1.09 5.45,-1.81l-1.35 1.84c-0.47,0.57 -0.68,0.91 -1.18,1.42 -0.93,0.97 -1.81,1.87 -2.6,2.6 -5.08,4.74 -8.05,-1.84 -17.62,3.21 -3.15,1.66 -5.9,1.93 -6.47,4.04 1.83,2.44 8.83,1.13 11.26,-0.37 3.4,-2.1 6.35,-2.22 10.79,-3.18 -2.63,9.15 -7.44,7.44 -11.17,7.32 -3.38,-0.11 -5.16,0.6 -7.74,1.87 -2.66,1.31 -5.02,2.17 -5.34,4.13 2.92,1.11 8.03,1.39 11.5,0.19 2.64,-0.91 3.41,-2.89 9.36,-4.17 -0.42,1.23 -3.04,4.73 -4.34,5.46 -2.12,1.19 -5.28,1.43 -8.15,1.63 -4.33,0.3 -7.64,1.1 -10.45,3.96 -5.56,5.66 6.23,1.88 9.35,1.14 4.62,-1.09 5.06,-2.73 8.76,-3.86 -1.63,4.49 -6.76,5.86 -11.05,6.77 -5.03,1.07 -6.06,1.93 -8.65,4.78 -0.76,0.83 -1.54,1.32 -1.06,2.6 1.21,0.49 6.75,-2.12 8.85,-2.64 4.73,-1.17 5.11,-1.51 8.5,-3.72 -1.83,4.15 -4.42,6.41 -9.95,7.47 -3.65,0.7 -3.4,0.87 -6.02,2.56 -1.95,1.26 -4.32,1.52 -4.77,3.82 6.52,3.53 15.08,-4.72 18.64,-6.89 -1.15,4.7 -4.84,7.05 -9.14,8.15 -3.5,0.9 -9.79,3.51 -9.26,7.4 3.07,0.81 6.6,-1.66 8.95,-2.86 8.12,-4.15 4.3,-3.14 7.19,-5.15 -3.02,9.7 -12.85,8.03 -16.53,13.69 -0.81,1.25 -0.87,2.66 -0.29,3.15 1.42,1.2 4.64,-2.04 6.92,-3.6 1.57,-1.07 5.47,-3.73 6.68,-4.25 -0.85,2.78 -5.03,5.79 -7.48,7.18 -2.04,1.15 -6.25,3.46 -6.46,6.24l0.3 1.24c1.63,0.24 4.4,-1.58 5.57,-2.4 -0.96,0.94 -4.93,5.14 -3.26,7.45 2.22,-0.12 4.39,-3.56 5.88,-5.1 -0.43,2.91 -2.58,5.2 -1.79,9.16 3.76,-0.35 4.34,-5.55 4.82,-9.72l1.68 1.76c3.37,3.38 2.95,4.56 4.66,5.01 1.96,-2.17 -0.42,-6.81 -1.74,-7.94 -1.19,-1.03 -2.18,-0.95 -2.94,-2.66 -0.61,-1.39 -0.47,-2.56 0.38,-3.73 5.33,7.4 2.46,3.55 7.17,6.98 1.54,1.12 0.92,1.9 3.04,1.74 0.59,-2.53 -1.52,-6.19 -2.69,-7.28 -1.71,-1.59 -4.44,-2.59 -5.7,-3.85 0.03,-1.79 0.73,-3.42 1.24,-4.84l0.74 0.88c0.91,1.34 1.69,3.57 3.47,5.47 1.26,1.35 4.52,5.17 5.78,3.88 1.61,-3.77 -1.89,-7.49 -3.73,-9.29 -1.35,-1.32 -7.12,-4.26 -3.53,-7.51 1.56,1.28 2.21,3.47 3.62,5.18 0.83,1.01 3.53,3.51 4.96,3.95 0.49,0.6 -1.13,0.33 1.03,0.63 1.33,-1.5 0.55,-3.31 -0.37,-4.98 -3.03,-5.44 -8.98,-4.18 -7.48,-12.48 1.3,0.82 3.42,5.46 4.73,7.03 1.04,1.25 1.71,1.62 2.88,2.71 1.4,1.3 1.16,2.44 3.27,2.33 1.37,-8.66 -7.25,-12.54 -8.57,-14.14 -1.04,-1.26 -0.86,-4.31 0.4,-5.57 1.07,1.25 1.3,2.22 2.21,3.33l4.35 4.21c2.36,1.75 2.3,3.76 4.23,3.88 1.55,-2.66 -1.16,-7.96 -2.36,-9.46 -2.87,-3.6 -3.95,-3.08 -7.22,-4.87 0.15,-1.06 0.32,-1.61 0.78,-2.56l1.36 -1.74c0.51,0.83 0.71,1.56 1.14,2.33 0.46,0.83 0.71,1.06 1.21,1.76 1.13,1.58 1.25,1.88 2.91,3.04 3.31,2.33 4.97,5.43 6.8,5.7 2.56,-6.71 -2.46,-11.22 -7.8,-13.99 -3.76,-1.95 -1.03,-3.94 0.21,-7.22 1.63,1.51 3.18,5.27 4.75,7.1 2.73,3.18 3.74,6.17 6.06,4.19 0.26,1.63 0.82,1.59 0.63,3.06 -0.09,0.78 -0.76,1.97 -0.97,2.81 -0.85,3.43 0.8,4.03 1.19,6.06 0.31,1.62 -1.67,2.38 -1.27,5.72 0.33,2.78 1.22,3.4 2.42,4.87 0.7,2.23 -4.55,7.17 1.6,11.55 -0.76,2.67 -1.28,6.04 0.24,8.76 0.54,0.97 1.14,1.22 1.4,1.9 0.47,1.2 -2.08,7.57 2.63,9.36 -0.15,2.64 -0.56,3.6 1.3,5 3.48,2.61 10.94,-0.12 13.52,-2.33 4.46,-3.83 0.92,-5.71 1.71,-7.93 1.34,-3.72 -1.24,-6.25 -2.64,-8.45 1.1,-4.15 0.73,-7.18 -2.09,-8.94 0.95,-1.9 1.94,-2.72 1.36,-5.77 -0.43,-2.27 -1.62,-3.46 -2.54,-5 -0.25,-1.66 3.67,-5.1 -1.44,-9.21 2.64,-5.77 2.51,-4.67 -0.51,-9.61 -0.75,-1.23 -0.07,-1.26 0.23,-2.76 1.16,-5.78 -3.88,-8.44 -6.32,-10.39 -0.05,-2.16 3.41,-7.33 4.28,-10.18 3.92,1.33 3.46,1.45 5.19,4.34 0.99,1.64 2.87,4.01 3.44,5.45 -1.02,1.72 -2.55,1.7 -3.49,4.66 -1,3.18 0.81,4.4 1.21,6.26 0.78,3.62 -2.89,5.95 3.48,11.02 -1.88,4.06 0.85,5.45 2.77,7.21 -0.01,4.85 0.1,5.64 3.52,8.04 -0.3,2.81 -0.93,5.65 1.48,7.81 0.61,0.54 1.46,1.04 1.67,1.29 1.87,2.16 -0.38,5.67 5.29,7.32 -2.51,5.87 3.72,7.15 5.6,9.69 4.07,5.51 16.21,-0.6 12.84,-7.63 -0.86,-1.78 -0.85,-0.25 -0.95,-3.22 -0.04,-1.2 -0.24,-2.21 -0.8,-3.21 -0.65,-1.14 -1.69,-1.6 -2.07,-2.37 -0.47,-0.95 -0.1,-2.29 -0.34,-3.73 -0.38,-2.28 -2.06,-3.4 -4.08,-4.16 0.22,-2.02 0.19,-3.15 -0.67,-4.91 -0.68,-1.38 -1.81,-2.6 -3.2,-3.12 0.17,-3.67 -0.35,-6.03 -3.39,-6.76 1.42,-4.23 0.67,-7.26 -3.44,-8 1.75,-7.71 -1.45,-7.36 -2.77,-9.16 -1.47,-2.86 -0.06,-5.4 -4,-7.52 -3.47,-1.87 -5.97,0.8 -8.52,-3 -2.08,-3.08 -6.75,-12 -5.19,-16.48 1.54,1.4 3.27,5.43 5.36,5.68 0.9,-2.37 0.27,-5.98 -1.07,-8.01 -2.5,-3.8 -3.22,-1.33 -2.08,-7.01 2.1,2.11 3.07,7.37 6.71,7.49 0.29,-4.3 -0.51,-7.33 -2.72,-10.21 -2.81,-3.67 -2.23,-3.53 -1.11,-9.28 0.69,-3.55 1.38,-7.06 2.04,-10.65 0.41,-2.25 2.91,-8.22 2.41,-9.3 -1.12,1.72 -3.14,9.63 -3.63,12.26l-1.92 9.96c-0.16,1.09 -0.23,2.19 -0.88,2.93 -0.35,-3 2.11,-10.09 2.12,-14.24 -0.9,0.47 -0.92,0.64 -1.35,1.51 -0.31,0.63 -0.54,1.25 -0.84,1.76 -0.67,1.13 -1.4,2.1 -2.07,3.13 -4.99,7.71 7.55,9.45 7.12,21.19 -1.2,-0.9 -1.94,-2.24 -2.84,-3.87 -1.44,-2.61 -3.58,-5.21 -5.08,-7.57 -0.89,-1.39 -1.26,-2.88 -2.17,-4.23 -1.81,0.39 -4.36,3.64 -3.98,5.5 0.93,4.46 6.63,7.19 8.9,10.47 0.99,1.44 2.49,4.76 1.77,6.62 -1.42,-1.07 -2.12,-3.26 -3.28,-4.36 -0.83,-0.78 -3.16,-2.1 -4.41,-3.02 -4.99,-3.68 -2.88,-6.01 -5.4,-9.41 -1.51,1.2 -3.1,3.55 -3.76,6.06 -0.77,2.91 1.66,4.8 2.84,6.31 1.44,1.84 3.43,3.42 5.25,4.8 1.06,0.8 3.12,3.86 3.44,5.97 -2.19,-0.64 -9.88,-7.94 -11.33,-10.36 -0.89,-1.48 -0.98,-3.79 -1.94,-5.22 -5.87,2.59 -1.82,7.98 0.58,11.06 3.09,3.96 5.5,6.43 4.83,12 -1.34,-0.53 -2.4,-2.54 -3.36,-3.79 -1.37,-1.79 -2.06,-2.07 -3.54,-3.53 -2.53,-2.49 -1.65,-5.67 -2.16,-8.97 -0.26,-1.71 -0.73,-1.24 -1.45,-1.81l0.5 -1.37c-1.66,0.12 -3.67,1.56 -5.39,2.13 -2.16,0.72 -4.41,0.58 -6.63,0.9 -1.89,0.27 -3.47,1.51 -5.63,2.07 -2.14,0.55 -4.74,0.7 -6.98,0.23 1.07,-1.4 4.98,-3.28 7.25,-4.03 5.58,-1.85 14.09,0.03 18.87,-3.44 0.99,-0.72 4.52,-4.7 5.05,-6.23l-6.18 2.51c-2.69,0.94 -3.88,1.21 -6.91,1.34 -4.97,0.2 -10.74,2.35 -14.89,1.77 0.62,-1.22 5.97,-4.03 7.46,-4.41 6.31,-1.61 14.14,2.4 20.08,-2.25 1.68,-1.31 5.29,-3.78 5.79,-5.8 -1.78,0.14 -4.06,1.35 -5.94,1.93 -2.6,0.81 -4.92,0.42 -7.68,0.52 -4.65,0.17 -9.38,3.08 -13.95,1.69 0.18,-1.6 3.7,-3.16 5.21,-3.76 2.41,-0.94 5.25,-1.55 7.99,-1.3 4.22,0.4 9.78,2.24 14.01,0.25l1.22 -1.01z"/>
   <path class="fil0" d="M55.06 27.38c1.21,-0.19 2.57,-1.1 3.1,-2.07 -4.58,0.88 -4.93,2.12 -10.42,0.54 -7.38,-2.12 -7.3,-0.49 -10.13,-1.41 -0.79,-0.26 -0.46,-0.16 -0.81,-0.37 1.06,-1.45 3.64,-2.07 5.43,-2.45 6.59,-1.39 13.38,6.05 18.48,0.25 3.97,-4.51 10.04,-20.26 8.93,-21.87 -2.26,6.98 -5.31,16.9 -9.87,21.68 -4.63,4.86 -11.18,-2.75 -18.87,-0.64 -3.03,0.83 -4.7,1.59 -4.82,3.54 3.57,1.53 6.31,0.24 9.76,1.31 2.8,0.87 6.55,2.35 9.25,0.95 -0.08,0.1 0.05,0.18 -0.04,0.53z"/>
  </g>
 </g>
</svg>
